SplineFontDB: 3.2
FontName: first
FullName: First Font
FamilyName: first
Weight: Book
Copyright: BSD 3-Clause License\n\nCopyright (c) 2020, Henry Heino\nAll rights reserved.\n\nRedistribution and use in source and binary forms, with or without\nmodification, are permitted provided that the following conditions are met:\n\n1. Redistributions of source code must retain the above copyright notice, this\n   list of conditions and the following disclaimer.\n\n2. Redistributions in binary form must reproduce the above copyright notice,\n   this list of conditions and the following disclaimer in the documentation\n   and/or other materials provided with the distribution.\n\n3. Neither the name of the copyright holder nor the names of its\n   contributors may be used to endorse or promote products derived from\n   this software without specific prior written permission.\n\nTHIS SOFTWARE IS PROVIDED BY THE COPYRIGHT HOLDERS AND CONTRIBUTORS "AS IS"\nAND ANY EXPRESS OR IMPLIED WARRANTIES, INCLUDING, BUT NOT LIMITED TO, THE\nIMPLIED WARRANTIES OF MERCHANTABILITY AND FITNESS FOR A PARTICULAR PURPOSE ARE\nDISCLAIMED. IN NO EVENT SHALL THE COPYRIGHT HOLDER OR CONTRIBUTORS BE LIABLE\nFOR ANY DIRECT, INDIRECT, INCIDENTAL, SPECIAL, EXEMPLARY, OR CONSEQUENTIAL\nDAMAGES (INCLUDING, BUT NOT LIMITED TO, PROCUREMENT OF SUBSTITUTE GOODS OR\nSERVICES; LOSS OF USE, DATA, OR PROFITS; OR BUSINESS INTERRUPTION) HOWEVER\nCAUSED AND ON ANY THEORY OF LIABILITY, WHETHER IN CONTRACT, STRICT LIABILITY,\nOR TORT (INCLUDING NEGLIGENCE OR OTHERWISE) ARISING IN ANY WAY OUT OF THE USE\nOF THIS SOFTWARE, EVEN IF ADVISED OF THE POSSIBILITY OF SUCH DAMAGE.
Version: 1.4
ItalicAngle: -30.1
UnderlinePosition: 0
UnderlineWidth: 0
Ascent: 1636
Descent: 412
InvalidEm: 0
sfntRevision: 0x00020000
LayerCount: 2
Layer: 0 1 "Back" 1
Layer: 1 1 "Fore" 0
HasVMetrics: 1
XUID: [1021 167 1386241627 9457681]
StyleMap: 0x0001
FSType: 0
OS2Version: 1
OS2_WeightWidthSlopeOnly: 0
OS2_UseTypoMetrics: 0
CreationTime: 1602010338

StartChar: .notdef
Encoding: 1114112 -1 0
Width: 799
Flags: W
LayerCount: 2
Fore
SplineSet
68 0 m 1,0,-1
 68 1364 l 1,1,-1
 612 1364 l 1,2,-1
 612 0 l 1,3,-1
 68 0 l 1,0,-1
136 68 m 1,4,-1
 544 68 l 1,5,-1
 544 1296 l 1,6,-1
 136 1296 l 1,7,-1
 136 68 l 1,4,-1
EndSplineSet
Validated: 1
EndChar

StartChar: uni0000
Encoding: 0 0 1
Width: 799
GlyphClass: 2
Flags: W
LayerCount: 2
Fore
SplineSet
84 1872 m 2,0,1
 88 1876 88 1876 92 1884 c 0,2,3
 94 1886 94 1886 95 1887 c 128,-1,4
 96 1888 96 1888 96 1890 c 0,5,6
 112 1914 112 1914 124 1926 c 1,7,-1
 620 2056 l 1,8,-1
 462 1954 l 2,9,10
 452 1952 452 1952 430 1950 c 128,-1,11
 408 1948 408 1948 398 1948 c 0,12,13
 374 1946 374 1946 306 1938 c 0,14,15
 282 1936 282 1936 208 1918 c 1,16,-1
 84 1872 l 2,0,1
596 1934 m 2,17,-1
 748 2034 l 1,18,19
 760 2036 760 2036 782 2036 c 2,20,-1
 916 2036 l 2,21,22
 952 2036 952 2036 1022 2039 c 128,-1,23
 1092 2042 1092 2042 1126 2042 c 0,24,25
 1210 2038 1210 2038 1232 2006 c 0,26,27
 1238 1998 1238 1998 1260 1954 c 0,28,29
 1266 1940 1266 1940 1278 1914 c 128,-1,30
 1290 1888 1290 1888 1296 1874 c 0,31,32
 1314 1830 1314 1830 1316 1828 c 2,33,-1
 1146 1746 l 1,34,35
 1144 1756 1144 1756 1128 1792 c 1,36,37
 1100 1884 1100 1884 1066 1918 c 1,38,39
 1026 1944 1026 1944 974 1944 c 2,40,-1
 972 1944 l 2,41,42
 936 1944 936 1944 868 1940 c 128,-1,43
 800 1936 800 1936 766 1936 c 2,44,-1
 628 1936 l 2,45,46
 606 1936 606 1936 596 1934 c 2,17,-1
144 1908 m 1,47,-1
 146 1908 l 1,48,-1
 144 1908 l 1,47,-1
426 1552 m 0,49,50
 424 1560 424 1560 424 1580 c 0,51,52
 424 1648 424 1648 498 1704 c 0,53,54
 546 1742 546 1742 578 1756 c 1,55,56
 614 1764 614 1764 682 1805 c 128,-1,57
 750 1846 750 1846 792 1854 c 0,58,59
 796 1854 796 1854 802 1857 c 128,-1,60
 808 1860 808 1860 814 1860 c 2,61,-1
 828 1860 l 2,62,63
 890 1860 890 1860 956 1806 c 0,64,65
 1012 1762 1012 1762 1038 1714 c 128,-1,66
 1064 1666 1064 1666 1064 1584 c 2,67,-1
 1064 1548 l 1,68,69
 1056 1494 1056 1494 1036 1428 c 0,70,71
 1022 1376 1022 1376 972 1312 c 0,72,73
 898 1216 898 1216 756 1122 c 0,74,75
 744 1116 744 1116 720 1101 c 128,-1,76
 696 1086 696 1086 684 1078 c 0,77,78
 666 1066 666 1066 664 1064 c 0,79,80
 656 1050 656 1050 656 1030 c 2,81,-1
 656 958 l 2,82,83
 656 938 656 938 652 899 c 128,-1,84
 648 860 648 860 648 842 c 2,85,-1
 648 818 l 1,86,-1
 474 740 l 2,87,88
 474 744 474 744 475 753 c 128,-1,89
 476 762 476 762 476 766 c 0,90,91
 476 774 476 774 478 790 c 128,-1,92
 480 806 480 806 480 814 c 128,-1,93
 480 822 480 822 484 845 c 128,-1,94
 488 868 488 868 488 882 c 2,95,-1
 488 952 l 2,96,97
 488 958 488 958 487 971 c 128,-1,98
 486 984 486 984 486 990 c 0,99,100
 488 1008 488 1008 506 1018 c 0,101,102
 558 1046 558 1046 584 1062 c 0,103,104
 634 1096 634 1096 684 1136 c 0,105,106
 776 1206 776 1206 831 1284 c 128,-1,107
 886 1362 886 1362 896 1476 c 0,108,109
 896 1480 896 1480 897 1490 c 128,-1,110
 898 1500 898 1500 898 1506 c 0,111,112
 898 1622 898 1622 850 1670 c 0,113,114
 768 1760 768 1760 686 1760 c 0,115,116
 668 1760 668 1760 660 1758 c 0,117,118
 596 1710 596 1710 596 1630 c 0,119,120
 596 1592 596 1592 614 1512 c 1,121,-1
 440 1436 l 1,122,123
 442 1450 442 1450 432 1492 c 0,124,125
 430 1500 430 1500 429 1510 c 128,-1,126
 428 1520 428 1520 427 1533 c 128,-1,127
 426 1546 426 1546 426 1552 c 0,49,50
70 1752 m 1,128,-1
 242 1830 l 1,129,-1
 242 1800 l 2,130,131
 242 1734 242 1734 260 1636 c 0,132,133
 264 1618 264 1618 268 1544 c 0,134,135
 268 1538 268 1538 269 1525 c 128,-1,136
 270 1512 270 1512 270 1506 c 1,137,-1
 100 1432 l 1,138,139
 102 1444 102 1444 102 1468 c 0,140,141
 102 1498 102 1498 94 1562 c 0,142,143
 88 1594 88 1594 81 1657 c 128,-1,144
 74 1720 74 1720 70 1752 c 1,128,-1
716 1796 m 1,145,146
 722 1800 722 1800 735 1807 c 128,-1,147
 748 1814 748 1814 754 1816 c 1,148,149
 748 1814 748 1814 735 1807 c 128,-1,150
 722 1800 722 1800 716 1796 c 1,145,146
572 1724 m 2,151,152
 594 1738 594 1738 622 1748 c 1,153,154
 604 1740 604 1740 584 1730 c 2,155,-1
 572 1724 l 2,151,152
1080 822 m 1,156,157
 1094 892 1094 892 1102 938 c 0,158,159
 1112 992 1112 992 1144 1094 c 128,-1,160
 1176 1196 1176 1196 1186 1252 c 0,161,162
 1192 1290 1192 1290 1192 1380 c 2,163,-1
 1192 1402 l 2,164,165
 1192 1418 1192 1418 1196 1446 c 128,-1,166
 1200 1474 1200 1474 1200 1482 c 0,167,168
 1202 1506 1202 1506 1202 1550 c 2,169,-1
 1202 1592 l 1,170,-1
 1372 1670 l 1,171,-1
 1372 1634 l 2,172,173
 1372 1626 1372 1626 1360 1470 c 0,174,175
 1360 1452 1360 1452 1358 1417 c 128,-1,176
 1356 1382 1356 1382 1356 1364 c 0,177,178
 1348 1292 1348 1292 1314 1212 c 0,179,180
 1310 1198 1310 1198 1301 1177 c 128,-1,181
 1292 1156 1292 1156 1288 1138 c 0,182,183
 1288 1134 1288 1134 1264 1008 c 1,184,185
 1252 900 1252 900 1252 898 c 2,186,-1
 1080 822 l 1,156,157
0 730 m 1,187,188
 46 850 46 850 46 964 c 0,189,190
 46 1040 46 1040 38 1098 c 1,191,-1
 212 1176 l 1,192,193
 206 1130 206 1130 201 1026 c 128,-1,194
 196 922 196 922 186 870 c 0,195,196
 184 856 184 856 177 832 c 128,-1,197
 170 808 170 808 168 802 c 1,198,-1
 0 730 l 1,187,188
504 288 m 1,199,-1
 660 388 l 1,200,201
 850 378 850 378 890 378 c 2,202,-1
 896 378 l 2,203,204
 980 378 980 378 1036 392 c 1,205,206
 1066 416 1066 416 1078 432 c 0,207,208
 1098 460 1098 460 1104 510 c 0,209,210
 1104 518 1104 518 1105 536 c 128,-1,211
 1106 554 1106 554 1106 562 c 0,212,213
 1106 564 1106 564 1105 570 c 128,-1,214
 1104 576 1104 576 1104 580 c 0,215,216
 1104 596 1104 596 1100 624 c 1,217,-1
 1270 698 l 1,218,219
 1270 682 1270 682 1274 654 c 1,220,-1
 1274 586 l 2,221,222
 1274 514 1274 514 1206 454 c 0,223,224
 1094 362 1094 362 946 308 c 1,225,226
 856 282 856 282 758 282 c 2,227,-1
 738 282 l 2,228,229
 718 284 718 284 677 286 c 128,-1,230
 636 288 636 288 616 288 c 0,231,232
 606 288 606 288 585 289 c 128,-1,233
 564 290 564 290 554 290 c 0,234,235
 520 290 520 290 504 288 c 1,199,-1
460 516 m 1,236,237
 460 524 460 524 460 538 c 128,-1,238
 460 552 460 552 462 558 c 0,239,240
 464 562 464 562 467 574 c 128,-1,241
 470 586 470 586 470 590 c 0,242,243
 470 592 470 592 471 595 c 128,-1,244
 472 598 472 598 472 600 c 2,245,-1
 648 676 l 1,246,247
 648 662 648 662 639 639 c 128,-1,248
 630 616 630 616 630 604 c 1,249,-1
 632 600 l 2,250,251
 632 596 632 596 632 594 c 2,252,-1
 460 516 l 1,236,237
40 386 m 1,253,-1
 212 468 l 1,254,255
 222 380 222 380 384 380 c 0,256,257
 404 380 404 380 412 382 c 2,258,-1
 256 282 l 1,259,-1
 226 282 l 2,260,261
 164 282 164 282 118 302 c 0,262,263
 68 324 68 324 40 386 c 1,253,-1
EndSplineSet
Validated: 5
EndChar

StartChar: exclam
Encoding: 33 33 4
Width: 799
GlyphClass: 2
Flags: W
LayerCount: 2
Fore
SplineSet
214 1868 m 2,0,1
 214 1866 214 1866 215 1861 c 128,-1,2
 216 1856 216 1856 216 1854 c 0,3,4
 222 1794 222 1794 222 1782 c 2,5,-1
 222 1716 l 2,6,7
 222 1700 222 1700 221 1668 c 128,-1,8
 220 1636 220 1636 220 1618 c 2,9,-1
 220 1502 l 2,10,11
 220 1476 220 1476 219 1426 c 128,-1,12
 218 1376 218 1376 218 1350 c 2,13,-1
 218 1328 l 2,14,15
 218 1320 218 1320 219 1300 c 128,-1,16
 220 1280 220 1280 220 1270 c 2,17,-1
 220 1122 l 2,18,19
 220 1108 220 1108 219 1080 c 128,-1,20
 218 1052 218 1052 218 1036 c 0,21,22
 218 1018 218 1018 228 952 c 0,23,24
 230 934 230 934 234 899 c 128,-1,25
 238 864 238 864 240 846 c 0,26,27
 240 840 240 840 241 830 c 128,-1,28
 242 820 242 820 242 814 c 2,29,-1
 242 786 l 2,30,31
 242 772 242 772 243 748 c 128,-1,32
 244 724 244 724 244 712 c 2,33,-1
 244 684 l 1,34,-1
 282 700 l 2,35,36
 320 716 320 716 356 732 c 2,37,-1
 394 750 l 1,38,39
 394 758 394 758 392 776 c 2,40,-1
 392 792 l 2,41,42
 390 808 390 808 390 810 c 128,-1,43
 390 812 390 812 389 818 c 128,-1,44
 388 824 388 824 388 828 c 128,-1,45
 388 832 388 832 387 840 c 128,-1,46
 386 848 386 848 386 852 c 0,47,48
 386 870 386 870 384 878 c 0,49,50
 384 884 384 884 382 894 c 128,-1,51
 380 904 380 904 380 908 c 0,52,53
 378 928 378 928 376 952 c 128,-1,54
 374 976 374 976 372 1006 c 128,-1,55
 370 1036 370 1036 368 1052 c 0,56,57
 368 1056 368 1056 367 1064 c 128,-1,58
 366 1072 366 1072 366 1076 c 2,59,-1
 366 1098 l 2,60,61
 366 1106 366 1106 360 1148 c 0,62,63
 360 1152 360 1152 359 1164 c 128,-1,64
 358 1176 358 1176 358 1182 c 128,-1,65
 358 1188 358 1188 357 1202 c 128,-1,66
 356 1216 356 1216 356 1222 c 0,67,68
 356 1232 356 1232 355 1242 c 128,-1,69
 354 1252 354 1252 353 1258 c 128,-1,70
 352 1264 352 1264 352 1266 c 0,71,72
 352 1274 352 1274 350 1322 c 0,73,74
 352 1382 352 1382 352 1497 c 128,-1,75
 352 1612 352 1612 354 1672 c 0,76,77
 354 1818 354 1818 370 1932 c 1,78,-1
 332 1916 l 2,79,80
 292 1902 292 1902 252 1884 c 2,81,-1
 214 1868 l 2,0,1
228 200 m 1,82,-1
 268 212 l 2,83,84
 306 226 306 226 344 240 c 2,85,-1
 384 256 l 1,86,-1
 384 272 l 2,87,88
 384 274 384 274 383 278 c 128,-1,89
 382 282 382 282 382 284 c 0,90,91
 382 306 382 306 384 318 c 2,92,-1
 384 350 l 2,93,94
 384 352 384 352 383 355 c 128,-1,95
 382 358 382 358 382 360 c 0,96,97
 382 366 382 366 383 370 c 128,-1,98
 384 374 384 374 384 380 c 2,99,-1
 384 458 l 2,100,101
 384 460 384 460 384 462 c 128,-1,102
 384 464 384 464 386 466 c 0,103,104
 388 480 388 480 396 480 c 1,105,106
 232 448 232 448 232 444 c 2,107,-1
 232 436 l 2,108,109
 232 434 232 434 230 430 c 128,-1,110
 228 426 228 426 228 424 c 2,111,-1
 228 392 l 1,112,-1
 228 390 l 1,113,-1
 230 388 l 1,114,-1
 230 354 l 1,115,-1
 230 322 l 2,116,117
 230 320 230 320 231 312 c 128,-1,118
 232 304 232 304 232 302 c 128,-1,119
 232 300 232 300 231 298 c 128,-1,120
 230 296 230 296 230 294 c 2,121,-1
 230 284 l 1,122,123
 230 284 230 284 230 286 c 2,124,-1
 230 262 l 2,125,126
 230 254 230 254 230 231 c 128,-1,127
 230 208 230 208 228 200 c 1,82,-1
EndSplineSet
Validated: 5
EndChar

StartChar: quotedbl
Encoding: 34 34 5
Width: 799
GlyphClass: 2
Flags: W
LayerCount: 2
Fore
SplineSet
346 1834 m 0,0,1
 398 1726 398 1726 414 1638 c 0,2,3
 414 1632 414 1632 416 1621 c 128,-1,4
 418 1610 418 1610 418 1604 c 2,5,-1
 418 1580 l 1,6,7
 422 1580 422 1580 497 1608 c 128,-1,8
 572 1636 572 1636 572 1638 c 128,-1,9
 572 1640 572 1640 571 1646 c 128,-1,10
 570 1652 570 1652 570 1654 c 0,11,12
 546 1754 546 1754 528 1804 c 0,13,14
 526 1808 526 1808 518 1835 c 128,-1,15
 510 1862 510 1862 503 1886 c 128,-1,16
 496 1910 496 1910 494 1910 c 128,-1,17
 492 1910 492 1910 419 1873 c 128,-1,18
 346 1836 346 1836 346 1834 c 0,0,1
176 1818 m 2,19,20
 176 1816 176 1816 178 1811 c 128,-1,21
 180 1806 180 1806 180 1804 c 0,22,23
 182 1796 182 1796 182 1782 c 0,24,25
 186 1762 186 1762 186 1752 c 0,26,27
 190 1696 190 1696 190 1668 c 2,28,-1
 190 1634 l 1,29,-1
 190 1604 l 1,30,-1
 228 1618 l 2,31,32
 266 1632 266 1632 304 1648 c 2,33,-1
 342 1662 l 2,34,35
 342 1666 342 1666 341 1675 c 128,-1,36
 340 1684 340 1684 340 1688 c 0,37,38
 338 1708 338 1708 336 1726 c 0,39,40
 336 1740 336 1740 334 1767 c 128,-1,41
 332 1794 332 1794 330 1808 c 2,42,-1
 330 1840 l 2,43,44
 330 1844 330 1844 329 1853 c 128,-1,45
 328 1862 328 1862 328 1866 c 0,46,47
 328 1868 328 1868 329 1872 c 128,-1,48
 330 1876 330 1876 330 1880 c 2,49,-1
 292 1864 l 2,50,51
 252 1850 252 1850 214 1834 c 2,52,-1
 176 1818 l 2,19,20
EndSplineSet
Validated: 9
EndChar

StartChar: numbersign
Encoding: 35 35 6
Width: 799
GlyphClass: 2
Flags: W
LayerCount: 2
Fore
SplineSet
-34 782 m 1,0,1
 14 788 14 788 138 796 c 1,2,-1
 138 794 l 1,3,4
 142 766 142 766 142 760 c 0,5,6
 142 756 142 756 146 722 c 0,7,8
 146 700 146 700 151 669 c 128,-1,9
 156 638 156 638 161 616 c 128,-1,10
 166 594 166 594 172 572 c 2,11,-1
 178 552 l 2,12,13
 180 542 180 542 182 536 c 0,14,15
 184 536 184 536 251 567 c 128,-1,16
 318 598 318 598 318 600 c 0,17,18
 318 604 318 604 311 622 c 128,-1,19
 304 640 304 640 304 650 c 0,20,21
 296 684 296 684 286 728 c 0,22,23
 284 738 284 738 280 753 c 128,-1,24
 276 768 276 768 273 780 c 128,-1,25
 270 792 270 792 268 804 c 1,26,27
 312 806 312 806 402 806 c 0,28,29
 416 806 416 806 450 805 c 128,-1,30
 484 804 484 804 498 804 c 2,31,-1
 506 804 l 1,32,33
 548 542 548 542 554 518 c 0,34,35
 556 506 556 506 556 500 c 1,36,37
 558 500 558 500 626 529 c 128,-1,38
 694 558 694 558 694 560 c 0,39,40
 692 570 692 570 684 604 c 128,-1,41
 676 638 676 638 674 656 c 0,42,43
 664 690 664 690 652 776 c 0,44,45
 652 778 652 778 652 787 c 128,-1,46
 652 796 652 796 650 798 c 1,47,48
 720 794 720 794 730 794 c 0,49,50
 732 794 732 794 781 849 c 128,-1,51
 830 904 830 904 830 906 c 2,52,-1
 782 906 l 2,53,54
 778 906 778 906 772 905 c 128,-1,55
 766 904 766 904 764 904 c 2,56,-1
 630 904 l 1,57,-1
 628 906 l 2,58,59
 628 908 628 908 628 910 c 2,60,-1
 616 966 l 2,61,62
 610 996 610 996 603 1053 c 128,-1,63
 596 1110 596 1110 592 1140 c 1,64,65
 600 1140 600 1140 618 1139 c 128,-1,66
 636 1138 636 1138 644 1138 c 2,67,68
 644 1138 644 1138 652 1138 c 1,69,-1
 654 1136 l 2,70,71
 656 1136 656 1136 660 1137 c 2,72,-1
 664 1138 l 1,73,-1
 666 1138 l 2,74,75
 668 1138 668 1138 674 1136 c 2,76,-1
 680 1136 l 2,77,78
 688 1134 688 1134 702 1134 c 2,79,-1
 706 1134 l 1,80,-1
 808 1248 l 1,81,-1
 804 1248 l 2,82,83
 802 1248 802 1248 798 1248 c 128,-1,84
 794 1248 794 1248 790 1248 c 128,-1,85
 786 1248 786 1248 784 1248 c 2,86,-1
 778 1248 l 2,87,88
 774 1248 774 1248 766 1252 c 1,89,-1
 764 1252 l 2,90,91
 760 1252 760 1252 755 1252 c 128,-1,92
 750 1252 750 1252 748 1250 c 2,93,-1
 724 1250 l 1,94,-1
 690 1250 l 2,95,96
 684 1250 684 1250 674 1249 c 128,-1,97
 664 1248 664 1248 658 1248 c 0,98,99
 648 1248 648 1248 628 1249 c 128,-1,100
 608 1250 608 1250 600 1250 c 2,101,-1
 596 1250 l 2,102,103
 592 1250 592 1250 586 1249 c 128,-1,104
 580 1248 580 1248 578 1248 c 0,105,106
 572 1286 572 1286 562 1364 c 128,-1,107
 552 1442 552 1442 546 1482 c 2,108,-1
 530 1604 l 2,109,110
 528 1604 528 1604 459 1573 c 128,-1,111
 390 1542 390 1542 390 1540 c 0,112,113
 408 1490 408 1490 436 1332 c 0,114,115
 438 1316 438 1316 443 1287 c 128,-1,116
 448 1258 448 1258 450 1244 c 1,117,118
 428 1242 428 1242 386 1240 c 128,-1,119
 344 1238 344 1238 310 1236 c 128,-1,120
 276 1234 276 1234 246 1232 c 0,121,122
 244 1232 244 1232 238 1231 c 128,-1,123
 232 1230 232 1230 230 1230 c 1,124,125
 230 1240 230 1240 228 1306 c 128,-1,126
 226 1372 226 1372 226 1380 c 2,127,-1
 226 1382 l 2,128,129
 226 1396 226 1396 227 1420 c 128,-1,130
 228 1444 228 1444 228 1456 c 0,131,132
 228 1500 228 1500 230 1520 c 2,133,-1
 238 1592 l 1,134,135
 94 1538 94 1538 94 1535 c 0,136,137
 114 1425 114 1425 114 1336 c 0,138,139
 114 1324 114 1324 115 1300 c 128,-1,140
 116 1276 116 1276 116 1262 c 0,141,142
 116 1256 116 1256 117 1241 c 128,-1,143
 118 1226 118 1226 118 1220 c 1,144,-1
 86 1220 l 1,145,-1
 -10 1100 l 1,146,147
 40 1110 40 1110 120 1120 c 1,148,149
 120 1086 120 1086 122 1049 c 128,-1,150
 124 1012 124 1012 127 967 c 128,-1,151
 130 922 130 922 132 896 c 1,152,-1
 126 896 l 2,153,154
 116 896 116 896 96 897 c 128,-1,155
 76 898 76 898 68 898 c 1,156,-1
 -34 782 l 1,0,1
232 1132 m 1,157,158
 240 1132 240 1132 256 1134 c 128,-1,159
 272 1136 272 1136 280 1136 c 0,160,161
 286 1136 286 1136 298 1137 c 128,-1,162
 310 1138 310 1138 316 1138 c 2,163,-1
 376 1138 l 2,164,165
 392 1138 392 1138 420 1139 c 128,-1,166
 448 1140 448 1140 462 1140 c 1,167,-1
 462 1134 l 2,168,169
 464 1128 464 1128 466 1112 c 128,-1,170
 468 1096 468 1096 468 1090 c 0,171,172
 470 1076 470 1076 470 1048 c 2,173,-1
 482 940 l 2,174,175
 484 934 484 934 484 924 c 128,-1,176
 484 914 484 914 486 908 c 2,177,-1
 488 906 l 1,178,-1
 488 904 l 1,179,180
 450 904 450 904 375 902 c 128,-1,181
 300 900 300 900 262 898 c 2,182,-1
 254 898 l 1,183,184
 254 934 254 934 243 1014 c 128,-1,185
 232 1094 232 1094 232 1132 c 1,157,158
EndSplineSet
Validated: 9
EndChar

StartChar: dollar
Encoding: 36 36 7
Width: 799
GlyphClass: 2
Flags: W
LayerCount: 2
Fore
SplineSet
10 604 m 2,0,1
 10 600 10 600 11 592 c 128,-1,2
 12 584 12 584 12 580 c 0,3,4
 12 568 12 568 14 564 c 2,5,-1
 16 562 l 2,6,7
 18 560 18 560 18 558 c 128,-1,8
 18 556 18 556 19 553 c 128,-1,9
 20 550 20 550 20 548 c 0,10,11
 22 540 22 540 30 528 c 0,12,13
 82 434 82 434 116 418 c 1,14,15
 126 408 126 408 140 408 c 0,16,17
 160 404 160 404 166 404 c 2,18,-1
 180 404 l 2,19,20
 198 404 198 404 226 408 c 1,21,-1
 226 390 l 2,22,23
 226 376 226 376 227 349 c 128,-1,24
 228 322 228 322 228 308 c 0,25,26
 228 302 228 302 227 287 c 128,-1,27
 226 272 226 272 226 266 c 0,28,29
 226 264 226 264 227 261 c 128,-1,30
 228 258 228 258 228 256 c 0,31,32
 228 248 228 248 227 246 c 128,-1,33
 226 244 226 244 226 236 c 2,34,-1
 226 206 l 1,35,-1
 226 198 l 2,36,37
 228 198 228 198 299 224 c 128,-1,38
 370 250 370 250 370 252 c 0,39,40
 370 278 370 278 368 288 c 2,41,-1
 368 308 l 1,42,-1
 368 436 l 1,43,44
 374 438 374 438 380 442 c 128,-1,45
 386 446 386 446 395 452 c 128,-1,46
 404 458 404 458 426 472 c 128,-1,47
 448 486 448 486 478 504 c 0,48,49
 556 544 556 544 556 656 c 0,50,51
 556 744 556 744 522 892 c 2,52,-1
 516 916 l 2,53,54
 512 934 512 934 500 968 c 128,-1,55
 488 1002 488 1002 484 1018 c 0,56,57
 480 1040 480 1040 461 1077 c 128,-1,58
 442 1114 442 1114 440 1120 c 0,59,60
 422 1150 422 1150 378 1246 c 1,61,-1
 378 1248 l 2,62,63
 378 1250 378 1250 380 1256 c 128,-1,64
 382 1262 382 1262 382 1264 c 128,-1,65
 382 1266 382 1266 383 1271 c 128,-1,66
 384 1276 384 1276 384 1278 c 0,67,68
 388 1310 388 1310 398 1366 c 128,-1,69
 408 1422 408 1422 408 1428 c 0,70,71
 408 1430 408 1430 409 1436 c 128,-1,72
 410 1442 410 1442 410 1444 c 0,73,74
 410 1454 410 1454 414 1470 c 0,75,76
 414 1472 414 1472 415 1478 c 128,-1,77
 416 1484 416 1484 416 1486 c 128,-1,78
 416 1488 416 1488 417 1493 c 128,-1,79
 418 1498 418 1498 418 1500 c 2,80,-1
 418 1512 l 2,81,82
 418 1514 418 1514 419 1520 c 128,-1,83
 420 1526 420 1526 420 1528 c 128,-1,84
 420 1530 420 1530 421 1535 c 128,-1,85
 422 1540 422 1540 422 1542 c 2,86,-1
 424 1570 l 1,87,-1
 424 1584 l 1,88,-1
 442 1552 l 2,89,90
 444 1552 444 1552 509 1590 c 128,-1,91
 574 1628 574 1628 574 1630 c 0,92,93
 574 1634 574 1634 567 1644 c 128,-1,94
 560 1654 560 1654 550 1664 c 128,-1,95
 540 1674 540 1674 538 1676 c 0,96,97
 524 1690 524 1690 482 1726 c 0,98,99
 468 1740 468 1740 454 1746 c 2,100,-1
 432 1756 l 1,101,102
 432 1772 432 1772 434 1780 c 2,103,-1
 434 1806 l 1,104,-1
 436 1820 l 1,105,-1
 436 1832 l 1,106,-1
 436 1846 l 2,107,108
 436 1848 436 1848 437 1853 c 128,-1,109
 438 1858 438 1858 438 1860 c 2,110,-1
 436 1872 l 2,111,112
 436 1884 436 1884 438 1886 c 0,113,114
 438 1888 438 1888 439 1893 c 128,-1,115
 440 1898 440 1898 440 1900 c 128,-1,116
 440 1902 440 1902 441 1906 c 128,-1,117
 442 1910 442 1910 442 1912 c 2,118,-1
 442 1924 l 2,119,120
 442 1926 442 1926 444 1931 c 128,-1,121
 446 1936 446 1936 446 1938 c 2,122,-1
 446 1952 l 2,123,124
 446 1954 446 1954 448 1958 c 128,-1,125
 450 1962 450 1962 450 1964 c 0,126,127
 452 1970 452 1970 452 1983 c 128,-1,128
 452 1996 452 1996 452 2002 c 1,129,-1
 308 1950 l 1,130,-1
 308 1934 l 2,131,132
 308 1932 308 1932 307 1929 c 128,-1,133
 306 1926 306 1926 306 1924 c 2,134,-1
 306 1914 l 2,135,136
 306 1912 306 1912 305 1902 c 128,-1,137
 304 1892 304 1892 304 1890 c 128,-1,138
 304 1888 304 1888 303 1884 c 128,-1,139
 302 1880 302 1880 302 1878 c 0,140,141
 300 1864 300 1864 300 1850 c 0,142,143
 300 1844 300 1844 299 1830 c 128,-1,144
 298 1816 298 1816 298 1808 c 0,145,146
 298 1804 298 1804 297 1794 c 128,-1,147
 296 1784 296 1784 296 1778 c 1,148,-1
 284 1774 l 1,149,150
 252 1754 252 1754 227 1742 c 128,-1,151
 202 1730 202 1730 195 1727 c 128,-1,152
 188 1724 188 1724 180 1719 c 128,-1,153
 172 1714 172 1714 168 1710 c 128,-1,154
 164 1706 164 1706 152 1692 c 0,155,156
 118 1642 118 1642 112 1610 c 0,157,158
 112 1608 112 1608 111 1604 c 128,-1,159
 110 1600 110 1600 110 1598 c 0,160,161
 108 1590 108 1590 108 1578 c 2,162,-1
 108 1570 l 2,163,164
 108 1568 108 1568 106 1566 c 128,-1,165
 104 1564 104 1564 104 1562 c 2,166,-1
 104 1530 l 2,167,168
 104 1520 104 1520 114 1476 c 1,169,-1
 116 1470 l 1,170,-1
 116 1464 l 1,171,-1
 116 1460 l 1,172,-1
 118 1456 l 1,173,-1
 130 1414 l 2,174,175
 130 1408 130 1408 148 1368 c 1,176,177
 148 1368 148 1368 160 1348 c 0,178,179
 174 1322 174 1322 198 1270 c 0,180,181
 204 1260 204 1260 218 1239 c 128,-1,182
 232 1218 232 1218 238 1202 c 0,183,184
 238 1200 238 1200 237 1196 c 128,-1,185
 236 1192 236 1192 236 1190 c 128,-1,186
 236 1188 236 1188 234 1184 c 128,-1,187
 232 1180 232 1180 232 1178 c 0,188,189
 230 1170 230 1170 230 1152 c 0,190,191
 228 1142 228 1142 228 1118 c 2,192,-1
 228 1090 l 2,193,194
 230 1080 230 1080 227 1061 c 128,-1,195
 224 1042 224 1042 224 1034 c 0,196,197
 224 1024 224 1024 223 1004 c 128,-1,198
 222 984 222 984 222 976 c 0,199,200
 220 968 220 968 220 948 c 128,-1,201
 220 928 220 928 220 920 c 0,202,203
 220 896 220 896 212 847 c 128,-1,204
 204 798 204 798 204 774 c 2,205,-1
 204 720 l 1,206,-1
 204 630 l 1,207,-1
 204 606 l 2,208,209
 204 604 204 604 205 601 c 128,-1,210
 206 598 206 598 206 596 c 2,211,-1
 206 566 l 2,212,213
 206 564 206 564 207 562 c 128,-1,214
 208 560 208 560 208 558 c 2,215,-1
 208 548 l 2,216,217
 208 544 208 544 209 538 c 128,-1,218
 210 532 210 532 210 530 c 2,219,-1
 210 528 l 1,220,221
 182 540 182 540 162 600 c 0,222,223
 156 618 156 618 156 622 c 2,224,-1
 156 628 l 2,225,226
 154 634 154 634 154 632 c 2,227,-1
 154 638 l 1,228,-1
 154 652 l 1,229,-1
 156 658 l 1,230,-1
 156 660 l 1,231,-1
 10 606 l 1,232,-1
 10 604 l 2,0,1
288 1692 m 1,233,-1
 290 1694 l 1,234,-1
 288 1692 l 1,233,-1
248 1560 m 2,235,-1
 248 1582 l 2,236,237
 248 1650 248 1650 270 1672 c 1,238,239
 282 1672 282 1672 288 1670 c 1,240,-1
 288 1640 l 2,241,242
 288 1632 288 1632 287 1618 c 128,-1,243
 286 1604 286 1604 286 1598 c 2,244,245
 286 1598 286 1598 286 1606 c 2,246,-1
 286 1572 l 2,247,248
 284 1554 284 1554 283 1526 c 128,-1,249
 282 1498 282 1498 282 1492 c 0,250,251
 280 1486 280 1486 278 1473 c 128,-1,252
 276 1460 276 1460 274 1452 c 1,253,254
 272 1456 272 1456 266 1480 c 0,255,256
 262 1488 262 1488 262 1490 c 128,-1,257
 262 1492 262 1492 261 1495 c 128,-1,258
 260 1498 260 1498 260 1500 c 0,259,260
 258 1511 258 1511 250 1535 c 0,261,262
 250 1539 250 1539 249 1547.5 c 128,-1,263
 248 1556 248 1556 248 1560 c 2,235,-1
202 1644 m 2,264,-1
 210 1652 l 1,265,-1
 238 1666 l 2,266,267
 240 1666 240 1666 248 1670 c 1,268,269
 246 1668 246 1668 230 1660 c 128,-1,270
 214 1652 214 1652 202 1644 c 2,264,-1
342 714 m 0,271,272
 342 720 342 720 343 732 c 128,-1,273
 344 744 344 744 344 748 c 2,274,-1
 344 772 l 2,275,276
 344 832 344 832 354 898 c 2,277,-1
 356 910 l 2,278,279
 358 922 358 922 358 924 c 0,280,281
 358 928 358 928 359 932 c 128,-1,282
 360 936 360 936 360 940 c 1,283,284
 370 918 370 918 377 892 c 128,-1,285
 384 866 384 866 391 833 c 128,-1,286
 398 800 398 800 402 782 c 0,287,288
 418 698 418 698 420 654 c 2,289,-1
 420 620 l 2,290,291
 420 618 420 618 419 612 c 128,-1,292
 418 606 418 606 418 604 c 2,293,-1
 418 590 l 2,294,295
 418 566 418 566 390 538 c 0,296,297
 388 538 388 538 380 534 c 128,-1,298
 372 530 372 530 368 528 c 1,299,-1
 368 600 l 2,300,301
 368 602 368 602 367 606 c 128,-1,302
 366 610 366 610 366 612 c 2,303,-1
 366 636 l 2,304,305
 366 652 366 652 368 660 c 1,306,307
 356 658 356 658 344 654 c 1,308,-1
 344 706 l 2,309,310
 344 708 344 708 343 710 c 128,-1,311
 342 712 342 712 342 714 c 0,271,272
368 518 m 1,312,-1
 370 520 l 1,313,-1
 368 518 l 1,312,-1
EndSplineSet
Validated: 5
EndChar

StartChar: percent
Encoding: 37 37 8
Width: 799
GlyphClass: 2
Flags: W
LayerCount: 2
Fore
SplineSet
-58 578 m 1,0,1
 42 610 42 610 90 626 c 1,2,-1
 90 630 l 1,3,-1
 92 632 l 1,4,-1
 92 636 l 1,5,-1
 94 638 l 1,6,-1
 96 640 l 2,7,8
 98 644 98 644 100 651 c 128,-1,9
 102 658 102 658 104 660 c 0,10,11
 110 666 110 666 110 668 c 0,12,13
 110 684 110 684 132 712 c 0,14,15
 204 808 204 808 314 864 c 1,16,-1
 184 792 l 2,17,18
 244 822 244 822 274 826 c 1,19,-1
 296 826 l 2,20,21
 298 826 298 826 302 825 c 128,-1,22
 306 824 306 824 308 824 c 128,-1,23
 310 824 310 824 315 823 c 128,-1,24
 320 822 320 822 322 822 c 2,25,-1
 330 822 l 1,26,27
 350 836 350 836 388 861 c 128,-1,28
 426 886 426 886 446 898 c 0,29,30
 446 902 446 902 449 910 c 128,-1,31
 452 918 452 918 450 922 c 0,32,33
 432 996 432 996 340 978 c 0,34,35
 204 946 204 946 152 840 c 0,36,37
 146 828 146 828 144 822 c 0,38,39
 128 806 128 806 128 754 c 0,40,41
 128 752 128 752 129 744 c 128,-1,42
 130 736 130 736 130 734 c 0,43,44
 146 656 146 656 204 634 c 0,45,46
 208 632 208 632 221 630 c 128,-1,47
 234 628 234 628 238 628 c 0,48,49
 240 628 240 628 243 627 c 128,-1,50
 246 626 246 626 248 626 c 0,51,52
 254 626 254 626 259 627 c 128,-1,53
 264 628 264 628 271 630 c 128,-1,54
 278 632 278 632 282 632 c 0,55,56
 378 672 378 672 496 764 c 0,57,58
 540 800 540 800 540 818 c 1,59,60
 556 862 556 862 520 906 c 0,61,62
 518 908 518 908 513 914 c 128,-1,63
 508 920 508 920 506 924 c 0,64,65
 486 944 486 944 482 944 c 2,66,-1
 364 854 l 1,67,68
 396 830 396 830 402 808 c 1,69,70
 400 798 400 798 393 789 c 128,-1,71
 386 780 386 780 380 775 c 128,-1,72
 374 770 374 770 363 762 c 128,-1,73
 352 754 352 754 348 752 c 0,74,75
 342 748 342 748 327 737 c 128,-1,76
 312 726 312 726 304 720 c 2,77,-1
 386 766 l 1,78,79
 352 740 352 740 330 738 c 2,80,-1
 312 738 l 2,81,82
 294 738 294 738 282 755 c 128,-1,83
 270 772 270 772 270 792 c 0,84,85
 270 826 270 826 293 860 c 128,-1,86
 316 894 316 894 344 906 c 2,87,-1
 350 908 l 1,88,89
 326 894 326 894 294 876 c 128,-1,90
 262 858 262 858 254 854 c 1,91,92
 278 866 278 866 290 868 c 0,93,94
 292 868 292 868 292 869 c 128,-1,95
 292 870 292 870 294 870 c 0,96,97
 302 874 302 874 302 876 c 2,98,-1
 300 876 l 1,99,-1
 298 878 l 2,100,101
 296 878 296 878 296 880 c 0,102,103
 324 900 324 900 412 952 c 1,104,-1
 412 950 l 2,105,106
 412 940 412 940 394 940 c 0,107,108
 380 940 380 940 374 942 c 0,109,110
 340 942 340 942 314 936 c 1,111,112
 296 936 296 936 290 930 c 0,113,114
 156 856 156 856 130 834 c 0,115,116
 20 740 20 740 -14 686 c 0,117,118
 -22 674 -22 674 -28 660 c 0,119,120
 -32 656 -32 656 -44 626 c 0,121,122
 -46 620 -46 620 -50 610 c 128,-1,123
 -54 600 -54 600 -56 594 c 0,124,125
 -56 592 -56 592 -57 592 c 128,-1,126
 -58 592 -58 592 -58 590 c 2,127,-1
 -58 588 l 1,128,129
 -34 596 -34 596 15 610 c 128,-1,130
 64 624 64 624 88 632 c 1,131,-1
 88 636 l 2,132,133
 90 642 90 642 90 652 c 0,134,135
 90 658 90 658 92 666 c 0,136,137
 92 668 92 668 93 670 c 128,-1,138
 94 672 94 672 94 674 c 128,-1,139
 94 676 94 676 95 685 c 128,-1,140
 96 694 96 694 98 698 c 0,141,142
 100 708 100 708 107 730 c 128,-1,143
 114 752 114 752 116 760 c 2,144,-1
 122 784 l 1,145,-1
 122 782 l 1,146,147
 146 854 146 854 170 910 c 0,148,149
 172 914 172 914 176 923 c 128,-1,150
 180 932 180 932 182 936 c 0,151,152
 184 938 184 938 184 943 c 128,-1,153
 184 948 184 948 186 950 c 0,154,155
 190 958 190 958 199 975 c 128,-1,156
 208 992 208 992 210 1000 c 0,157,158
 218 1018 218 1018 235 1054 c 128,-1,159
 252 1090 252 1090 260 1108 c 0,160,161
 326 1248 326 1248 380 1338 c 0,162,163
 392 1358 392 1358 417 1398 c 128,-1,164
 442 1438 442 1438 454 1458 c 0,165,166
 458 1462 458 1462 464 1471 c 128,-1,167
 470 1480 470 1480 472 1484 c 0,168,169
 476 1488 476 1488 479 1496 c 128,-1,170
 482 1504 482 1504 486 1508 c 0,171,172
 510 1544 510 1544 536 1578 c 128,-1,173
 562 1612 562 1612 602 1659 c 128,-1,174
 642 1706 642 1706 656 1724 c 0,175,176
 658 1726 658 1726 670 1740 c 128,-1,177
 682 1754 682 1754 684 1756 c 128,-1,178
 686 1758 686 1758 689 1764 c 128,-1,179
 692 1770 692 1770 694 1772 c 0,180,181
 696 1776 696 1776 702 1780 c 128,-1,182
 708 1784 708 1784 710 1786 c 0,183,184
 716 1792 716 1792 730 1810 c 128,-1,185
 744 1828 744 1828 750 1834 c 2,186,-1
 754 1836 l 2,187,188
 758 1840 758 1840 760 1842 c 0,189,190
 760 1844 760 1844 762 1846 c 128,-1,191
 764 1848 764 1848 764 1850 c 0,192,193
 782 1868 782 1868 782 1870 c 0,194,195
 786 1882 786 1882 772 1906 c 128,-1,196
 758 1930 758 1930 750 1926 c 0,197,198
 734 1916 734 1916 692 1894 c 128,-1,199
 650 1872 650 1872 628 1858 c 0,200,201
 620 1850 620 1850 601 1837 c 128,-1,202
 582 1824 582 1824 574 1816 c 0,203,204
 572 1814 572 1814 543 1791 c 128,-1,205
 514 1768 514 1768 469 1735 c 128,-1,206
 424 1702 424 1702 392 1682 c 2,207,-1
 356 1658 l 1,208,-1
 348 1650 l 1,209,210
 348 1644 348 1644 340 1636 c 2,211,-1
 338 1632 l 1,212,-1
 336 1628 l 1,213,214
 318 1574 318 1574 312 1568 c 0,215,216
 290 1546 290 1546 264 1534 c 1,217,218
 282 1544 282 1544 320 1565 c 128,-1,219
 358 1586 358 1586 376 1596 c 1,220,221
 368 1588 368 1588 346 1579 c 128,-1,222
 324 1570 324 1570 318 1566 c 1,223,-1
 314 1566 l 2,224,225
 312 1566 312 1566 308 1564 c 1,226,227
 308 1566 308 1566 306 1566 c 0,228,229
 300 1584 300 1584 300 1588 c 2,230,-1
 300 1616 l 1,231,-1
 300 1648 l 2,232,233
 300 1678 300 1678 322 1684 c 0,234,235
 326 1684 326 1684 331 1686 c 128,-1,236
 336 1688 336 1688 338 1688 c 2,237,-1
 340 1684 l 1,238,-1
 328 1678 l 2,239,240
 314 1672 314 1672 282 1656 c 128,-1,241
 250 1640 250 1640 212 1620 c 1,242,243
 212 1622 212 1622 214 1624 c 256,244,245
 216 1626 216 1626 228 1630 c 2,246,-1
 234 1632 l 2,247,248
 240 1636 240 1636 242 1636 c 0,249,250
 250 1640 250 1640 270 1640 c 2,251,-1
 328 1640 l 2,252,253
 342 1638 342 1638 372 1638 c 1,254,-1
 476 1754 l 1,255,-1
 372 1754 l 1,256,257
 326 1758 326 1758 302 1750 c 0,258,259
 300 1750 300 1750 296 1748 c 0,260,261
 264 1730 264 1730 238 1718 c 128,-1,262
 212 1706 212 1706 204 1705 c 128,-1,263
 196 1704 196 1704 189 1699 c 128,-1,264
 182 1694 182 1694 180 1690 c 128,-1,265
 178 1686 178 1686 170 1670 c 0,266,267
 158 1652 158 1652 158 1630 c 0,268,269
 156 1612 156 1612 158 1594 c 2,270,-1
 158 1564 l 2,271,272
 160 1560 160 1560 158 1553 c 128,-1,273
 156 1546 156 1546 156 1544 c 128,-1,274
 156 1542 156 1542 157 1537 c 128,-1,275
 158 1532 158 1532 158 1530 c 0,276,277
 174 1472 174 1472 208 1460 c 0,278,279
 220 1454 220 1454 224 1454 c 0,280,281
 236 1452 236 1452 247 1454 c 128,-1,282
 258 1456 258 1456 269 1460 c 128,-1,283
 280 1464 280 1464 286 1466 c 0,284,285
 292 1466 292 1466 294 1468 c 0,286,287
 314 1480 314 1480 354 1504 c 128,-1,288
 394 1528 394 1528 416 1540 c 0,289,290
 464 1574 464 1574 478 1650 c 0,291,292
 480 1652 480 1652 494 1660 c 0,293,294
 496 1660 496 1660 498 1664 c 128,-1,295
 500 1668 500 1668 502 1668 c 128,-1,296
 504 1668 504 1668 506 1668 c 128,-1,297
 508 1668 508 1668 510 1670 c 0,298,299
 516 1672 516 1672 526 1681 c 128,-1,300
 536 1690 536 1690 540 1692 c 0,301,302
 548 1698 548 1698 578 1721 c 128,-1,303
 608 1744 608 1744 651 1776 c 128,-1,304
 694 1808 694 1808 718 1826 c 0,305,306
 768 1862 768 1862 780 1864 c 1,307,308
 760 1854 760 1854 722 1831 c 128,-1,309
 684 1808 684 1808 666 1798 c 1,310,-1
 666 1800 l 2,311,312
 664 1800 664 1800 662 1802 c 128,-1,313
 660 1804 660 1804 658 1804 c 0,314,315
 654 1810 654 1810 647 1824 c 128,-1,316
 640 1838 640 1838 636 1844 c 0,317,318
 636 1846 636 1846 632 1846 c 2,319,-1
 628 1842 l 1,320,321
 568 1774 568 1774 552 1750 c 1,322,-1
 538 1736 l 1,323,-1
 526 1720 l 1,324,-1
 528 1722 l 1,325,-1
 514 1706 l 2,326,327
 444 1620 444 1620 418 1582 c 0,328,329
 394 1552 394 1552 314 1434 c 0,330,331
 304 1414 304 1414 277 1375 c 128,-1,332
 250 1336 250 1336 238 1312 c 0,333,334
 232 1302 232 1302 220 1279 c 128,-1,335
 208 1256 208 1256 206 1252 c 2,336,-1
 194 1234 l 1,337,338
 168 1184 168 1184 122 1085 c 128,-1,339
 76 986 76 986 68 968 c 0,340,341
 66 962 66 962 60 950 c 128,-1,342
 54 938 54 938 52 934 c 0,343,344
 52 932 52 932 48 928 c 128,-1,345
 44 924 44 924 44 920 c 2,346,-1
 -4 800 l 2,347,348
 -8 792 -8 792 -15 771 c 128,-1,349
 -22 750 -22 750 -24 742 c 0,350,351
 -26 736 -26 736 -34 703 c 128,-1,352
 -42 670 -42 670 -46 656 c 1,353,-1
 -46 648 l 2,354,355
 -46 646 -46 646 -48 643 c 128,-1,356
 -50 640 -50 640 -50 638 c 0,357,358
 -52 634 -52 634 -52 620 c 0,359,360
 -54 610 -54 610 -54 606 c 0,361,362
 -58 594 -58 594 -58 588 c 2,363,-1
 -58 582 l 1,364,-1
 -58 578 l 1,0,1
EndSplineSet
Validated: 37
EndChar

StartChar: ampersand
Encoding: 38 38 9
Width: 799
GlyphClass: 2
Flags: W
LayerCount: 2
Fore
SplineSet
-48 802 m 2,0,1
 -48 766 -48 766 -42 736 c 2,2,-1
 -36 706 l 2,3,4
 -36 704 -36 704 -35 700 c 128,-1,5
 -34 696 -34 696 -34 694 c 0,6,7
 -22 646 -22 646 34 590 c 0,8,9
 38 586 38 586 41 585 c 128,-1,10
 44 584 44 584 48 580 c 0,11,12
 50 578 50 578 57 573 c 128,-1,13
 64 568 64 568 68 566 c 2,14,-1
 74 560 l 1,15,16
 100 546 100 546 142 550 c 0,17,18
 162 554 162 554 184 564 c 128,-1,19
 206 574 206 574 217 581 c 128,-1,20
 228 588 228 588 257 607 c 128,-1,21
 286 626 286 626 296 632 c 2,22,-1
 308 644 l 2,23,24
 326 660 326 660 340 670 c 0,25,26
 344 672 344 672 348 677 c 128,-1,27
 352 682 352 682 356 684 c 2,28,-1
 442 742 l 2,29,30
 432 736 432 736 410 724 c 128,-1,31
 388 712 388 712 378 706 c 1,32,33
 494 770 494 770 620 812 c 1,34,35
 700 834 700 834 710 836 c 2,36,-1
 728 836 l 1,37,-1
 824 942 l 2,38,39
 820 942 820 942 813 944 c 128,-1,40
 806 946 806 946 802 946 c 0,41,42
 772 946 772 946 696 922 c 0,43,44
 586 884 586 884 450 818 c 0,45,46
 426 804 426 804 377 777 c 128,-1,47
 328 750 328 750 304 736 c 0,48,49
 240 696 240 696 162 634 c 1,50,51
 178 642 178 642 206 659 c 128,-1,52
 234 676 234 676 250 684 c 1,53,-1
 242 676 l 2,54,55
 226 660 226 660 198 660 c 0,56,57
 192 660 192 660 180 666 c 0,58,59
 146 684 146 684 134 700 c 0,60,61
 102 742 102 742 96 798 c 0,62,63
 96 800 96 800 95 803 c 128,-1,64
 94 806 94 806 94 808 c 128,-1,65
 94 810 94 810 93 813 c 128,-1,66
 92 816 92 816 92 818 c 0,67,68
 92 824 92 824 92 832 c 128,-1,69
 92 840 92 840 92 850 c 128,-1,70
 92 860 92 860 92 864 c 2,71,-1
 92 932 l 2,72,73
 92 934 92 934 98 1006 c 0,74,75
 98 1008 98 1008 99 1012 c 128,-1,76
 100 1016 100 1016 100 1018 c 0,77,78
 100 1022 100 1022 100 1031 c 128,-1,79
 100 1040 100 1040 102 1044 c 0,80,81
 102 1046 102 1046 103 1051 c 128,-1,82
 104 1056 104 1056 104 1058 c 128,-1,83
 104 1060 104 1060 106 1064 c 128,-1,84
 108 1068 108 1068 108 1070 c 128,-1,85
 108 1072 108 1072 109 1077 c 128,-1,86
 110 1082 110 1082 110 1084 c 0,87,88
 112 1110 112 1110 124 1162 c 0,89,90
 130 1178 130 1178 139 1209 c 128,-1,91
 148 1240 148 1240 154 1256 c 128,-1,92
 160 1272 160 1272 168 1290 c 128,-1,93
 176 1308 176 1308 186 1329 c 128,-1,94
 196 1350 196 1350 200 1360 c 0,95,96
 274 1508 274 1508 350 1632 c 0,97,98
 360 1644 360 1644 380 1670 c 128,-1,99
 400 1696 400 1696 408 1708 c 0,100,101
 436 1746 436 1746 440 1780 c 0,102,103
 440 1782 440 1782 441 1786 c 128,-1,104
 442 1790 442 1790 442 1792 c 2,105,-1
 442 1804 l 2,106,107
 442 1926 442 1926 354 1926 c 0,108,109
 342 1926 342 1926 321 1925 c 128,-1,110
 300 1924 300 1924 290 1924 c 0,111,112
 270 1922 270 1922 242 1920 c 0,113,114
 196 1914 196 1914 178 1900 c 0,115,116
 142 1874 142 1874 96 1846 c 0,117,118
 96 1844 96 1844 92 1842 c 2,119,-1
 88 1840 l 2,120,121
 80 1832 80 1832 72 1810 c 0,122,123
 62 1790 62 1790 62 1788 c 0,124,125
 58 1780 58 1780 58 1776 c 0,126,127
 50 1748 50 1748 50 1732 c 0,128,129
 44 1690 44 1690 36 1606 c 0,130,131
 36 1600 36 1600 35 1587 c 128,-1,132
 34 1574 34 1574 34 1568 c 0,133,134
 34 1558 34 1558 44 1478 c 0,135,136
 46 1472 46 1472 47 1459 c 128,-1,137
 48 1446 48 1446 50 1440 c 0,138,139
 88 1294 88 1294 148 1148 c 0,140,141
 160 1120 160 1120 183 1061 c 128,-1,142
 206 1002 206 1002 218 972 c 0,143,144
 278 824 278 824 316 770 c 1,145,-1
 338 734 l 2,146,147
 356 708 356 708 393 645 c 128,-1,148
 430 582 430 582 444 560 c 0,149,150
 498 476 498 476 510 442 c 0,151,152
 512 442 512 442 577 479 c 128,-1,153
 642 516 642 516 642 518 c 0,154,155
 642 524 642 524 634 537 c 128,-1,156
 626 550 626 550 614 566 c 128,-1,157
 602 582 602 582 600 584 c 0,158,159
 594 592 594 592 583 609 c 128,-1,160
 572 626 572 626 566 634 c 0,161,162
 494 732 494 732 434 838 c 0,163,164
 430 842 430 842 425 853 c 128,-1,165
 420 864 420 864 418 870 c 0,166,167
 412 882 412 882 372 966 c 2,168,-1
 356 998 l 2,169,170
 302 1102 302 1102 242 1288 c 0,171,172
 238 1298 238 1298 231 1321 c 128,-1,173
 224 1344 224 1344 220 1354 c 0,174,175
 220 1360 220 1360 216 1368 c 128,-1,176
 212 1376 212 1376 212 1380 c 0,177,178
 190 1460 190 1460 184 1500 c 1,179,180
 174 1530 174 1530 174 1570 c 0,181,182
 172 1586 172 1586 172 1616 c 0,183,184
 172 1622 172 1622 173 1636 c 128,-1,185
 174 1650 174 1650 174 1656 c 0,186,187
 174 1700 174 1700 200 1804 c 0,188,189
 200 1806 200 1806 200 1810 c 128,-1,190
 200 1814 200 1814 202 1816 c 0,191,192
 206 1828 206 1828 224 1846 c 0,193,194
 226 1848 226 1848 232 1850 c 128,-1,195
 238 1852 238 1852 240 1852 c 2,196,-1
 248 1854 l 1,197,198
 126 1782 126 1782 124 1782 c 1,199,200
 132 1786 132 1786 144 1796 c 1,201,202
 158 1802 158 1802 174 1806 c 1,203,-1
 182 1806 l 2,204,205
 184 1806 184 1806 188 1807 c 128,-1,206
 192 1808 192 1808 194 1808 c 2,207,-1
 202 1808 l 2,208,209
 204 1808 204 1808 208 1809 c 128,-1,210
 212 1810 212 1810 214 1810 c 2,211,-1
 256 1810 l 2,212,213
 264 1812 264 1812 282 1812 c 2,214,-1
 290 1812 l 1,215,216
 298 1804 298 1804 300 1798 c 2,217,-1
 300 1792 l 1,218,-1
 300 1790 l 2,219,220
 302 1788 302 1788 302 1786 c 0,221,222
 306 1770 306 1770 302 1754 c 1,223,224
 302 1734 302 1734 274 1702 c 0,225,226
 214 1628 214 1628 146 1504 c 0,227,228
 58 1344 58 1344 24 1256 c 0,229,230
 -4 1186 -4 1186 -10 1162 c 0,231,232
 -10 1160 -10 1160 -11 1157 c 128,-1,233
 -12 1154 -12 1154 -12 1152 c 0,234,235
 -12 1148 -12 1148 -16 1137 c 128,-1,236
 -20 1126 -20 1126 -20 1120 c 0,237,238
 -28 1090 -28 1090 -34 1029 c 128,-1,239
 -40 968 -40 968 -42 956 c 0,240,241
 -48 908 -48 908 -48 904 c 2,242,-1
 -48 802 l 2,0,1
EndSplineSet
Validated: 37
EndChar

StartChar: quotesingle
Encoding: 39 39 10
Width: 799
GlyphClass: 2
Flags: W
LayerCount: 2
Fore
SplineSet
80 1584 m 1,0,-1
 116 1596 l 2,1,2
 154 1610 154 1610 192 1624 c 2,3,-1
 230 1638 l 1,4,-1
 230 1698 l 1,5,6
 226 1762 226 1762 226 1792 c 2,7,-1
 226 1848 l 2,8,9
 226 1854 226 1854 227 1867 c 128,-1,10
 228 1880 228 1880 228 1886 c 0,11,12
 228 1890 228 1890 230 1899 c 128,-1,13
 232 1908 232 1908 232 1912 c 2,14,-1
 194 1896 l 2,15,16
 156 1882 156 1882 118 1864 c 2,17,-1
 80 1848 l 1,18,19
 80 1830 80 1830 85 1794 c 128,-1,20
 90 1758 90 1758 90 1738 c 0,21,22
 90 1708 90 1708 86 1644 c 0,23,24
 86 1612 86 1612 80 1584 c 1,0,-1
EndSplineSet
Validated: 9
EndChar

StartChar: parenleft
Encoding: 40 40 11
Width: 799
GlyphClass: 2
Flags: W
LayerCount: 2
Fore
SplineSet
92 1176 m 0,0,1
 92 1146 92 1146 94 1132 c 0,2,3
 94 1130 94 1130 112 998 c 1,4,5
 126 928 126 928 164 818 c 0,6,7
 190 746 190 746 262 600 c 0,8,9
 272 576 272 576 282 566 c 0,10,11
 334 480 334 480 366 458 c 1,12,-1
 386 438 l 1,13,-1
 516 540 l 1,14,15
 444 586 444 586 352 760 c 1,16,-1
 340 784 l 2,17,18
 336 794 336 794 318 829 c 128,-1,19
 300 864 300 864 294 884 c 0,20,21
 252 1020 252 1020 246 1058 c 0,22,23
 234 1140 234 1140 232 1186 c 2,24,-1
 232 1202 l 2,25,26
 232 1218 232 1218 234 1250 c 128,-1,27
 236 1282 236 1282 236 1298 c 0,28,29
 246 1426 246 1426 272 1522 c 0,30,31
 276 1530 276 1530 281 1550 c 128,-1,32
 286 1570 286 1570 288 1578 c 0,33,34
 290 1584 290 1584 336 1700 c 0,35,36
 340 1710 340 1710 351 1729 c 128,-1,37
 362 1748 362 1748 366 1758 c 0,38,39
 430 1876 430 1876 484 1920 c 1,40,-1
 444 1916 l 2,41,42
 404 1912 404 1912 364 1908 c 2,43,-1
 322 1902 l 2,44,45
 320 1900 320 1900 316 1894 c 128,-1,46
 312 1888 312 1888 310 1886 c 0,47,48
 290 1860 290 1860 276 1834 c 0,49,50
 264 1816 264 1816 262 1812 c 2,51,-1
 250 1788 l 1,52,-1
 202 1698 l 2,53,54
 200 1692 200 1692 195 1681 c 128,-1,55
 190 1670 190 1670 188 1666 c 0,56,57
 184 1656 184 1656 176 1637 c 128,-1,58
 168 1618 168 1618 162 1602 c 128,-1,59
 156 1586 156 1586 152 1570 c 0,60,61
 138 1538 138 1538 130 1510 c 128,-1,62
 122 1482 122 1482 120 1467 c 128,-1,63
 118 1452 118 1452 115 1422 c 128,-1,64
 112 1392 112 1392 108 1372 c 0,65,66
 108 1366 108 1366 106 1352 c 128,-1,67
 104 1338 104 1338 104 1332 c 0,68,69
 98 1274 98 1274 96 1250 c 0,70,71
 92 1198 92 1198 92 1176 c 0,0,1
EndSplineSet
Validated: 9
EndChar

StartChar: parenright
Encoding: 41 41 12
Width: 799
GlyphClass: 2
Flags: W
LayerCount: 2
Fore
SplineSet
26 1892 m 0,0,1
 26 1888 26 1888 72 1858 c 1,2,3
 102 1828 102 1828 180 1718 c 0,4,5
 196 1694 196 1694 230 1622 c 2,6,-1
 256 1562 l 1,7,8
 296 1430 296 1430 306 1356 c 0,9,10
 324 1140 324 1140 324 1136 c 0,11,12
 326 1096 326 1096 326 1018 c 2,13,-1
 326 964 l 2,14,15
 326 958 326 958 327 946 c 128,-1,16
 328 934 328 934 328 928 c 0,17,18
 328 854 328 854 326 818 c 0,19,20
 324 804 324 804 322 777 c 128,-1,21
 320 750 320 750 318 736 c 0,22,23
 306 632 306 632 274 524 c 0,24,25
 248 424 248 424 216 374 c 0,26,27
 216 372 216 372 214 370 c 128,-1,28
 212 368 212 368 212 366 c 0,29,30
 194 324 194 324 140 270 c 1,31,-1
 180 276 l 2,32,33
 222 282 222 282 264 288 c 2,34,-1
 304 296 l 2,35,36
 308 300 308 300 314 308 c 128,-1,37
 320 316 320 316 322 318 c 0,38,39
 342 344 342 344 358 376 c 0,40,41
 360 378 360 378 364 383 c 128,-1,42
 368 388 368 388 370 390 c 128,-1,43
 372 392 372 392 372 394 c 128,-1,44
 372 396 372 396 372 398 c 0,45,46
 380 404 380 404 402 474 c 0,47,48
 406 492 406 492 427 564 c 128,-1,49
 448 636 448 636 454 676 c 0,50,51
 456 688 456 688 459 711 c 128,-1,52
 462 734 462 734 464 753 c 128,-1,53
 466 772 466 772 466 788 c 2,54,-1
 466 980 l 2,55,56
 466 986 466 986 467 999 c 128,-1,57
 468 1012 468 1012 468 1018 c 2,58,-1
 468 1024 l 2,59,60
 468 1032 468 1032 467 1052 c 128,-1,61
 466 1072 466 1072 466 1082 c 2,62,-1
 466 1156 l 2,63,64
 466 1162 466 1162 464 1174 c 128,-1,65
 462 1186 462 1186 462 1192 c 0,66,67
 462 1220 462 1220 458 1266 c 0,68,69
 458 1288 458 1288 456 1300 c 0,70,71
 454 1318 454 1318 449 1356 c 128,-1,72
 444 1394 444 1394 442 1414 c 0,73,74
 400 1680 400 1680 286 1840 c 0,75,76
 276 1854 276 1854 256 1879 c 128,-1,77
 236 1904 236 1904 226 1918 c 0,78,79
 218 1932 218 1932 207 1944 c 128,-1,80
 196 1956 196 1956 179 1971 c 128,-1,81
 162 1986 162 1986 156 1992 c 0,82,83
 154 1992 154 1992 90 1943 c 128,-1,84
 26 1894 26 1894 26 1892 c 0,0,1
EndSplineSet
Validated: 9
EndChar

StartChar: asterisk
Encoding: 42 42 13
Width: 799
GlyphClass: 2
Flags: W
LayerCount: 2
Fore
SplineSet
54 740 m 1,0,1
 70 740 70 740 144 744 c 128,-1,2
 218 748 218 748 218 750 c 0,3,4
 222 756 222 756 227 761 c 128,-1,5
 232 766 232 766 238 771 c 128,-1,6
 244 776 244 776 248 780 c 128,-1,7
 252 784 252 784 262 796 c 128,-1,8
 272 808 272 808 276 814 c 1,9,-1
 276 800 l 2,10,11
 276 790 276 790 272 768 c 128,-1,12
 268 746 268 746 268 736 c 0,13,14
 268 732 268 732 267 722 c 128,-1,15
 266 712 266 712 266 706 c 0,16,17
 266 702 266 702 267 692 c 128,-1,18
 268 682 268 682 268 678 c 2,19,-1
 268 666 l 2,20,21
 268 654 268 654 272 634 c 0,22,23
 272 628 272 628 273 614 c 128,-1,24
 274 600 274 600 274 594 c 2,25,-1
 274 580 l 2,26,27
 272 576 272 576 272 570 c 128,-1,28
 272 564 272 564 270 562 c 2,29,-1
 308 574 l 2,30,31
 348 586 348 586 388 600 c 2,32,-1
 426 612 l 1,33,34
 428 620 428 620 428 634 c 0,35,36
 428 662 428 662 426 676 c 1,37,38
 448 686 448 686 506 719 c 128,-1,39
 564 752 564 752 564 754 c 0,40,41
 558 772 558 772 543 793 c 128,-1,42
 528 814 528 814 522 824 c 0,43,44
 504 862 504 862 482 892 c 0,45,46
 480 892 480 892 480 896 c 128,-1,47
 480 900 480 900 478 900 c 1,48,49
 494 898 494 898 523 890 c 128,-1,50
 552 882 552 882 570 880 c 0,51,52
 578 880 578 880 592 880 c 128,-1,53
 606 880 606 880 614 878 c 1,54,-1
 720 1006 l 1,55,56
 696 998 696 998 680 998 c 2,57,-1
 660 998 l 2,58,59
 624 998 624 998 600 1000 c 128,-1,60
 576 1002 576 1002 549 1008 c 128,-1,61
 522 1014 522 1014 506 1016 c 0,62,63
 498 1018 498 1018 481 1021 c 128,-1,64
 464 1024 464 1024 456 1026 c 1,65,66
 464 1060 464 1060 468 1066 c 0,67,68
 486 1090 486 1090 495 1101 c 128,-1,69
 504 1112 504 1112 515 1126 c 128,-1,70
 526 1140 526 1140 544 1162 c 0,71,72
 632 1274 632 1274 688 1324 c 1,73,-1
 648 1320 l 2,74,75
 606 1314 606 1314 564 1308 c 2,76,-1
 524 1300 l 1,77,78
 514 1282 514 1282 498 1260 c 1,79,-1
 498 1320 l 2,80,81
 498 1324 498 1324 497 1334 c 128,-1,82
 496 1344 496 1344 496 1348 c 128,-1,83
 496 1352 496 1352 495 1359 c 128,-1,84
 494 1366 494 1366 494 1370 c 2,85,-1
 494 1406 l 2,86,87
 492 1406 492 1406 417 1374 c 128,-1,88
 342 1342 342 1342 342 1340 c 0,89,90
 344 1334 344 1334 345 1327 c 128,-1,91
 346 1320 346 1320 347 1311 c 128,-1,92
 348 1302 348 1302 348 1298 c 0,93,94
 336 1294 336 1294 301 1278 c 128,-1,95
 266 1262 266 1262 236 1248 c 2,96,-1
 204 1232 l 1,97,98
 216 1206 216 1206 232 1150 c 0,99,100
 234 1144 234 1144 241 1128 c 128,-1,101
 248 1112 248 1112 250 1104 c 0,102,103
 252 1102 252 1102 252 1098 c 128,-1,104
 252 1094 252 1094 252 1092 c 2,105,-1
 250 1092 l 1,106,-1
 248 1094 l 2,107,108
 246 1094 246 1094 188 1037 c 128,-1,109
 130 980 130 980 130 978 c 0,110,111
 162 974 162 974 236 958 c 2,112,-1
 260 952 l 1,113,114
 176 838 176 838 88 764 c 0,115,116
 60 740 60 740 54 740 c 1,0,1
EndSplineSet
Validated: 5
EndChar

StartChar: plus
Encoding: 43 43 14
Width: 799
GlyphClass: 2
Flags: W
LayerCount: 2
Fore
SplineSet
66 1136 m 1,0,1
 252 1150 252 1150 308 1150 c 2,2,-1
 310 1150 l 1,3,-1
 310 1148 l 1,4,-1
 308 1116 l 2,5,6
 304 1098 304 1098 300 1060 c 128,-1,7
 296 1022 296 1022 294 1004 c 0,8,9
 280 850 280 850 280 802 c 0,10,11
 280 796 280 796 281 786 c 128,-1,12
 282 776 282 776 282 770 c 2,13,-1
 282 732 l 2,14,15
 282 724 282 724 281 708 c 128,-1,16
 280 692 280 692 280 684 c 1,17,18
 284 684 284 684 359 711 c 128,-1,19
 434 738 434 738 434 740 c 0,20,21
 432 756 432 756 432 788 c 2,22,-1
 432 930 l 2,23,24
 432 932 432 932 433 937 c 128,-1,25
 434 942 434 942 434 944 c 128,-1,26
 434 946 434 946 433 952 c 128,-1,27
 432 958 432 958 432 962 c 128,-1,28
 432 966 432 966 433 973 c 128,-1,29
 434 980 434 980 434 982 c 128,-1,30
 434 984 434 984 435 992 c 128,-1,31
 436 1000 436 1000 436 1004 c 128,-1,32
 436 1008 436 1008 437 1015 c 128,-1,33
 438 1022 438 1022 438 1026 c 2,34,-1
 440 1052 l 2,35,36
 442 1068 442 1068 446 1101 c 128,-1,37
 450 1134 450 1134 452 1150 c 1,38,-1
 456 1150 l 2,39,40
 458 1150 458 1150 466 1148 c 2,41,-1
 480 1146 l 1,42,-1
 486 1146 l 2,43,44
 488 1146 488 1146 492 1145 c 2,45,-1
 496 1144 l 1,46,-1
 513 1144 l 1,47,-1
 536 1144 l 2,48,49
 540 1144 540 1144 546 1143 c 128,-1,50
 552 1142 552 1142 554 1142 c 128,-1,51
 556 1142 556 1142 558 1143 c 128,-1,52
 560 1144 560 1144 562 1144 c 2,53,-1
 564 1144 l 1,54,-1
 568 1142 l 1,55,-1
 598 1142 l 2,56,57
 604 1142 604 1142 614 1143 c 128,-1,58
 624 1144 624 1144 628 1144 c 0,59,60
 630 1144 630 1144 634 1143 c 128,-1,61
 638 1142 638 1142 640 1142 c 0,62,63
 644 1144 644 1144 650 1142 c 2,64,-1
 654 1142 l 1,65,-1
 764 1268 l 2,66,67
 760 1266 760 1266 750 1266 c 2,68,-1
 582 1266 l 1,69,70
 568 1272 568 1272 536 1272 c 0,71,72
 512 1272 512 1272 464 1268 c 1,73,74
 480 1472 480 1472 480 1576 c 2,75,-1
 480 1640 l 2,76,77
 478 1640 478 1640 403 1610 c 128,-1,78
 328 1580 328 1580 328 1578 c 0,79,80
 338 1552 338 1552 338 1500 c 0,81,82
 338 1496 338 1496 339 1484 c 128,-1,83
 340 1472 340 1472 340 1466 c 128,-1,84
 340 1460 340 1460 339 1444 c 128,-1,85
 338 1428 338 1428 338 1420 c 0,86,87
 338 1378 338 1378 330 1290 c 0,88,89
 328 1284 328 1284 328 1272 c 128,-1,90
 328 1260 328 1260 328 1256 c 1,91,-1
 318 1256 l 2,92,93
 290 1254 290 1254 238 1254 c 0,94,95
 232 1254 232 1254 172 1260 c 1,96,-1
 66 1136 l 1,0,1
EndSplineSet
Validated: 9
EndChar

StartChar: comma
Encoding: 44 44 15
Width: 799
GlyphClass: 2
Flags: W
LayerCount: 2
Fore
SplineSet
-32 160 m 1,0,1
 0 166 0 166 8 168 c 0,2,3
 108 218 108 218 148 252 c 0,4,5
 182 278 182 278 206 322 c 0,6,7
 238 390 238 390 238 440 c 0,8,9
 234 504 234 504 210 528 c 1,10,11
 196 550 196 550 168 568 c 0,12,13
 130 594 130 594 122 598 c 0,14,15
 120 598 120 598 64 547 c 128,-1,16
 8 496 8 496 8 494 c 2,17,-1
 12 494 l 1,18,-1
 14 492 l 2,19,20
 16 488 16 488 18 488 c 256,21,22
 20 488 20 488 24 487 c 2,23,-1
 28 486 l 2,24,25
 30 484 30 484 39 481 c 128,-1,26
 48 478 48 478 50 476 c 0,27,28
 58 472 58 472 72 458 c 0,29,30
 72 456 72 456 74 456 c 128,-1,31
 76 456 76 456 78 454 c 0,32,33
 98 434 98 434 98 386 c 1,34,35
 94 350 94 350 84 326 c 0,36,37
 80 318 80 318 72 307 c 128,-1,38
 64 296 64 296 62 294 c 0,39,40
 38 254 38 254 -12 232 c 1,41,42
 2 240 2 240 35 262 c 128,-1,43
 68 284 68 284 88 294 c 1,44,45
 80 288 80 288 60 280 c 1,46,-1
 -32 160 l 1,0,1
EndSplineSet
Validated: 5
EndChar

StartChar: hyphen
Encoding: 45 45 16
Width: 799
GlyphClass: 2
Flags: W
LayerCount: 2
Fore
SplineSet
18 946 m 0,0,1
 166 912 166 912 168 912 c 2,2,-1
 184 912 l 1,3,4
 232 904 232 904 288 904 c 0,5,6
 300 902 300 902 326 902 c 2,7,-1
 394 902 l 2,8,9
 396 900 396 900 402 900 c 2,10,11
 402 900 402 900 404 900 c 2,12,-1
 408 898 l 1,13,-1
 410 896 l 2,14,15
 412 896 412 896 414 896 c 0,16,17
 416 898 416 898 422 898 c 2,18,-1
 450 898 l 1,19,-1
 560 1022 l 2,20,21
 558 1022 558 1022 556 1024 c 2,22,-1
 554 1024 l 1,23,-1
 552 1022 l 2,24,25
 550 1020 550 1020 548 1022 c 2,26,-1
 532 1022 l 2,27,28
 532 1024 532 1024 528 1022 c 128,-1,29
 524 1020 524 1020 524 1022 c 2,30,-1
 520 1022 l 1,31,32
 516 1018 516 1018 510 1022 c 1,33,-1
 504 1022 l 2,34,35
 490 1022 490 1022 484 1024 c 0,36,37
 482 1024 482 1024 474 1026 c 0,38,39
 470 1026 470 1026 462 1025 c 128,-1,40
 454 1024 454 1024 450 1024 c 2,41,-1
 396 1024 l 2,42,43
 376 1026 376 1026 328 1029 c 128,-1,44
 280 1032 280 1032 256 1034 c 128,-1,45
 232 1036 232 1036 197 1043 c 128,-1,46
 162 1050 162 1050 136 1062 c 0,47,48
 134 1062 134 1062 76 1005 c 128,-1,49
 18 948 18 948 18 946 c 0,0,1
EndSplineSet
Validated: 9
EndChar

StartChar: period
Encoding: 46 46 17
Width: 799
GlyphClass: 2
Flags: W
LayerCount: 2
Fore
SplineSet
38 498 m 1,0,1
 50 412 50 412 170 412 c 1,2,3
 294 426 294 426 340 508 c 0,4,5
 358 544 358 544 358 570 c 0,6,7
 364 616 364 616 342 660 c 0,8,9
 340 660 340 660 340 664 c 128,-1,10
 340 668 340 668 340 670 c 0,11,12
 330 688 330 688 318 694 c 1,13,-1
 310 702 l 1,14,15
 286 716 286 716 254 708 c 1,16,17
 186 680 186 680 164 665 c 128,-1,18
 142 650 142 650 108 616 c 128,-1,19
 74 582 74 582 62 564 c 0,20,21
 56 556 56 556 52 516 c 0,22,23
 52 496 52 496 50 486 c 0,24,25
 50 484 50 484 52 480 c 0,26,27
 54 480 54 480 130 511 c 128,-1,28
 206 542 206 542 206 544 c 2,29,-1
 208 542 l 1,30,-1
 208 558 l 2,31,32
 208 560 208 560 209 560 c 128,-1,33
 210 560 210 560 210 562 c 2,34,-1
 210 566 l 1,35,36
 214 584 214 584 224 590 c 0,37,38
 252 622 252 622 276 634 c 2,39,-1
 164 568 l 1,40,-1
 184 588 l 1,41,-1
 186 592 l 2,42,43
 188 596 188 596 190 596 c 0,44,45
 212 576 212 576 207 537 c 128,-1,46
 202 498 202 498 176 488 c 2,47,-1
 164 484 l 1,48,49
 184 496 184 496 225 519 c 128,-1,50
 266 542 266 542 286 554 c 1,51,52
 264 532 264 532 230 532 c 0,53,54
 216 532 216 532 203 538 c 128,-1,55
 190 544 190 544 194 554 c 1,56,57
 194 572 194 572 204 586 c 0,58,59
 206 588 206 588 211 590 c 128,-1,60
 216 592 216 592 218 592 c 2,61,-1
 224 594 l 1,62,63
 186 572 186 572 153 552 c 128,-1,64
 120 532 120 532 108 524 c 2,65,-1
 94 516 l 1,66,67
 138 548 138 548 144 550 c 2,68,-1
 148 552 l 2,69,70
 152 552 152 552 154 552 c 2,71,-1
 164 552 l 1,72,-1
 166 554 l 2,73,74
 166 556 166 556 164 556 c 128,-1,75
 162 556 162 556 162 558 c 2,76,-1
 164 560 l 1,77,78
 168 556 168 556 166 554 c 0,79,80
 166 552 166 552 167 549 c 128,-1,81
 168 546 168 546 168 544 c 0,82,83
 168 526 168 526 166 526 c 128,-1,84
 164 526 164 526 164 528 c 1,85,86
 160 528 160 528 158 528 c 128,-1,87
 156 528 156 528 158 530 c 0,88,89
 176 542 176 542 197 555 c 128,-1,90
 218 568 218 568 244 584 c 128,-1,91
 270 600 270 600 284 608 c 1,92,-1
 278 598 l 1,93,-1
 276 598 l 1,94,95
 266 588 266 588 254 594 c 0,96,97
 252 594 252 594 192 537 c 128,-1,98
 132 480 132 480 132 478 c 0,99,100
 158 470 158 470 160 470 c 0,101,102
 164 468 164 468 176 468 c 2,103,-1
 186 468 l 2,104,105
 234 468 234 468 280 495 c 128,-1,106
 326 522 326 522 326 562 c 0,107,108
 324 566 324 566 324 575 c 128,-1,109
 324 584 324 584 324 588 c 0,110,111
 324 590 324 590 323 592 c 128,-1,112
 322 594 322 594 322 596 c 128,-1,113
 322 598 322 598 320 601 c 128,-1,114
 318 604 318 604 318 606 c 128,-1,115
 318 608 318 608 316 616 c 128,-1,116
 314 624 314 624 314 626 c 0,117,118
 302 672 302 672 270 672 c 0,119,120
 264 674 264 674 252 674 c 0,121,122
 248 676 248 676 244 675 c 128,-1,123
 240 674 240 674 236 674 c 0,124,125
 214 674 214 674 202 668 c 0,126,127
 158 646 158 646 60 586 c 0,128,129
 38 572 38 572 38 498 c 1,0,1
EndSplineSet
Validated: 37
EndChar

StartChar: slash
Encoding: 47 47 18
Width: 799
GlyphClass: 2
Flags: W
LayerCount: 2
Fore
SplineSet
-26 454 m 1,0,-1
 12 468 l 2,1,2
 52 482 52 482 90 496 c 2,3,-1
 128 513 l 1,4,5
 128 543 128 543 156 636.5 c 128,-1,6
 184 730 184 730 310 1020 c 0,7,8
 314 1032 314 1032 325 1058 c 128,-1,9
 336 1084 336 1084 342 1096 c 0,10,11
 376 1190 376 1190 434 1308 c 0,12,13
 436 1312 436 1312 439 1320 c 128,-1,14
 442 1328 442 1328 444 1330 c 2,15,-1
 513 1446 l 2,16,17
 581 1562 581 1562 602 1602 c 0,18,19
 622 1642 622 1642 656 1699 c 128,-1,20
 690 1756 690 1756 694 1764 c 0,21,22
 704 1772 704 1772 706 1782 c 1,23,-1
 664 1774 l 2,24,25
 624 1766 624 1766 584 1756 c 2,26,-1
 544 1746 l 1,27,28
 540 1738 540 1738 528 1721 c 0,29,30
 517 1704 517 1704 513 1696 c 2,31,-1
 498 1666 l 2,32,33
 444 1550 444 1550 316 1340 c 1,34,-1
 294 1294 l 2,35,36
 278 1256 278 1256 246 1177 c 128,-1,37
 214 1098 214 1098 198 1060 c 0,38,39
 194 1046 194 1046 164 986 c 0,40,41
 162 982 162 982 158 968 c 128,-1,42
 154 954 154 954 152 950 c 0,43,44
 34 690 34 690 6 594 c 0,45,46
 2 580 2 580 0 575 c 128,-1,47
 -2 570 -2 570 -2 568 c 128,-1,48
 -2 566 -2 566 -2 565 c 128,-1,49
 -2 564 -2 564 -3 557 c 128,-1,50
 -4 550 -4 550 -8 538 c 2,51,-1
 -26 454 l 1,0,-1
EndSplineSet
Validated: 9
EndChar

StartChar: zero
Encoding: 48 48 19
Width: 799
GlyphClass: 2
Flags: W
LayerCount: 2
Fore
SplineSet
86 1266 m 2,0,1
 86 1222 86 1222 88 1202 c 0,2,3
 88 1198 88 1198 89 1191 c 128,-1,4
 90 1184 90 1184 90 1180 c 0,5,6
 90 1168 90 1168 94 1128 c 128,-1,7
 98 1088 98 1088 98 1066 c 0,8,9
 98 1060 98 1060 99 1050 c 128,-1,10
 100 1040 100 1040 100 1036 c 2,11,-1
 100 976 l 2,12,13
 100 962 100 962 99 936 c 128,-1,14
 98 910 98 910 98 896 c 2,15,-1
 98 712 l 2,16,17
 98 708 98 708 99 702 c 128,-1,18
 100 696 100 696 100 694 c 2,19,-1
 100 660 l 1,20,21
 104 628 104 628 104 608 c 2,22,-1
 104 582 l 2,23,24
 104 580 104 580 106 575 c 128,-1,25
 108 570 108 570 108 568 c 0,26,27
 122 502 122 502 134 470 c 0,28,29
 138 466 138 466 145 453 c 128,-1,30
 152 440 152 440 156 436 c 0,31,32
 174 404 174 404 196 390 c 0,33,34
 206 380 206 380 221 375 c 128,-1,35
 236 370 236 370 263 368 c 128,-1,36
 290 366 290 366 298 364 c 0,37,38
 336 364 336 364 354 374 c 0,39,40
 388 394 388 394 415 408 c 128,-1,41
 442 422 442 422 450 425 c 128,-1,42
 458 428 458 428 467 434 c 128,-1,43
 476 440 476 440 482 444 c 128,-1,44
 488 448 488 448 504 464 c 0,45,46
 566 526 566 526 614 652 c 1,47,-1
 640 668 l 2,48,49
 638 670 638 670 636 676 c 2,50,51
 636 676 636 676 634 682 c 1,52,53
 634 680 634 680 633 680 c 128,-1,54
 632 680 632 680 630 686 c 2,55,56
 630 686 630 686 628 688 c 2,57,-1
 628 692 l 1,58,59
 648 760 648 760 648 804 c 1,60,61
 666 926 666 926 666 970 c 2,62,-1
 666 1028 l 2,63,64
 666 1032 666 1032 667 1042 c 128,-1,65
 668 1052 668 1052 668 1058 c 0,66,67
 668 1070 668 1070 667 1090 c 128,-1,68
 666 1110 666 1110 666 1122 c 2,69,-1
 666 1152 l 1,70,-1
 666 1208 l 2,71,72
 666 1212 666 1212 667 1224 c 128,-1,73
 668 1236 668 1236 668 1240 c 2,74,-1
 668 1294 l 2,75,76
 670 1310 670 1310 668 1326 c 0,77,78
 668 1328 668 1328 669 1336 c 128,-1,79
 670 1344 670 1344 670 1346 c 0,80,81
 670 1360 670 1360 667 1384 c 128,-1,82
 664 1408 664 1408 664 1412 c 0,83,84
 652 1484 652 1484 652 1488 c 2,85,-1
 652 1500 l 2,86,87
 652 1502 652 1502 651 1505 c 128,-1,88
 650 1508 650 1508 650 1510 c 0,89,90
 648 1530 648 1530 640 1565 c 128,-1,91
 632 1600 632 1600 630 1608 c 2,92,-1
 630 1620 l 2,93,94
 630 1624 630 1624 631 1628 c 128,-1,95
 632 1632 632 1632 633 1635 c 128,-1,96
 634 1638 634 1638 634 1644 c 2,97,-1
 634 1678 l 2,98,99
 634 1692 634 1692 630 1716 c 0,100,101
 630 1718 630 1718 629 1723 c 128,-1,102
 628 1728 628 1728 628 1730 c 2,103,-1
 626 1740 l 2,104,105
 624 1752 624 1752 621 1765 c 128,-1,106
 618 1778 618 1778 611 1798 c 128,-1,107
 604 1818 604 1818 596 1836 c 0,108,109
 594 1842 594 1842 585 1854 c 128,-1,110
 576 1866 576 1866 572 1874 c 0,111,112
 570 1876 570 1876 566 1882 c 128,-1,113
 562 1888 562 1888 560 1890 c 0,114,115
 556 1894 556 1894 549 1901 c 128,-1,116
 542 1908 542 1908 538 1912 c 0,117,118
 536 1912 536 1912 532 1916 c 0,119,120
 528 1916 528 1916 528 1918 c 1,121,122
 526 1918 526 1918 519.5 1923 c 128,-1,123
 513 1928 513 1928 504.5 1933 c 128,-1,124
 496 1938 496 1938 483 1942 c 128,-1,125
 470 1946 470 1946 454 1948 c 0,126,127
 452 1948 452 1948 447 1949 c 128,-1,128
 442 1950 442 1950 440 1950 c 0,129,130
 434 1950 434 1950 386 1938 c 1,131,132
 348 1924 348 1924 308 1902 c 0,133,134
 278 1882 278 1882 240 1860 c 0,135,136
 236 1860 236 1860 230 1854 c 128,-1,137
 224 1848 224 1848 218 1840 c 128,-1,138
 212 1832 212 1832 210 1830 c 0,139,140
 208 1826 208 1826 195 1808 c 128,-1,141
 182 1790 182 1790 178 1780 c 1,142,143
 168 1770 168 1770 164 1752 c 1,144,-1
 154 1732 l 2,145,146
 152 1730 152 1730 150 1724 c 128,-1,147
 148 1718 148 1718 148 1716 c 0,148,149
 140 1696 140 1696 116 1570 c 0,150,151
 86 1424 86 1424 86 1304 c 2,152,-1
 86 1266 l 2,0,1
380 1852 m 1,153,154
 382 1852 382 1852 387 1856 c 128,-1,155
 392 1860 392 1860 394 1862 c 1,156,157
 392 1862 392 1862 388 1858 c 128,-1,158
 384 1854 384 1854 380 1852 c 1,153,154
236 1262 m 2,159,-1
 236 1398 l 2,160,161
 236 1400 236 1400 237 1408 c 128,-1,162
 238 1416 238 1416 238 1418 c 0,163,164
 252 1568 252 1568 262 1606 c 1,165,-1
 324 1644 l 1,166,167
 320 1648 320 1648 312 1658 c 128,-1,168
 304 1668 304 1668 302 1670 c 0,169,170
 288 1690 288 1690 284 1698 c 1,171,172
 302 1762 302 1762 338 1810 c 0,173,174
 342 1816 342 1816 350 1824 c 1,175,-1
 350 1826 l 2,176,177
 352 1826 352 1826 356 1828 c 2,178,-1
 358 1828 l 2,179,180
 362 1828 362 1828 372 1827 c 128,-1,181
 382 1826 382 1826 386 1826 c 0,182,183
 394 1826 394 1826 404 1816 c 0,184,185
 424 1802 424 1802 438 1782 c 0,186,187
 442 1778 442 1778 447 1769 c 128,-1,188
 452 1760 452 1760 454 1756 c 0,189,190
 476 1708 476 1708 480 1666 c 1,191,-1
 480 1644 l 1,192,-1
 480 1622 l 2,193,194
 480 1604 480 1604 476 1572 c 1,195,-1
 472 1568 l 2,196,197
 472 1566 472 1566 473 1562 c 128,-1,198
 474 1558 474 1558 474 1556 c 0,199,200
 462 1490 462 1490 446 1458 c 1,201,202
 470 1464 470 1464 498 1470 c 1,203,-1
 498 1466 l 2,204,205
 498 1464 498 1464 499 1461 c 128,-1,206
 500 1458 500 1458 500 1456 c 0,207,208
 506 1426 506 1426 506 1422 c 0,209,210
 506 1420 506 1420 507 1417 c 128,-1,211
 508 1414 508 1414 508 1412 c 2,212,-1
 508 1402 l 2,213,214
 508 1400 508 1400 509 1396 c 128,-1,215
 510 1392 510 1392 510 1390 c 0,216,217
 518 1340 518 1340 518 1270 c 2,218,-1
 518 1252 l 2,219,220
 518 1238 518 1238 519 1212 c 128,-1,221
 520 1186 520 1186 520 1172 c 2,222,-1
 520 1114 l 2,223,224
 520 1094 520 1094 519 1054 c 128,-1,225
 518 1014 518 1014 518 994 c 2,226,-1
 518 972 l 2,227,228
 518 978 518 978 516 968 c 0,229,230
 516 962 516 962 516 950 c 2,231,-1
 516 908 l 2,232,233
 516 904 516 904 515 898 c 128,-1,234
 514 892 514 892 514 888 c 2,235,-1
 514 868 l 1,236,-1
 508 814 l 2,237,238
 508 812 508 812 506 806 c 128,-1,239
 504 800 504 800 504 796 c 0,240,241
 500 766 500 766 492 710 c 1,242,-1
 444 682 l 1,243,244
 446 676 446 676 457 663 c 128,-1,245
 468 650 468 650 470 642 c 2,246,-1
 470 636 l 1,247,248
 462 600 462 600 444 578 c 1,249,250
 434 544 434 544 382 484 c 0,251,252
 378 484 378 484 370 485 c 128,-1,253
 362 486 362 486 358 486 c 2,254,-1
 346 486 l 2,255,256
 344 486 344 486 342 487 c 128,-1,257
 340 488 340 488 338 488 c 0,258,259
 316 494 316 494 312 498 c 0,260,261
 306 500 306 500 302 506.5 c 128,-1,262
 298 513 298 513 296 518.5 c 128,-1,263
 294 524 294 524 292 526 c 0,264,265
 262 572 262 572 262 600 c 1,266,267
 258 616 258 616 248 768 c 1,268,-1
 248 802 l 2,269,270
 248 804 248 804 249 810 c 128,-1,271
 250 816 250 816 250 818 c 128,-1,272
 250 820 250 820 249 826 c 128,-1,273
 248 832 248 832 248 836 c 256,274,275
 248 840 248 840 249 844 c 128,-1,276
 250 848 250 848 250 850 c 256,277,278
 250 852 250 852 249 857 c 128,-1,279
 248 862 248 862 248 864 c 0,280,281
 248 872 248 872 249 886 c 128,-1,282
 250 900 250 900 250 908 c 2,283,-1
 250 924 l 2,284,285
 248 980 248 980 250 982 c 2,286,-1
 250 1052 l 2,287,288
 250 1060 250 1060 251 1074 c 128,-1,289
 252 1088 252 1088 252 1094 c 0,290,291
 252 1102 252 1102 248 1126 c 0,292,293
 248 1132 248 1132 248 1142 c 128,-1,294
 248 1152 248 1152 246 1156 c 0,295,296
 246 1160 246 1160 244 1164 c 128,-1,297
 242 1168 242 1168 242 1172 c 0,298,299
 240 1182 240 1182 240 1205 c 128,-1,300
 240 1228 240 1228 238 1238 c 0,301,302
 238 1242 238 1242 237 1250 c 128,-1,303
 236 1258 236 1258 236 1262 c 2,159,-1
274 1792 m 2,304,305
 278 1796 278 1796 297 1808 c 128,-1,306
 316 1820 316 1820 322 1820 c 2,307,-1
 274 1792 l 2,304,305
404 486 m 1,308,309
 408 488 408 488 432 502 c 1,310,311
 414 488 414 488 404 486 c 1,308,309
314 438 m 2,312,313
 326 446 326 446 358 462 c 2,314,-1
 314 438 l 2,312,313
EndSplineSet
Validated: 9
EndChar

StartChar: one
Encoding: 49 49 20
Width: 799
GlyphClass: 2
Flags: W
LayerCount: 2
Fore
SplineSet
108 1646 m 1,0,-1
 148 1650 l 2,1,2
 190 1654 190 1654 232 1660 c 2,3,-1
 272 1664 l 1,4,5
 292 1688 292 1688 341 1741 c 128,-1,6
 390 1794 390 1794 414 1824 c 1,7,-1
 428 1838 l 1,8,-1
 428 1836 l 1,9,10
 402 1828 402 1828 348 1813 c 128,-1,11
 294 1798 294 1798 268 1792 c 1,12,-1
 268 1744 l 1,13,-1
 268 1684 l 2,14,15
 268 1662 268 1662 269 1619 c 128,-1,16
 270 1576 270 1576 270 1554 c 2,17,-1
 270 1535 l 1,18,19
 266 1415 266 1415 242 1202 c 0,20,21
 240 1188 240 1188 238 1159 c 128,-1,22
 236 1130 236 1130 236 1114 c 0,23,24
 236 1096 236 1096 234 1066 c 128,-1,25
 232 1036 232 1036 232 1018 c 2,26,-1
 232 996 l 2,27,28
 232 984 232 984 234 978 c 128,-1,29
 236 972 236 972 236 958 c 0,30,31
 236 954 236 954 239 924 c 128,-1,32
 242 894 242 894 242 878 c 2,33,-1
 242 856 l 1,34,-1
 242 858 l 1,35,-1
 242 828 l 2,36,37
 242 824 242 824 243 817 c 128,-1,38
 244 810 244 810 244 806 c 2,39,-1
 244 766 l 2,40,41
 244 760 244 760 248 748 c 0,42,43
 250 740 250 740 250 730 c 0,44,45
 254 718 254 718 256 710 c 2,46,-1
 256 706 l 1,47,-1
 258 700 l 1,48,-1
 256 700 l 1,49,-1
 254 698 l 2,50,51
 254 696 254 696 253 696 c 128,-1,52
 252 696 252 696 252 694 c 128,-1,53
 252 692 252 692 252 686 c 2,54,-1
 250 680 l 1,55,-1
 250 666 l 1,56,57
 246 638 246 638 246 622 c 0,58,59
 246 620 246 620 247 616 c 2,60,-1
 248 612 l 1,61,-1
 248 608 l 1,62,-1
 246 604 l 1,63,-1
 246 574 l 2,64,65
 246 554 246 554 244 546 c 128,-1,66
 242 538 242 538 239 529 c 128,-1,67
 236 520 236 520 232 502 c 0,68,69
 232 498 232 498 230 494 c 1,70,-1
 226 494 l 1,71,72
 222 498 222 498 224 500 c 0,73,74
 258 522 258 522 352 574 c 0,75,76
 356 574 356 574 356 570 c 1,77,-1
 348 570 l 2,78,79
 340 570 340 570 300 580 c 0,80,81
 294 580 294 580 280 582 c 128,-1,82
 266 584 266 584 258 584 c 2,83,-1
 254 584 l 1,84,-1
 250 586 l 2,85,86
 250 584 250 584 252 584 c 2,87,-1
 254 584 l 1,88,89
 256 580 256 580 265 566 c 128,-1,90
 274 552 274 552 275 547 c 128,-1,91
 276 542 276 542 274 532 c 1,92,93
 256 512 256 512 204 487 c 128,-1,94
 152 462 152 462 142 462 c 0,95,96
 140 462 140 462 148 468 c 1,97,-1
 166 468 l 2,98,99
 218 468 218 468 270 454 c 0,100,101
 272 452 272 452 278 452 c 128,-1,102
 284 452 284 452 286 452 c 128,-1,103
 288 452 288 452 292 450 c 128,-1,104
 296 448 296 448 302 446 c 128,-1,105
 308 444 308 444 310 444 c 0,106,107
 318 440 318 440 336 435 c 128,-1,108
 354 430 354 430 356 430 c 0,109,110
 362 424 362 424 370 424 c 1,111,-1
 488 540 l 1,112,113
 482 540 482 540 480 542 c 0,114,115
 442 556 442 556 336 578 c 0,116,117
 330 578 330 578 301 583 c 128,-1,118
 272 588 272 588 256 590 c 0,119,120
 220 602 220 602 214 602 c 0,121,122
 188 602 188 602 110 522 c 1,123,124
 108 512 108 512 108 508 c 128,-1,125
 108 504 108 504 117 490 c 128,-1,126
 126 476 126 476 128 472 c 0,127,128
 130 470 130 470 136 468 c 2,129,-1
 142 466 l 2,130,131
 146 466 146 466 156 464 c 128,-1,132
 166 462 166 462 170 462 c 2,133,-1
 178 462 l 2,134,135
 180 462 180 462 182 461 c 128,-1,136
 184 460 184 460 186 460 c 256,137,138
 188 460 188 460 192 461 c 2,139,-1
 196 462 l 2,140,141
 200 462 200 462 204 460 c 0,142,143
 206 458 206 458 210 458 c 0,144,145
 214 456 214 456 227 455 c 128,-1,146
 240 454 240 454 244 450 c 0,147,148
 246 450 246 450 248 446 c 0,149,150
 252 440 252 440 254 442 c 0,151,152
 288 460 288 460 319 472 c 128,-1,153
 350 484 350 484 360 486 c 128,-1,154
 370 488 370 488 379 496 c 128,-1,155
 388 504 388 504 388 511 c 128,-1,156
 388 518 388 518 388 540 c 0,157,158
 388 544 388 544 392 564 c 1,159,-1
 394 568 l 1,160,-1
 396 572 l 1,161,-1
 396 582 l 1,162,163
 400 614 400 614 400 634 c 2,164,-1
 400 678 l 2,165,166
 398 688 398 688 404 708 c 128,-1,167
 410 728 410 728 410 738 c 2,168,-1
 410 744 l 1,169,-1
 410 760 l 2,170,171
 408 764 408 764 408 768 c 128,-1,172
 408 772 408 772 408 776 c 0,173,174
 408 778 408 778 405 781 c 128,-1,175
 402 784 402 784 402 786 c 128,-1,176
 402 788 402 788 401 790 c 128,-1,177
 400 792 400 792 400 794 c 128,-1,178
 400 796 400 796 399 796 c 128,-1,179
 398 796 398 796 398 798 c 0,180,181
 396 812 396 812 396 842 c 0,182,183
 396 848 396 848 395 864 c 128,-1,184
 394 880 394 880 394 886 c 2,185,-1
 394 920 l 2,186,187
 394 922 394 922 393 928 c 128,-1,188
 392 934 392 934 392 938 c 2,189,-1
 390 952 l 1,190,-1
 390 950 l 1,191,-1
 392 944 l 2,192,193
 392 946 392 946 390 962 c 0,194,195
 390 964 390 964 389 968 c 128,-1,196
 388 972 388 972 388 974 c 0,197,198
 388 980 388 980 386 996 c 128,-1,199
 384 1012 384 1012 382 1018 c 128,-1,200
 380 1024 380 1024 380 1036 c 128,-1,201
 380 1048 380 1048 380 1054 c 0,202,203
 380 1058 380 1058 379 1065 c 128,-1,204
 378 1072 378 1072 378 1076 c 0,205,206
 376 1096 376 1096 376 1142 c 2,207,-1
 376 1164 l 2,208,209
 376 1224 376 1224 378 1248 c 0,210,211
 378 1266 378 1266 382 1298 c 0,212,213
 386 1364 386 1364 396 1459 c 128,-1,214
 406 1554 406 1554 408 1584 c 0,215,216
 412 1616 412 1616 412 1634 c 2,217,-1
 412 1740 l 2,218,219
 412 1768 412 1768 422 1832 c 0,220,221
 422 1834 422 1834 423 1837 c 128,-1,222
 424 1840 424 1840 424 1842 c 2,223,-1
 424 1852 l 1,224,225
 400 1846 400 1846 345 1835 c 128,-1,226
 290 1824 290 1824 262 1818 c 1,227,-1
 262 1812 l 2,228,229
 262 1808 262 1808 256 1804 c 0,230,231
 252 1800 252 1800 252 1798 c 0,232,233
 236 1774 236 1774 189 1723 c 128,-1,234
 142 1672 142 1672 108 1646 c 1,0,-1
EndSplineSet
Validated: 5
EndChar

StartChar: two
Encoding: 50 50 21
Width: 799
GlyphClass: 2
Flags: W
LayerCount: 2
Fore
SplineSet
60 1568 m 1,0,-1
 100 1570 l 2,1,2
 142 1572 142 1572 184 1576 c 2,3,-1
 224 1580 l 1,4,5
 260 1612 260 1612 288 1626 c 1,6,7
 196 1576 196 1576 188 1570 c 1,8,9
 214 1588 214 1588 264 1588 c 0,10,11
 302 1588 302 1588 384 1556 c 1,12,13
 436 1526 436 1526 444 1496 c 0,14,15
 452 1470 452 1470 452 1446 c 2,16,-1
 452 1410 l 1,17,18
 444 1286 444 1286 378 1108 c 0,19,20
 368 1082 368 1082 349 1029 c 128,-1,21
 330 976 330 976 322 950 c 0,22,23
 302 890 302 890 262 830 c 0,24,25
 258 820 258 820 224 768 c 0,26,27
 216 760 216 760 206 734 c 0,28,29
 200 726 200 726 156 642 c 0,30,31
 152 634 152 634 135 605 c 128,-1,32
 118 576 118 576 112 558 c 0,33,34
 110 554 110 554 106 547 c 128,-1,35
 102 540 102 540 100 534 c 128,-1,36
 98 528 98 528 98 524 c 0,37,38
 92 494 92 494 130 480 c 1,39,-1
 152 480 l 2,40,41
 158 480 158 480 171 481 c 128,-1,42
 184 482 184 482 190 482 c 2,43,-1
 250 482 l 1,44,45
 332 478 332 478 566 434 c 0,46,47
 582 430 582 430 593 426 c 128,-1,48
 604 422 604 422 608 420 c 128,-1,49
 612 418 612 418 621 416 c 128,-1,50
 630 414 630 414 646 414 c 1,51,-1
 752 520 l 1,52,53
 656 530 656 530 256 598 c 0,54,55
 254 598 254 598 250 600 c 256,56,57
 246 602 246 602 244 600 c 2,58,-1
 250 586 l 2,59,60
 256 572 256 572 258 564 c 1,61,62
 258 566 258 566 260 568 c 0,63,64
 268 584 268 584 276 612 c 0,65,66
 276 614 276 614 280 619 c 128,-1,67
 284 624 284 624 286 626 c 0,68,69
 290 634 290 634 297 651 c 128,-1,70
 304 668 304 668 308 676 c 0,71,72
 326 712 326 712 367 780 c 128,-1,73
 408 848 408 848 426 882 c 0,74,75
 460 940 460 940 476 992 c 0,76,77
 484 1028 484 1028 492 1054 c 0,78,79
 496 1068 496 1068 506 1098 c 128,-1,80
 516 1128 516 1128 520 1146 c 0,81,82
 546 1230 546 1230 556 1282 c 0,83,84
 558 1290 558 1290 562 1309 c 128,-1,85
 566 1328 566 1328 568 1338 c 0,86,87
 586 1438 586 1438 586 1518 c 0,88,89
 586 1568 586 1568 566 1604 c 0,90,91
 556 1624 556 1624 500 1656 c 0,92,93
 488 1660 488 1660 456 1675 c 128,-1,94
 424 1690 424 1690 398 1698 c 128,-1,95
 372 1706 372 1706 346 1708 c 0,96,97
 344 1708 344 1708 336 1709 c 128,-1,98
 328 1710 328 1710 326 1710 c 0,99,100
 306 1710 306 1710 292 1708 c 0,101,102
 274 1708 274 1708 268 1702 c 0,103,104
 234 1682 234 1682 203 1665 c 128,-1,105
 172 1648 172 1648 164 1644 c 128,-1,106
 156 1640 156 1640 138 1628 c 128,-1,107
 120 1616 120 1616 107 1606 c 128,-1,108
 94 1596 94 1596 60 1568 c 1,0,-1
EndSplineSet
Validated: 5
EndChar

StartChar: three
Encoding: 51 51 22
Width: 799
GlyphClass: 2
Flags: W
LayerCount: 2
Fore
SplineSet
-100 438 m 1,0,1
 -92 426 -92 426 -80 414 c 0,2,3
 -76 410 -76 410 -71 406 c 128,-1,4
 -66 402 -66 402 -56 392 c 0,5,6
 -44 384 -44 384 0 380 c 0,7,8
 6 380 6 380 17 379 c 128,-1,9
 28 378 28 378 34 378 c 0,10,11
 36 378 36 378 42 379 c 128,-1,12
 48 380 48 380 52 380 c 2,13,-1
 72 380 l 2,14,15
 80 380 80 380 95 384 c 128,-1,16
 110 388 110 388 116 388 c 0,17,18
 164 398 164 398 182 410 c 0,19,20
 206 424 206 424 252 449 c 128,-1,21
 298 474 298 474 322 488 c 0,22,23
 328 492 328 492 341 504 c 128,-1,24
 354 516 354 516 360 520 c 2,25,-1
 396 556 l 2,26,27
 440 604 440 604 464 646 c 0,28,29
 466 650 466 650 470 659 c 128,-1,30
 474 668 474 668 476 672 c 0,31,32
 524 764 524 764 538 816 c 1,33,34
 564 884 564 884 564 962 c 0,35,36
 564 1116 564 1116 440 1226 c 1,37,38
 364 1288 364 1288 226 1316 c 0,39,40
 224 1316 224 1316 219 1318 c 128,-1,41
 214 1320 214 1320 212 1320 c 2,42,-1
 206 1320 l 1,43,44
 166 1280 166 1280 90 1200 c 1,45,-1
 92 1200 l 1,46,47
 116 1206 116 1206 118 1206 c 128,-1,48
 120 1206 120 1206 128 1207 c 128,-1,49
 136 1208 136 1208 140 1210 c 0,50,51
 158 1214 158 1214 190 1223 c 128,-1,52
 222 1232 222 1232 240 1236 c 0,53,54
 278 1248 278 1248 340 1286 c 128,-1,55
 402 1324 402 1324 422 1334 c 0,56,57
 424 1334 424 1334 445 1350 c 128,-1,58
 466 1366 466 1366 471 1370 c 128,-1,59
 476 1374 476 1374 493 1389 c 128,-1,60
 510 1404 510 1404 516 1412 c 128,-1,61
 522 1420 522 1420 533 1434 c 128,-1,62
 544 1448 544 1448 550 1463 c 128,-1,63
 556 1478 556 1478 558 1494 c 2,64,-1
 558 1520 l 2,65,66
 558 1528 558 1528 554 1544 c 0,67,68
 542 1594 542 1594 504 1666 c 0,69,70
 470 1734 470 1734 430 1774 c 0,71,72
 426 1776 426 1776 419 1782 c 128,-1,73
 412 1788 412 1788 408 1790 c 0,74,75
 392 1800 392 1800 367 1808 c 128,-1,76
 342 1816 342 1816 325 1819 c 128,-1,77
 308 1822 308 1822 272 1827 c 128,-1,78
 236 1832 236 1832 226 1834 c 0,79,80
 222 1836 222 1836 216 1836 c 128,-1,81
 210 1836 210 1836 206 1838 c 0,82,83
 204 1838 204 1838 202 1839 c 128,-1,84
 200 1840 200 1840 198 1840 c 0,85,86
 180 1846 180 1846 174 1846 c 1,87,-1
 68 1718 l 1,88,89
 80 1724 80 1724 116 1718 c 0,90,91
 142 1716 142 1716 226 1702 c 0,92,93
 254 1698 254 1698 274 1690 c 0,94,95
 276 1690 276 1690 284 1684 c 2,96,-1
 292 1680 l 2,97,98
 328 1660 328 1660 356 1618 c 0,99,100
 408 1552 408 1552 414 1480 c 1,101,-1
 414 1458 l 2,102,103
 414 1442 414 1442 398 1426 c 2,104,-1
 380 1408 l 2,105,106
 366 1394 366 1394 270 1328 c 1,107,-1
 378 1392 l 2,108,109
 376 1390 376 1390 361 1383 c 128,-1,110
 346 1376 346 1376 326 1367 c 128,-1,111
 306 1358 306 1358 296 1356 c 0,112,113
 238 1342 238 1342 218 1336 c 0,114,115
 212 1334 212 1334 202 1334 c 0,116,117
 196 1332 196 1332 194 1332 c 2,118,-1
 190 1332 l 1,119,120
 86 1210 86 1210 84 1208 c 0,121,122
 82 1204 82 1204 96 1204 c 0,123,124
 102 1202 102 1202 114 1202 c 0,125,126
 204 1188 204 1188 256 1166 c 0,127,128
 402 1110 402 1110 420 944 c 0,129,130
 420 940 420 940 421 934 c 128,-1,131
 422 928 422 928 422 924 c 0,132,133
 422 802 422 802 328 640 c 0,134,135
 326 636 326 636 319 628 c 128,-1,136
 312 620 312 620 310 616 c 0,137,138
 278 570 278 570 262 554 c 0,139,140
 230 522 230 522 206 506 c 1,141,142
 224 516 224 516 248 530 c 1,143,144
 190 506 190 506 154 502 c 0,145,146
 152 502 152 502 144 501 c 128,-1,147
 136 500 136 500 134 500 c 2,148,-1
 108 500 l 1,149,-1
 78 500 l 1,150,151
 78 500 78 500 76 500 c 2,152,-1
 72 502 l 1,153,-1
 66 504 l 1,154,-1
 60 504 l 1,155,156
 42 510 42 510 42 524 c 1,157,-1
 -100 438 l 1,0,1
EndSplineSet
Validated: 5
EndChar

StartChar: four
Encoding: 52 52 23
Width: 799
GlyphClass: 2
Flags: W
LayerCount: 2
Fore
SplineSet
-36 1396 m 0,0,1
 -36 1386 -36 1386 -32 1378 c 128,-1,2
 -28 1370 -28 1370 -16 1365 c 128,-1,3
 -4 1360 -4 1360 1 1358 c 128,-1,4
 6 1356 6 1356 23 1353 c 128,-1,5
 40 1350 40 1350 42 1350 c 0,6,7
 134 1338 134 1338 274 1306 c 0,8,9
 288 1302 288 1302 344 1289 c 128,-1,10
 400 1276 400 1276 428 1266 c 0,11,12
 446 1258 446 1258 446 1244 c 1,13,-1
 442 1232 l 1,14,15
 458 1256 458 1256 570 1342 c 0,16,17
 572 1344 572 1344 571 1346 c 128,-1,18
 570 1348 570 1348 569 1352 c 128,-1,19
 568 1356 568 1356 568 1358 c 128,-1,20
 568 1360 568 1360 567 1363 c 128,-1,21
 566 1366 566 1366 566 1368 c 0,22,23
 564 1372 564 1372 564 1379 c 128,-1,24
 564 1386 564 1386 564 1390 c 0,25,26
 564 1396 564 1396 562 1407 c 128,-1,27
 560 1418 560 1418 560 1424 c 2,28,-1
 560 1438 l 2,29,30
 560 1452 560 1452 562 1484 c 128,-1,31
 564 1516 564 1516 564 1524 c 0,32,33
 564 1548 564 1548 567 1598 c 128,-1,34
 570 1648 570 1648 572 1672 c 0,35,36
 572 1680 572 1680 573 1696 c 128,-1,37
 574 1712 574 1712 574 1718 c 0,38,39
 576 1772 576 1772 592 1876 c 0,40,41
 598 1916 598 1916 604 1926 c 0,42,43
 606 1926 606 1926 608 1924 c 1,44,45
 598 1922 598 1922 539 1907 c 128,-1,46
 480 1892 480 1892 450 1878 c 1,47,-1
 450 1854 l 2,48,49
 450 1830 450 1830 451 1816 c 128,-1,50
 452 1802 452 1802 453 1797 c 128,-1,51
 454 1792 454 1792 454 1788 c 2,52,-1
 454 1716 l 1,53,54
 450 1630 450 1630 449 1628 c 128,-1,55
 448 1626 448 1626 444 1540 c 0,56,57
 442 1514 442 1514 439 1458 c 128,-1,58
 436 1402 436 1402 434 1376 c 0,59,60
 418 1158 418 1158 360 894 c 0,61,62
 324 734 324 734 318 646 c 0,63,64
 318 640 318 640 317 624 c 128,-1,65
 316 608 316 608 316 602 c 2,66,-1
 316 480 l 2,67,68
 316 474 316 474 317 449 c 128,-1,69
 318 424 318 424 318 416 c 2,70,-1
 318 366 l 2,71,72
 318 350 318 350 320 327 c 128,-1,73
 322 304 322 304 322 298 c 2,74,-1
 322 286 l 2,75,76
 324 286 324 286 398 315 c 128,-1,77
 472 344 472 344 472 346 c 128,-1,78
 472 348 472 348 471 351 c 128,-1,79
 470 354 470 354 470 356 c 0,80,81
 468 366 468 366 466 389 c 128,-1,82
 464 412 464 412 464 422 c 0,83,84
 464 426 464 426 463 433 c 128,-1,85
 462 440 462 440 462 444 c 2,86,-1
 462 472 l 2,87,88
 460 496 460 496 458 536 c 0,89,90
 458 542 458 542 457 553 c 128,-1,91
 456 564 456 564 456 570 c 2,92,-1
 456 652 l 2,93,94
 456 670 456 670 460 694 c 0,95,96
 462 710 462 710 464 732 c 128,-1,97
 466 754 466 754 468 772 c 0,98,99
 472 804 472 804 484 862 c 128,-1,100
 496 920 496 920 500 936 c 0,101,102
 544 1218 544 1218 550 1282 c 0,103,104
 552 1312 552 1312 558 1488 c 128,-1,105
 564 1664 564 1664 572 1758 c 1,106,107
 584 1844 584 1844 598 1906 c 0,108,109
 598 1908 598 1908 602 1916 c 128,-1,110
 606 1924 606 1924 608 1927 c 128,-1,111
 610 1930 610 1930 606 1932 c 0,112,113
 578 1930 578 1930 444 1894 c 0,114,115
 442 1894 442 1894 445 1889 c 128,-1,116
 448 1884 448 1884 444 1884 c 1,117,-1
 444 1878 l 1,118,-1
 442 1870 l 1,119,-1
 442 1850 l 2,120,121
 442 1832 442 1832 440 1824 c 2,122,-1
 440 1712 l 2,123,124
 440 1704 440 1704 439 1690 c 128,-1,125
 438 1676 438 1676 438 1668 c 128,-1,126
 438 1660 438 1660 437 1644 c 128,-1,127
 436 1628 436 1628 436 1622 c 0,128,129
 432 1444 432 1444 416 1334 c 0,130,131
 416 1332 416 1332 416 1324 c 128,-1,132
 416 1316 416 1316 414 1314 c 0,133,134
 414 1306 414 1306 412 1306 c 128,-1,135
 410 1306 410 1306 408 1308 c 128,-1,136
 406 1310 406 1310 408 1312 c 0,137,138
 450 1342 450 1342 538 1394 c 1,139,-1
 544 1388 l 1,140,-1
 542 1384 l 1,141,-1
 526 1384 l 2,142,143
 524 1384 524 1384 518.5 1387 c 128,-1,144
 513 1390 513 1390 508 1390 c 0,145,146
 468 1398 468 1398 332 1422 c 128,-1,147
 196 1446 196 1446 128 1464 c 0,148,149
 126 1464 126 1464 122 1465 c 128,-1,150
 118 1466 118 1466 116 1466 c 2,151,-1
 114 1464 l 2,152,153
 114 1460 114 1460 120 1454 c 1,154,-1
 120 1482 l 1,155,156
 120 1482 120 1482 120 1484 c 2,157,-1
 118 1488 l 1,158,-1
 118 1544 l 1,159,-1
 118 1612 l 1,160,161
 126 1744 126 1744 128 1808 c 2,162,-1
 134 1904 l 1,163,-1
 96 1890 l 2,164,165
 56 1876 56 1876 18 1860 c 2,166,-1
 -20 1844 l 2,167,168
 -20 1840 -20 1840 -19 1832 c 128,-1,169
 -18 1824 -18 1824 -18 1818 c 2,170,-1
 -18 1704 l 2,171,172
 -18 1686 -18 1686 -23 1653 c 128,-1,173
 -28 1620 -28 1620 -28 1606 c 0,174,175
 -28 1594 -28 1594 -28 1572 c 128,-1,176
 -28 1550 -28 1550 -30 1538 c 0,177,178
 -30 1536 -30 1536 -31 1530 c 128,-1,179
 -32 1524 -32 1524 -32 1520 c 0,180,181
 -32 1514 -32 1514 -33 1505 c 128,-1,182
 -34 1496 -34 1496 -34 1490 c 2,183,-1
 -34 1432 l 2,184,185
 -36 1422 -36 1422 -36 1396 c 0,0,1
EndSplineSet
Validated: 5
EndChar

StartChar: five
Encoding: 53 53 24
Width: 799
GlyphClass: 2
Flags: W
LayerCount: 2
Fore
SplineSet
-12 544 m 1,0,1
 40 456 40 456 94 432 c 0,2,3
 104 426 104 426 125 415 c 128,-1,4
 146 404 146 404 164 396 c 128,-1,5
 182 388 182 388 198 384 c 0,6,7
 246 372 246 372 292 372 c 2,8,-1
 302 372 l 2,9,10
 308 372 308 372 325 373 c 128,-1,11
 342 374 342 374 352 376 c 0,12,13
 406 386 406 386 450 402 c 0,14,15
 456 406 456 406 497 428 c 128,-1,16
 538 450 538 450 554 460 c 128,-1,17
 570 470 570 470 601 490 c 128,-1,18
 632 510 632 510 653 529 c 128,-1,19
 674 548 674 548 690 570 c 0,20,21
 724 626 724 626 726 634 c 128,-1,22
 728 642 728 642 737 664 c 128,-1,23
 746 686 746 686 750 700 c 0,24,25
 764 780 764 780 766 846 c 2,26,-1
 766 854 l 1,27,-1
 766 882 l 2,28,29
 766 896 766 896 762 921 c 128,-1,30
 758 946 758 946 758 956 c 0,31,32
 732 1126 732 1126 728 1186 c 0,33,34
 728 1194 728 1194 727 1210 c 128,-1,35
 726 1226 726 1226 726 1234 c 0,36,37
 726 1248 726 1248 726 1263 c 128,-1,38
 726 1278 726 1278 725 1294 c 128,-1,39
 724 1310 724 1310 722 1323 c 128,-1,40
 720 1336 720 1336 713 1346 c 128,-1,41
 706 1356 706 1356 694 1360 c 1,42,-1
 692 1360 l 2,43,44
 690 1360 690 1360 684 1362 c 128,-1,45
 678 1364 678 1364 676 1362 c 0,46,47
 624 1374 624 1374 590 1374 c 0,48,49
 468 1380 468 1380 344 1380 c 2,50,-1
 342 1380 l 2,51,52
 292 1380 292 1380 266 1378 c 0,53,54
 262 1378 262 1378 253 1376 c 128,-1,55
 244 1374 244 1374 240 1374 c 128,-1,56
 236 1374 236 1374 230 1373 c 128,-1,57
 224 1372 224 1372 220 1372 c 0,58,59
 212 1372 212 1372 210 1371 c 128,-1,60
 208 1370 208 1370 214 1364 c 0,61,62
 218 1360 218 1360 225 1349 c 128,-1,63
 232 1338 232 1338 236 1332 c 1,64,-1
 236 1348 l 2,65,66
 236 1358 236 1358 234 1378 c 128,-1,67
 232 1398 232 1398 232 1408 c 2,68,-1
 232 1420 l 2,69,70
 232 1428 232 1428 231 1442 c 128,-1,71
 230 1456 230 1456 230 1462 c 0,72,73
 230 1476 230 1476 231 1490 c 128,-1,74
 232 1504 232 1504 234 1521 c 128,-1,75
 236 1538 236 1538 236 1548 c 1,76,-1
 238 1552 l 1,77,-1
 240 1556 l 1,78,-1
 242 1554 l 2,79,80
 244 1556 244 1556 240 1564 c 1,81,-1
 240 1566 l 2,82,83
 240 1580 240 1580 228 1622 c 2,84,-1
 222 1646 l 1,85,-1
 216 1676 l 2,86,87
 202 1756 202 1756 176 1848 c 0,88,89
 166 1894 166 1894 158 1912 c 0,90,91
 156 1914 156 1914 152 1918 c 128,-1,92
 148 1922 148 1922 148 1924 c 2,93,-1
 146 1928 l 1,94,-1
 144 1932 l 2,95,96
 146 1930 146 1930 152 1921 c 128,-1,97
 158 1912 158 1912 160 1908 c 128,-1,98
 162 1904 162 1904 156 1896 c 0,99,100
 134 1880 134 1880 79 1852 c 128,-1,101
 24 1824 24 1824 16 1824 c 2,102,-1
 20 1826 l 1,103,-1
 26 1832 l 2,104,105
 28 1832 28 1832 32 1833 c 128,-1,106
 36 1834 36 1834 38 1834 c 2,107,-1
 56 1834 l 2,108,109
 60 1834 60 1834 70 1835 c 128,-1,110
 80 1836 80 1836 84 1836 c 2,111,-1
 120 1836 l 2,112,113
 226 1836 226 1836 356 1826 c 0,114,115
 384 1824 384 1824 416 1818 c 128,-1,116
 448 1812 448 1812 466 1810 c 0,117,118
 472 1810 472 1810 483 1809 c 128,-1,119
 494 1808 494 1808 500 1806 c 0,120,121
 504 1806 504 1806 510 1804 c 128,-1,122
 516 1802 516 1802 518 1802 c 2,123,-1
 630 1922 l 1,124,-1
 566 1922 l 2,125,126
 372 1922 372 1922 134 1954 c 1,127,128
 108 1964 108 1964 96 1964 c 0,129,130
 90 1964 90 1964 85 1962 c 128,-1,131
 80 1960 80 1960 71 1953 c 128,-1,132
 62 1946 62 1946 53 1939 c 128,-1,133
 44 1932 44 1932 26 1916 c 128,-1,134
 8 1900 8 1900 -10 1886 c 0,135,136
 -18 1880 -18 1880 -7 1860 c 128,-1,137
 4 1840 4 1840 14 1834 c 0,138,139
 26 1820 26 1820 40 1782 c 0,140,141
 86 1674 86 1674 86 1542 c 2,142,-1
 86 1518 l 2,143,144
 88 1516 88 1516 84 1510 c 0,145,146
 80 1510 80 1510 80 1516 c 1,147,148
 80 1514 80 1514 80 1504 c 2,149,-1
 82 1494 l 1,150,151
 86 1434 86 1434 86 1404 c 0,152,153
 86 1398 86 1398 85 1384 c 128,-1,154
 84 1370 84 1370 84 1364 c 2,155,-1
 84 1330 l 2,156,157
 84 1328 84 1328 83 1323 c 128,-1,158
 82 1318 82 1318 82 1316 c 2,159,-1
 82 1288 l 2,160,161
 80 1266 80 1266 84 1264 c 0,162,163
 98 1246 98 1246 104 1238 c 1,164,165
 112 1234 112 1234 118 1234 c 0,166,167
 120 1234 120 1234 122 1237 c 128,-1,168
 124 1240 124 1240 126 1240 c 128,-1,169
 128 1240 128 1240 134 1244 c 128,-1,170
 140 1248 140 1248 144 1248 c 128,-1,171
 148 1248 148 1248 157 1250 c 128,-1,172
 166 1252 166 1252 170 1254 c 0,173,174
 226 1266 226 1266 248 1268 c 0,175,176
 256 1268 256 1268 272 1269 c 128,-1,177
 288 1270 288 1270 294 1270 c 2,178,-1
 338 1270 l 2,179,180
 428 1270 428 1270 484 1262 c 0,181,182
 490 1260 490 1260 513 1257 c 128,-1,183
 536 1254 536 1254 546 1250 c 0,184,185
 556 1248 556 1248 552 1248 c 1,186,187
 554 1246 554 1246 558 1246 c 0,188,189
 560 1246 560 1246 564 1244 c 0,190,191
 564 1242 564 1242 566 1242 c 2,192,-1
 570 1242 l 2,193,194
 572 1242 572 1242 575 1241 c 128,-1,195
 578 1240 578 1240 580 1240 c 2,196,-1
 582 1240 l 1,197,198
 582 1244 582 1244 570 1256 c 1,199,200
 588 1200 588 1200 594 1132 c 0,201,202
 602 1054 602 1054 614 898 c 1,203,-1
 614 876 l 2,204,205
 614 872 614 872 615 866 c 128,-1,206
 616 860 616 860 616 858 c 2,207,-1
 616 788 l 2,208,209
 616 632 616 632 538 546 c 0,210,211
 510 516 510 516 458 488 c 1,212,213
 470 496 470 496 495 510 c 128,-1,214
 520 524 520 524 532 532 c 1,215,216
 494 510 494 510 400 492 c 0,217,218
 398 492 398 492 376 490 c 128,-1,219
 354 488 354 488 352 488 c 128,-1,220
 350 488 350 488 328 492 c 2,221,-1
 306 494 l 1,222,223
 220 512 220 512 160 574 c 0,224,225
 158 576 158 576 152 582 c 128,-1,226
 146 588 146 588 144 592 c 0,227,228
 142 594 142 594 138 603 c 128,-1,229
 134 612 134 612 130 619 c 128,-1,230
 126 626 126 626 124 626 c 2,231,-1
 -12 544 l 1,0,1
EndSplineSet
Validated: 5
EndChar

StartChar: six
Encoding: 54 54 25
Width: 799
GlyphClass: 2
Flags: W
LayerCount: 2
Fore
SplineSet
88 1208 m 0,0,1
 88 1204 88 1204 89 1192 c 128,-1,2
 90 1180 90 1180 90 1176 c 0,3,4
 98 1066 98 1066 118 956 c 128,-1,5
 138 846 138 846 171 712 c 128,-1,6
 204 578 204 578 218 510 c 0,7,8
 218 492 218 492 240 470 c 0,9,10
 242 468 242 468 244 468 c 2,11,-1
 250 468 l 2,12,13
 258 466 258 466 277 463 c 128,-1,14
 296 460 296 460 304 458 c 2,15,-1
 322 458 l 2,16,17
 324 458 324 458 329 457 c 128,-1,18
 334 456 334 456 336 456 c 0,19,20
 340 456 340 456 352 457 c 128,-1,21
 364 458 364 458 368 458 c 128,-1,22
 372 458 372 458 382 459 c 128,-1,23
 392 460 392 460 396 460 c 0,24,25
 414 462 414 462 470 470 c 0,26,27
 496 474 496 474 522 486 c 128,-1,28
 548 498 548 498 565 509 c 128,-1,29
 582 520 582 520 612 542 c 128,-1,30
 642 564 642 564 656 574 c 0,31,32
 706 624 706 624 730 726 c 0,33,34
 734 758 734 758 734 778 c 0,35,36
 734 912 734 912 692 990 c 1,37,38
 686 1012 686 1012 646 1062 c 1,39,40
 614 1088 614 1088 608 1092 c 128,-1,41
 602 1096 602 1096 583 1104 c 128,-1,42
 564 1112 564 1112 560 1114 c 0,43,44
 484 1148 484 1148 416 1148 c 2,45,-1
 396 1148 l 2,46,47
 392 1148 392 1148 386 1147 c 128,-1,48
 380 1146 380 1146 376 1146 c 0,49,50
 338 1140 338 1140 294 1122 c 0,51,52
 292 1120 292 1120 290 1120 c 128,-1,53
 288 1120 288 1120 286 1118 c 2,54,-1
 196 966 l 2,55,56
 196 968 196 968 200 968 c 128,-1,57
 204 968 204 968 204 970 c 0,58,59
 282 1018 282 1018 350 1018 c 0,60,61
 376 1018 376 1018 400 1012 c 0,62,63
 472 994 472 994 516 958 c 1,64,65
 574 900 574 900 574 830 c 0,66,67
 574 824 574 824 579 805 c 128,-1,68
 584 786 584 786 584 776 c 0,69,70
 584 772 584 772 585 766 c 128,-1,71
 586 760 586 760 586 758 c 2,72,-1
 586 748 l 2,73,74
 586 706 586 706 542 608 c 1,75,76
 520 574 520 574 496 564 c 1,77,78
 516 576 516 576 602 634 c 1,79,80
 552 592 552 592 414 592 c 0,81,82
 380 592 380 592 360 602 c 1,83,-1
 358 600 l 2,84,85
 360 598 360 598 362 594 c 128,-1,86
 364 590 364 590 366 588 c 0,87,88
 368 588 368 588 368 584 c 128,-1,89
 368 580 368 580 370 580 c 1,90,91
 366 596 366 596 356 626 c 128,-1,92
 346 656 346 656 342 670 c 0,93,94
 340 686 340 686 332 712 c 128,-1,95
 324 738 324 738 318 760 c 2,96,-1
 312 784 l 2,97,98
 292 864 292 864 284 902 c 0,99,100
 282 912 282 912 279 932 c 128,-1,101
 276 952 276 952 274 962 c 2,102,-1
 268 986 l 2,103,104
 260 1032 260 1032 242 1150 c 0,105,106
 240 1158 240 1158 238 1177 c 128,-1,107
 236 1196 236 1196 236 1206 c 0,108,109
 232 1238 232 1238 232 1256 c 0,110,111
 232 1334 232 1334 260 1470 c 0,112,113
 302 1688 302 1688 380 1806 c 0,114,115
 402 1840 402 1840 418 1846 c 2,116,-1
 314 1780 l 1,117,118
 340 1806 340 1806 376 1806 c 2,119,-1
 398 1806 l 1,120,121
 440 1802 440 1802 474 1760 c 0,122,123
 492 1740 492 1740 498 1729 c 128,-1,124
 504 1718 504 1718 506 1707 c 128,-1,125
 508 1696 508 1696 513 1688 c 0,126,127
 513 1684 513 1684 514.5 1678 c 128,-1,128
 516 1672 516 1672 516 1670 c 0,129,130
 552 1554 552 1554 552 1492 c 0,131,132
 552 1474 552 1474 552 1469 c 128,-1,133
 552 1464 552 1464 554 1450 c 0,134,135
 556 1450 556 1450 631 1486 c 128,-1,136
 706 1522 706 1522 706 1524 c 0,137,138
 706 1554 706 1554 689 1622 c 128,-1,139
 672 1690 672 1690 670 1700 c 0,140,141
 660 1804 660 1804 584 1888 c 1,142,143
 526 1940 526 1940 452 1940 c 0,144,145
 448 1940 448 1940 440 1939 c 128,-1,146
 432 1938 432 1938 430 1938 c 0,147,148
 426 1936 426 1936 416 1934 c 128,-1,149
 406 1932 406 1932 402 1932 c 0,150,151
 376 1916 376 1916 345 1898 c 128,-1,152
 314 1880 314 1880 303 1873 c 128,-1,153
 292 1866 292 1866 275 1852 c 128,-1,154
 258 1838 258 1838 247 1822 c 128,-1,155
 236 1806 236 1806 222 1778 c 0,156,157
 198 1732 198 1732 162 1594 c 0,158,159
 120 1438 120 1438 94 1282 c 1,160,161
 94 1254 94 1254 92 1242 c 0,162,163
 92 1236 92 1236 90 1225 c 128,-1,164
 88 1214 88 1214 88 1208 c 0,0,1
EndSplineSet
Validated: 5
EndChar

StartChar: seven
Encoding: 55 55 26
Width: 799
GlyphClass: 2
Flags: W
LayerCount: 2
Fore
SplineSet
-20 1474 m 1,0,-1
 20 1476 l 2,1,2
 60 1480 60 1480 100 1484 c 2,3,-1
 142 1488 l 2,4,5
 146 1492 146 1492 155 1503 c 128,-1,6
 164 1514 164 1514 168 1518 c 0,7,8
 204 1556 204 1556 308 1682 c 0,9,10
 314 1692 314 1692 323 1702 c 128,-1,11
 332 1712 332 1712 338 1721 c 128,-1,12
 344 1730 344 1730 350 1742 c 0,13,14
 364 1766 364 1766 382 1808 c 0,15,16
 386 1808 386 1808 393 1807 c 128,-1,17
 400 1806 400 1806 404 1806 c 2,18,-1
 424 1806 l 2,19,20
 430 1806 430 1806 440 1804 c 128,-1,21
 450 1802 450 1802 454 1802 c 2,22,-1
 468 1802 l 2,23,24
 474 1802 474 1802 487 1800 c 128,-1,25
 500 1798 500 1798 506 1798 c 0,26,27
 514 1798 514 1798 545 1796 c 128,-1,28
 576 1794 576 1794 592 1794 c 0,29,30
 598 1792 598 1792 613 1794 c 128,-1,31
 628 1796 628 1796 632 1796 c 0,32,33
 640 1796 640 1796 638 1794 c 2,34,-1
 648 1794 l 1,35,-1
 656 1794 l 1,36,-1
 660 1796 l 2,37,38
 664 1796 664 1796 666 1796 c 128,-1,39
 668 1796 668 1796 672 1795 c 128,-1,40
 676 1794 676 1794 680 1794 c 2,41,-1
 696 1794 l 1,42,43
 692 1790 692 1790 686 1780 c 128,-1,44
 680 1770 680 1770 676 1764 c 0,45,46
 638 1710 638 1710 630 1696 c 128,-1,47
 622 1682 622 1682 602 1656 c 128,-1,48
 582 1630 582 1630 572 1612 c 0,49,50
 568 1604 568 1604 560 1587 c 128,-1,51
 552 1570 552 1570 546 1562 c 0,52,53
 444 1372 444 1372 388 1242 c 0,54,55
 360 1178 360 1178 350 1144 c 0,56,57
 348 1144 348 1144 343 1146 c 128,-1,58
 338 1148 338 1148 334 1149 c 128,-1,59
 330 1150 330 1150 326 1150 c 2,60,-1
 216 1026 l 1,61,62
 270 1032 270 1032 296 1032 c 2,63,-1
 324 1032 l 1,64,65
 308 952 308 952 289 801 c 128,-1,66
 270 650 270 650 262 596 c 0,67,68
 260 574 260 574 252 530 c 128,-1,69
 244 486 244 486 240 464 c 1,70,-1
 278 476 l 2,71,72
 316 490 316 490 356 504 c 2,73,-1
 394 518 l 1,74,-1
 394 562 l 2,75,76
 394 568 394 568 400 610 c 0,77,78
 402 634 402 634 407 687 c 128,-1,79
 412 740 412 740 416 766 c 0,80,81
 420 798 420 798 428 862 c 0,82,83
 428 868 428 868 437 929 c 128,-1,84
 446 990 446 990 452 1020 c 1,85,86
 462 1018 462 1018 482 1016 c 128,-1,87
 502 1014 502 1014 513 1012 c 0,88,89
 517 1012 517 1012 539.5 1004 c 128,-1,90
 562 996 562 996 572 996 c 0,91,92
 574 996 574 996 630 1051 c 128,-1,93
 686 1106 686 1106 686 1108 c 128,-1,94
 686 1110 686 1110 653 1114 c 128,-1,95
 620 1118 620 1118 614 1118 c 0,96,97
 592 1120 592 1120 547 1125 c 128,-1,98
 502 1130 502 1130 478 1132 c 1,99,100
 484 1162 484 1162 502 1209 c 128,-1,101
 520 1256 520 1256 526 1276 c 0,102,103
 590 1440 590 1440 682 1586 c 0,104,105
 764 1710 764 1710 802 1756 c 0,106,107
 830 1788 830 1788 848 1806 c 0,108,109
 884 1842 884 1842 888 1866 c 0,110,111
 886 1876 886 1876 884 1886 c 0,112,113
 884 1888 884 1888 883 1888 c 128,-1,114
 882 1888 882 1888 882 1890 c 2,115,116
 882 1890 882 1890 880 1892 c 0,117,118
 880 1896 880 1896 878 1896 c 0,119,120
 872 1906 872 1906 864 1914 c 2,121,-1
 860 1918 l 1,122,-1
 858 1918 l 1,123,-1
 842 1918 l 1,124,-1
 602 1918 l 2,125,126
 590 1918 590 1918 590 1919 c 128,-1,127
 590 1920 590 1920 578 1920 c 0,128,129
 576 1920 576 1920 570 1921 c 128,-1,130
 564 1922 564 1922 562 1922 c 0,131,132
 554 1922 554 1922 530 1924 c 2,133,-1
 514 1924 l 2,134,135
 460 1924 460 1924 424 1934 c 0,136,137
 416 1936 416 1936 412 1936 c 2,138,-1
 410 1936 l 1,139,-1
 410 1934 l 1,140,141
 360 1908 360 1908 260 1860 c 1,142,-1
 258 1862 l 1,143,-1
 258 1854 l 2,144,145
 258 1822 258 1822 214 1740 c 0,146,147
 194 1700 194 1700 138 1628 c 0,148,149
 134 1624 134 1624 125 1611 c 128,-1,150
 116 1598 116 1598 110 1592 c 0,151,152
 52 1528 52 1528 -20 1474 c 1,0,-1
258 1862 m 1,153,-1
 258 1864 l 1,154,-1
 258 1862 l 1,153,-1
EndSplineSet
Validated: 5
EndChar

StartChar: eight
Encoding: 56 56 27
Width: 799
GlyphClass: 2
Flags: W
LayerCount: 2
Fore
SplineSet
114 524 m 2,0,1
 114 484 114 484 124 452 c 2,2,-1
 130 438 l 1,3,-1
 136 424 l 1,4,5
 166 368 166 368 196 348 c 0,6,7
 212 336 212 336 252 324 c 0,8,9
 254 324 254 324 258 321 c 128,-1,10
 262 318 262 318 266 318 c 0,11,12
 276 316 276 316 300 314 c 128,-1,13
 324 312 324 312 326 312 c 0,14,15
 330 312 330 312 337 311 c 128,-1,16
 344 310 344 310 348 310 c 128,-1,17
 352 310 352 310 361 309 c 128,-1,18
 370 308 370 308 374 308 c 2,19,-1
 428 308 l 2,20,21
 488 308 488 308 520 310 c 0,22,23
 524 310 524 310 532 311 c 128,-1,24
 540 312 540 312 542 312 c 0,25,26
 560 314 560 314 591 322 c 128,-1,27
 622 330 622 330 634 332 c 0,28,29
 638 334 638 334 646 336 c 0,30,31
 684 346 684 346 722 372 c 0,32,33
 760 396 760 396 792 418 c 0,34,35
 810 430 810 430 818 456 c 0,36,37
 826 474 826 474 834 506 c 0,38,39
 836 512 836 512 838 523 c 128,-1,40
 840 534 840 534 840 538 c 0,41,42
 844 568 844 568 846 645 c 128,-1,43
 848 722 848 722 854 762 c 1,44,45
 850 804 850 804 848 810 c 0,46,47
 844 824 844 824 837 841 c 128,-1,48
 830 858 830 858 826 868 c 0,49,50
 818 886 818 886 814 895 c 128,-1,51
 810 904 810 904 808 909 c 128,-1,52
 806 914 806 914 805 917 c 128,-1,53
 804 920 804 920 798 931 c 128,-1,54
 792 942 792 942 784 962 c 0,55,56
 780 972 780 972 772 993 c 128,-1,57
 764 1014 764 1014 760 1024 c 0,58,59
 710 1132 710 1132 700 1160 c 0,60,61
 700 1162 700 1162 692 1187 c 128,-1,62
 684 1212 684 1212 680 1222 c 128,-1,63
 676 1232 676 1232 652 1264 c 0,64,65
 594 1358 594 1358 538 1414 c 0,66,67
 520 1434 520 1434 478 1468 c 128,-1,68
 436 1502 436 1502 418 1520 c 0,69,70
 400 1540 400 1540 394 1546 c 0,71,72
 392 1548 392 1548 392 1552 c 256,73,74
 392 1556 392 1556 390 1556 c 0,75,76
 374 1572 374 1572 362 1616 c 128,-1,77
 350 1660 350 1660 350 1696 c 0,78,79
 350 1770 350 1770 400 1834 c 0,80,81
 422 1860 422 1860 436 1864 c 1,82,83
 416 1852 416 1852 376 1829 c 128,-1,84
 336 1806 336 1806 316 1794 c 1,85,86
 318 1798 318 1798 328 1804 c 128,-1,87
 338 1810 338 1810 340 1812 c 2,88,-1
 380 1812 l 2,89,90
 396 1812 396 1812 408 1804 c 1,91,-1
 410 1804 l 2,92,93
 412 1802 412 1802 414 1802 c 256,94,95
 416 1802 416 1802 420 1800 c 0,96,97
 426 1796 426 1796 462 1772 c 0,98,99
 486 1756 486 1756 494 1740 c 0,100,101
 496 1740 496 1740 565 1783 c 128,-1,102
 634 1826 634 1826 634 1828 c 128,-1,103
 634 1830 634 1830 625 1836 c 128,-1,104
 616 1842 616 1842 616 1844 c 0,105,106
 614 1846 614 1846 610 1852 c 0,107,108
 604 1860 604 1860 587 1872 c 128,-1,109
 570 1884 570 1884 562 1892 c 0,110,111
 532 1922 532 1922 450 1934 c 0,112,113
 432 1938 432 1938 422 1936 c 0,114,115
 420 1936 420 1936 412 1934 c 2,116,-1
 404 1932 l 1,117,-1
 272 1854 l 2,118,119
 262 1844 262 1844 240 1804 c 0,120,121
 202 1746 202 1746 202 1694 c 2,122,-1
 200 1666 l 1,123,-1
 200 1668 l 1,124,-1
 200 1638 l 2,125,126
 200 1636 200 1636 201 1632 c 128,-1,127
 202 1628 202 1628 202 1626 c 0,128,129
 212 1556 212 1556 218 1546 c 0,130,131
 220 1536 220 1536 228 1518 c 128,-1,132
 236 1500 236 1500 238 1496 c 2,133,-1
 248 1476 l 2,134,135
 250 1472 250 1472 256 1465 c 128,-1,136
 262 1458 262 1458 264 1454 c 0,137,138
 276 1436 276 1436 294 1418 c 0,139,140
 314 1398 314 1398 363 1357 c 128,-1,141
 412 1316 412 1316 434 1294 c 0,142,143
 464 1264 464 1264 520 1184 c 0,144,145
 526 1178 526 1178 535 1162 c 128,-1,146
 544 1146 544 1146 546 1142 c 0,147,148
 550 1134 550 1134 562 1119 c 128,-1,149
 574 1104 574 1104 580 1096 c 0,150,151
 602 1060 602 1060 668 900 c 1,152,153
 700 786 700 786 702 770 c 0,154,155
 708 746 708 746 708 744 c 2,156,-1
 708 706 l 1,157,158
 712 654 712 654 712 630 c 0,159,160
 712 558 712 558 688 462 c 1,161,162
 674 428 674 428 648 414 c 2,163,-1
 634 408 l 2,164,165
 644 414 644 414 677 435 c 128,-1,166
 710 456 710 456 724 462 c 1,167,168
 664 426 664 426 492 426 c 2,169,-1
 456 426 l 2,170,171
 436 426 436 426 366 436 c 0,172,173
 340 440 340 440 318 452 c 0,174,175
 262 492 262 492 262 568 c 0,176,177
 262 572 262 572 263 582 c 128,-1,178
 264 592 264 592 264 596 c 0,179,180
 266 622 266 622 277 650 c 128,-1,181
 288 678 288 678 299 694 c 128,-1,182
 310 710 310 710 331 738 c 128,-1,183
 352 766 352 766 358 776 c 0,184,185
 380 808 380 808 411 850 c 128,-1,186
 442 892 442 892 455 911 c 128,-1,187
 468 930 468 930 488 960 c 128,-1,188
 508 990 508 990 525 1018 c 128,-1,189
 542 1046 542 1046 564 1086 c 0,190,191
 572 1104 572 1104 599 1153 c 128,-1,192
 626 1202 626 1202 636 1222 c 0,193,194
 662 1268 662 1268 672 1352 c 0,195,196
 672 1354 672 1354 674 1359 c 128,-1,197
 676 1364 676 1364 676 1366 c 0,198,199
 676 1374 676 1374 678 1391 c 128,-1,200
 680 1408 680 1408 680 1416 c 2,201,-1
 680 1554 l 1,202,203
 676 1656 676 1656 670 1702 c 0,204,205
 666 1746 666 1746 642 1804 c 0,206,207
 640 1808 640 1808 637 1819 c 128,-1,208
 634 1830 634 1830 632 1834 c 0,209,210
 632 1836 632 1836 628 1840 c 128,-1,211
 624 1844 624 1844 624 1846 c 0,212,213
 622 1850 622 1850 617 1863 c 128,-1,214
 612 1876 612 1876 608 1880 c 0,215,216
 604 1888 604 1888 595 1903 c 128,-1,217
 586 1918 586 1918 582 1924 c 2,218,-1
 580 1926 l 1,219,-1
 580 1928 l 1,220,-1
 438 1840 l 1,221,-1
 440 1838 l 1,222,-1
 442 1836 l 1,223,-1
 450 1828 l 1,224,-1
 454 1824 l 2,225,226
 456 1820 456 1820 469 1796 c 128,-1,227
 482 1772 482 1772 488 1758 c 128,-1,228
 494 1744 494 1744 502 1716 c 128,-1,229
 510 1688 510 1688 516 1674 c 0,230,231
 520 1660 520 1660 524 1640 c 0,232,233
 524 1630 524 1630 526 1609 c 128,-1,234
 528 1588 528 1588 530 1578 c 0,235,236
 530 1574 530 1574 531 1565 c 128,-1,237
 532 1556 532 1556 532 1552 c 0,238,239
 532 1532 532 1532 536 1500 c 1,240,-1
 536 1448 l 2,241,242
 536 1438 536 1438 532 1409 c 128,-1,243
 528 1380 528 1380 528 1364 c 0,244,245
 528 1358 528 1358 526 1347 c 128,-1,246
 524 1336 524 1336 524 1332 c 0,247,248
 522 1324 522 1324 518 1305 c 0,249,250
 515 1286 515 1286 513 1276 c 0,251,252
 509 1264 509 1264 508.5 1262 c 128,-1,253
 508 1260 508 1260 506 1246 c 0,254,255
 488 1204 488 1204 482 1188 c 0,256,257
 474 1172 474 1172 458 1139 c 128,-1,258
 442 1106 442 1106 434 1090 c 0,259,260
 376 988 376 988 358 964 c 0,261,262
 334 928 334 928 283 858 c 128,-1,263
 232 788 232 788 208 752 c 0,264,265
 206 748 206 748 186 722 c 128,-1,266
 166 696 166 696 158 680 c 0,267,268
 118 608 118 608 114 542 c 1,269,-1
 114 524 l 2,0,1
EndSplineSet
Validated: 5
EndChar

StartChar: nine
Encoding: 57 57 28
Width: 799
GlyphClass: 2
Flags: W
LayerCount: 2
Fore
SplineSet
-10 1510 m 0,0,1
 -2 1450 -2 1450 60 1412 c 1,2,3
 122 1350 122 1350 248 1350 c 0,4,5
 252 1350 252 1350 261 1351 c 128,-1,6
 270 1352 270 1352 274 1352 c 0,7,8
 348 1370 348 1370 350 1372 c 0,9,10
 362 1378 362 1378 390 1392 c 128,-1,11
 418 1406 418 1406 434 1415 c 128,-1,12
 450 1424 450 1424 472 1438 c 128,-1,13
 494 1452 494 1452 509 1468 c 128,-1,14
 524 1484 524 1484 536 1504 c 0,15,16
 610 1604 610 1604 690 1734 c 0,17,18
 702 1752 702 1752 712 1784 c 0,19,20
 712 1786 712 1786 713 1793 c 128,-1,21
 714 1800 714 1800 714 1802 c 0,22,23
 712 1816 712 1816 702 1832 c 128,-1,24
 692 1848 692 1848 682 1846 c 0,25,26
 598 1820 598 1820 580 1806 c 128,-1,27
 562 1792 562 1792 542 1748 c 0,28,29
 522 1702 522 1702 518 1690 c 0,30,31
 516 1684 516 1684 514.5 1672 c 128,-1,32
 513 1660 513 1660 510 1654 c 0,33,34
 510 1652 510 1652 492 1579 c 128,-1,35
 474 1506 474 1506 454 1420 c 128,-1,36
 434 1334 434 1334 426 1276 c 2,37,-1
 400 1138 l 2,38,39
 392 1086 392 1086 390 1070 c 0,40,41
 388 1058 388 1058 386 1035 c 128,-1,42
 384 1012 384 1012 384 1000 c 0,43,44
 380 956 380 956 371 874 c 128,-1,45
 362 792 362 792 358 748 c 0,46,47
 356 724 356 724 350 676 c 128,-1,48
 344 628 344 628 342 604 c 0,49,50
 340 600 340 600 340 588 c 128,-1,51
 340 576 340 576 338 570 c 0,52,53
 328 482 328 482 328 456 c 128,-1,54
 328 430 328 430 330 416 c 2,55,-1
 332 404 l 2,56,57
 332 400 332 400 334 392 c 128,-1,58
 336 384 336 384 336 380 c 2,59,-1
 336 374 l 2,60,61
 336 368 336 368 336 366 c 2,62,63
 336 366 336 366 336 364 c 256,64,65
 336 362 336 362 338 358 c 0,66,67
 338 348 338 348 340 348 c 128,-1,68
 342 348 342 348 417 380 c 128,-1,69
 492 412 492 412 492 414 c 128,-1,70
 492 416 492 416 491 418 c 128,-1,71
 490 420 490 420 488 424 c 0,72,73
 488 430 488 430 486 446 c 128,-1,74
 484 462 484 462 482 468 c 0,75,76
 482 474 482 474 482 482 c 128,-1,77
 482 490 482 490 482 499 c 128,-1,78
 482 508 482 508 482 513 c 0,79,80
 480 523 480 523 480 543.5 c 128,-1,81
 480 564 480 564 480 574 c 2,82,-1
 480 622 l 2,83,84
 480 628 480 628 481 638 c 128,-1,85
 482 648 482 648 482 654 c 0,86,87
 486 764 486 764 496 850 c 1,88,-1
 500 912 l 2,89,90
 508 1034 508 1034 528 1178 c 0,91,92
 528 1180 528 1180 539 1246 c 128,-1,93
 550 1312 550 1312 550 1316 c 0,94,95
 552 1324 552 1324 566 1388 c 0,96,97
 598 1516 598 1516 620 1592 c 0,98,99
 626 1606 626 1606 641 1651 c 128,-1,100
 656 1696 656 1696 669 1725 c 128,-1,101
 682 1754 682 1754 700 1778 c 1,102,103
 610 1716 610 1716 584 1710 c 0,104,105
 576 1708 576 1708 572 1716 c 128,-1,106
 568 1724 568 1724 564 1735 c 128,-1,107
 560 1746 560 1746 556 1750 c 1,108,109
 556 1748 556 1748 556 1744 c 256,110,111
 556 1740 556 1740 554 1740 c 0,112,113
 550 1716 550 1716 514 1664 c 0,114,115
 508 1656 508 1656 499 1640 c 128,-1,116
 490 1624 490 1624 486 1616 c 0,117,118
 418 1510 418 1510 358 1462 c 1,119,-1
 306 1428 l 2,120,121
 330 1442 330 1442 416 1490 c 1,122,123
 364 1464 364 1464 324 1464 c 0,124,125
 322 1464 322 1464 317 1463 c 128,-1,126
 312 1462 312 1462 310 1462 c 0,127,128
 202 1462 202 1462 148 1542 c 0,129,130
 144 1546 144 1546 144 1566 c 2,131,-1
 144 1586 l 2,132,133
 144 1588 144 1588 146 1600 c 128,-1,134
 148 1612 148 1612 148 1614 c 2,135,-1
 158 1650 l 2,136,137
 178 1712 178 1712 188 1738 c 0,138,139
 246 1858 246 1858 288 1900 c 0,140,141
 294 1904 294 1904 308 1914 c 128,-1,142
 322 1924 322 1924 328 1928 c 1,143,144
 310 1918 310 1918 273 1897 c 128,-1,145
 236 1876 236 1876 218 1866 c 1,146,147
 298 1918 298 1918 392 1918 c 2,148,-1
 400 1918 l 2,149,150
 456 1918 456 1918 487 1874 c 128,-1,151
 518 1830 518 1830 518 1768 c 0,152,153
 518 1674 518 1674 468 1616 c 1,154,-1
 508 1624 l 2,155,156
 548 1630 548 1630 588 1640 c 2,157,-1
 630 1648 l 1,158,159
 650 1698 650 1698 664 1772 c 0,160,161
 664 1778 664 1778 665 1789 c 128,-1,162
 666 1800 666 1800 666 1806 c 0,163,164
 666 1876 666 1876 624 1950 c 1,165,166
 568 2034 568 2034 468 2034 c 2,167,-1
 458 2034 l 2,168,169
 454 2034 454 2034 444 2033 c 128,-1,170
 434 2032 434 2032 430 2032 c 0,171,172
 392 2028 392 2028 304 2002 c 0,173,174
 290 1994 290 1994 242 1965 c 128,-1,175
 194 1936 194 1936 168 1920 c 1,176,-1
 156 1908 l 2,177,178
 140 1892 140 1892 110 1842 c 0,179,180
 108 1838 108 1838 103 1832 c 128,-1,181
 98 1826 98 1826 96 1824 c 0,182,183
 94 1820 94 1820 91 1812 c 128,-1,184
 88 1804 88 1804 86 1800 c 0,185,186
 14 1656 14 1656 -2 1568 c 0,187,188
 -8 1526 -8 1526 -8 1524 c 128,-1,189
 -8 1522 -8 1522 -9 1517 c 128,-1,190
 -10 1512 -10 1512 -10 1510 c 0,0,1
EndSplineSet
Validated: 5
EndChar

StartChar: colon
Encoding: 58 58 29
Width: 799
GlyphClass: 2
Flags: W
LayerCount: 2
Fore
SplineSet
122 1542 m 1,0,1
 130 1544 130 1544 144 1544 c 1,2,3
 142 1540 142 1540 142 1528 c 0,4,5
 140 1516 140 1516 152 1484 c 1,6,-1
 124 1464 l 2,7,8
 138 1472 138 1472 152 1482 c 1,9,10
 152 1480 152 1480 154 1474 c 128,-1,11
 156 1468 156 1468 158 1466 c 0,12,13
 158 1464 158 1464 163 1460 c 128,-1,14
 168 1456 168 1456 168 1454 c 0,15,16
 188 1434 188 1434 208 1434 c 0,17,18
 222 1434 222 1434 236 1442 c 128,-1,19
 250 1450 250 1450 275 1469 c 128,-1,20
 300 1488 300 1488 318 1500 c 0,21,22
 320 1502 320 1502 323 1510 c 128,-1,23
 326 1518 326 1518 328 1520 c 0,24,25
 338 1544 338 1544 333 1571 c 128,-1,26
 328 1598 328 1598 314 1612 c 0,27,28
 312 1612 312 1612 310 1614 c 128,-1,29
 308 1616 308 1616 306 1618 c 2,30,-1
 286 1628 l 1,31,-1
 268 1628 l 2,32,33
 256 1628 256 1628 248 1624 c 0,34,35
 228 1612 228 1612 190 1588 c 128,-1,36
 152 1564 152 1564 132 1552 c 0,37,38
 132 1550 132 1550 128 1547 c 128,-1,39
 124 1544 124 1544 122 1542 c 1,0,1
212 1522 m 1,40,41
 242 1544 242 1544 260 1552 c 2,42,-1
 266 1554 l 1,43,44
 236 1538 236 1538 212 1522 c 1,40,41
276 1560 m 1,45,46
 286 1560 286 1560 290 1544 c 1,47,-1
 288 1542 l 1,48,49
 282 1544 282 1544 276 1560 c 1,45,46
166 1492 m 1,50,51
 168 1494 168 1494 172 1498 c 2,52,-1
 178 1502 l 2,53,54
 180 1504 180 1504 184 1510 c 2,55,-1
 186 1512 l 1,56,-1
 188 1512 l 1,57,-1
 192 1516 l 2,58,59
 198 1520 198 1520 200 1522 c 1,60,61
 200 1514 200 1514 194 1509 c 128,-1,62
 188 1504 188 1504 178 1499 c 128,-1,63
 168 1494 168 1494 166 1492 c 1,50,51
174 1494 m 2,64,65
 176 1496 176 1496 184 1500 c 128,-1,66
 192 1504 192 1504 196 1508 c 2,67,-1
 184 1496 l 1,68,-1
 182 1496 l 2,69,70
 180 1494 180 1494 178 1494 c 2,71,-1
 174 1494 l 2,64,65
96 514 m 0,72,73
 92 488 92 488 106 467 c 128,-1,74
 120 446 120 446 142 440 c 1,75,-1
 156 440 l 2,76,77
 176 440 176 440 191 448 c 128,-1,78
 206 456 206 456 230 477 c 128,-1,79
 254 498 254 498 276 513 c 0,80,81
 280 515 280 515 294 536 c 0,82,83
 310 564 310 564 312 568 c 0,84,85
 312 570 312 570 314 577 c 128,-1,86
 316 584 316 584 316 588 c 0,87,88
 316 620 316 620 296 643 c 128,-1,89
 276 666 276 666 246 670 c 1,90,91
 204 668 204 668 164 644 c 128,-1,92
 124 620 124 620 116 582 c 0,93,94
 116 580 116 580 116 572 c 2,95,-1
 114 564 l 1,96,-1
 114 562 l 1,97,98
 110 558 110 558 100 532 c 0,99,100
 100 526 100 526 96 514 c 0,72,73
254 604 m 1,101,102
 258 608 258 608 262 608 c 2,103,-1
 266 608 l 2,104,105
 264 608 264 608 264 606 c 128,-1,106
 264 604 264 604 262 604 c 2,107,-1
 254 604 l 1,101,102
158 544 m 1,108,109
 168 548 168 548 178 554 c 1,110,-1
 180 552 l 1,111,-1
 180 550 l 2,112,113
 180 548 180 548 179 548 c 128,-1,114
 178 548 178 548 178 546 c 2,115,-1
 176 544 l 1,116,-1
 174 544 l 1,117,118
 174 544 174 544 154 528 c 1,119,120
 154 530 154 530 158 544 c 1,108,109
230 546 m 1,121,-1
 232 546 l 1,122,-1
 230 546 l 1,121,-1
154 516 m 1,123,-1
 156 518 l 1,124,-1
 154 516 l 1,123,-1
EndSplineSet
Validated: 9
EndChar

StartChar: semicolon
Encoding: 59 59 30
Width: 799
GlyphClass: 2
Flags: W
LayerCount: 2
Fore
SplineSet
80 1612 m 0,0,1
 80 1602 80 1602 85 1579 c 128,-1,2
 90 1556 90 1556 90 1550 c 2,3,-1
 90 1538 l 2,4,5
 90 1536 90 1536 91 1533 c 128,-1,6
 92 1530 92 1530 92 1528 c 2,7,-1
 92 1518 l 2,8,9
 92 1498 92 1498 94 1488 c 0,10,11
 94 1480 94 1480 96 1462 c 128,-1,12
 98 1444 98 1444 98 1436 c 2,13,-1
 98 1396 l 1,14,-1
 98 1378 l 1,15,-1
 96 1368 l 2,16,17
 98 1368 98 1368 170 1394 c 128,-1,18
 242 1420 242 1420 242 1422 c 2,19,-1
 242 1468 l 1,20,-1
 240 1484 l 1,21,-1
 240 1492 l 2,22,23
 240 1500 240 1500 236 1517.5 c 128,-1,24
 232 1535 232 1535 232 1544 c 0,25,26
 232 1564 232 1564 227 1606 c 128,-1,27
 222 1648 222 1648 222 1670 c 1,28,29
 80 1614 80 1614 80 1612 c 0,0,1
12 218 m 2,30,31
 12 216 12 216 44 216 c 0,32,33
 54 216 54 216 62 220 c 0,34,35
 72 226 72 226 100 241 c 128,-1,36
 128 256 128 256 138 262 c 128,-1,37
 148 268 148 268 166 280 c 128,-1,38
 184 292 184 292 196 305 c 128,-1,39
 208 318 208 318 220 336 c 0,40,41
 224 344 224 344 233 354 c 128,-1,42
 242 364 242 364 244 368 c 2,43,-1
 244 370 l 2,44,45
 244 372 244 372 246 374 c 0,46,47
 256 388 256 388 265 404 c 128,-1,48
 274 420 274 420 276 430 c 2,49,-1
 280 440 l 2,50,51
 280 448 280 448 282 450 c 0,52,53
 282 452 282 452 302 498 c 0,54,55
 304 502 304 502 305 512 c 128,-1,56
 306 522 306 522 306 524 c 2,57,-1
 308 532 l 1,58,-1
 308 540 l 2,59,60
 308 544 308 544 307 552 c 128,-1,61
 306 560 306 560 306 564 c 0,62,63
 306 566 306 566 307 572 c 128,-1,64
 308 578 308 578 308 580 c 2,65,-1
 308 582 l 2,66,67
 306 584 306 584 306 586 c 0,68,69
 304 594 304 594 304 610 c 0,70,71
 298 664 298 664 268 688 c 1,72,-1
 268 708 l 2,73,74
 270 718 270 718 266 726 c 128,-1,75
 262 734 262 734 251 742 c 128,-1,76
 240 750 240 750 238 752 c 128,-1,77
 236 754 236 754 230 754 c 0,78,79
 228 754 228 754 224 755 c 128,-1,80
 220 756 220 756 218 756 c 2,81,-1
 202 752 l 1,82,83
 182 740 182 740 141 717 c 128,-1,84
 100 694 100 694 80 682 c 0,85,86
 76 678 76 678 71 671 c 128,-1,87
 66 664 66 664 61 659 c 128,-1,88
 56 654 56 654 50 652 c 0,89,90
 48 652 48 652 45 648 c 128,-1,91
 42 644 42 644 40 642 c 2,92,-1
 34 642 l 1,93,94
 32 634 32 634 34 627 c 128,-1,95
 36 620 36 620 42 608 c 2,96,-1
 48 596 l 2,97,98
 52 592 52 592 90 586 c 0,99,100
 96 586 96 586 107 585 c 128,-1,101
 118 584 118 584 124 584 c 1,102,-1
 124 582 l 2,103,104
 126 580 126 580 126 578 c 0,105,106
 130 570 130 570 130 566 c 1,107,-1
 128 566 l 1,108,-1
 128 564 l 1,109,-1
 128 550 l 2,110,111
 130 548 130 548 130 542 c 0,112,113
 130 540 130 540 131 540 c 128,-1,114
 132 540 132 540 132 538 c 256,115,116
 132 536 132 536 133 532 c 2,117,-1
 134 528 l 1,118,-1
 136 524 l 1,119,-1
 136 520 l 1,120,-1
 132 518 l 2,121,122
 132 516 132 516 131 512 c 128,-1,123
 130 508 130 508 130 506 c 0,124,125
 78 348 78 348 54 314 c 0,126,127
 48 306 48 306 20 282 c 0,128,129
 14 276 14 276 12 276 c 1,130,131
 38 280 38 280 68 282 c 1,132,-1
 12 218 l 2,30,31
118 624 m 2,133,-1
 124 630 l 1,134,-1
 124 626 l 2,135,136
 124 624 124 624 122 624 c 128,-1,137
 120 624 120 624 118 624 c 2,133,-1
EndSplineSet
Validated: 5
EndChar

StartChar: less
Encoding: 60 60 31
Width: 799
GlyphClass: 2
Flags: W
LayerCount: 2
Fore
SplineSet
-4 970 m 1,0,1
 18 984 18 984 202 1094 c 0,2,3
 234 1112 234 1112 378 1206 c 2,4,5
 378 1206 378 1206 418 1232 c 0,6,7
 424 1236 424 1236 437 1244 c 128,-1,8
 450 1252 450 1252 456 1256 c 0,9,10
 494 1282 494 1282 566 1334 c 0,11,12
 608 1366 608 1366 628 1374 c 0,13,14
 632 1376 632 1376 640 1390 c 1,15,-1
 658 1402 l 1,16,-1
 696 1440 l 2,17,18
 698 1442 698 1442 705 1446 c 128,-1,19
 712 1450 712 1450 714 1452 c 0,20,21
 716 1452 716 1452 720 1458 c 128,-1,22
 724 1464 724 1464 726 1464 c 2,23,24
 726 1464 726 1464 724 1464 c 2,25,-1
 720 1462 l 1,26,-1
 722 1464 l 1,27,-1
 722 1480 l 1,28,29
 576 1460 576 1460 558 1458 c 1,30,31
 562 1456 562 1456 557 1449 c 128,-1,32
 552 1442 552 1442 543 1433 c 128,-1,33
 534 1424 534 1424 525 1415 c 128,-1,34
 516 1406 516 1406 507 1398 c 128,-1,35
 498 1390 498 1390 496 1388 c 2,36,-1
 476 1368 l 2,37,38
 474 1368 474 1368 472 1368 c 2,39,-1
 470 1370 l 2,40,41
 468 1370 468 1370 466 1368 c 2,42,-1
 464 1364 l 1,43,44
 366 1282 366 1282 194 1170 c 0,45,46
 176 1158 176 1158 153 1145 c 128,-1,47
 130 1132 130 1132 122 1126 c 0,48,49
 94 1112 94 1112 84 1108 c 1,50,-1
 80 1100 l 1,51,-1
 82 1102 l 2,52,53
 84 1104 84 1104 86 1104 c 1,54,55
 84 1104 84 1104 84 1102 c 2,56,-1
 80 1100 l 1,57,-1
 -4 970 l 1,0,1
56 1086 m 1,58,59
 64 1090 64 1090 80 1100 c 1,60,61
 68 1092 68 1092 56 1086 c 1,58,59
526 1458 m 1,62,-1
 558 1458 l 1,63,64
 550 1462 550 1462 544 1462 c 0,65,66
 526 1462 526 1462 526 1458 c 1,62,-1
560 1428 m 1,67,68
 562 1428 562 1428 576 1431 c 128,-1,69
 590 1434 590 1434 606 1438 c 128,-1,70
 622 1442 622 1442 638 1444 c 1,71,72
 632 1442 632 1442 606 1435 c 128,-1,73
 580 1428 580 1428 564 1426 c 0,74,75
 560 1426 560 1426 560 1428 c 1,67,68
20 954 m 0,76,77
 114 908 114 908 224 804 c 1,78,-1
 314 714 l 2,79,80
 322 708 322 708 336 692 c 128,-1,81
 350 676 350 676 356 670 c 0,82,83
 376 648 376 648 418 606 c 128,-1,84
 460 564 460 564 480 544 c 0,85,86
 546 484 546 484 590 418 c 0,87,88
 592 418 592 418 660 462 c 128,-1,89
 728 506 728 506 728 508 c 0,90,91
 710 526 710 526 686 552 c 128,-1,92
 662 578 662 578 648 592 c 0,93,94
 636 604 636 604 613 623 c 128,-1,95
 590 642 590 642 578 654 c 0,96,97
 466 744 466 744 380 838 c 1,98,-1
 336 882 l 1,99,100
 252 960 252 960 242 970 c 0,101,102
 216 990 216 990 168 1038 c 1,103,-1
 164 1044 l 2,104,105
 160 1048 160 1048 157 1052 c 128,-1,106
 154 1056 154 1056 152 1056 c 128,-1,107
 150 1056 150 1056 85 1006 c 128,-1,108
 20 956 20 956 20 954 c 0,76,77
EndSplineSet
Validated: 5
EndChar

StartChar: equal
Encoding: 61 61 32
Width: 799
GlyphClass: 2
Flags: W
LayerCount: 2
Fore
SplineSet
72 1250 m 1,0,1
 84 1254 84 1254 88 1254 c 0,2,3
 96 1256 96 1256 116 1256 c 0,4,5
 122 1256 122 1256 134 1259 c 128,-1,6
 146 1262 146 1262 152 1262 c 2,7,-1
 174 1262 l 2,8,9
 294 1262 294 1262 396 1244 c 0,10,11
 428 1240 428 1240 494 1235 c 128,-1,12
 560 1230 560 1230 590 1228 c 0,13,14
 650 1220 650 1220 680 1218 c 0,15,16
 686 1216 686 1216 700 1216 c 128,-1,17
 714 1216 714 1216 722 1214 c 0,18,19
 730 1214 730 1214 736 1212 c 0,20,21
 738 1212 738 1212 794 1271 c 128,-1,22
 850 1330 850 1330 850 1332 c 1,23,24
 840 1332 840 1332 819 1335 c 128,-1,25
 798 1338 798 1338 788 1338 c 2,26,-1
 764 1338 l 2,27,28
 738 1338 738 1338 698 1342 c 2,29,-1
 614 1348 l 2,30,31
 610 1348 610 1348 602 1349 c 128,-1,32
 594 1350 594 1350 590 1350 c 128,-1,33
 586 1350 586 1350 576 1351 c 128,-1,34
 566 1352 566 1352 562 1352 c 0,35,36
 520 1354 520 1354 429 1361 c 128,-1,37
 338 1368 338 1368 288 1372 c 0,38,39
 276 1372 276 1372 253 1374 c 128,-1,40
 230 1376 230 1376 211 1377 c 128,-1,41
 192 1378 192 1378 176 1378 c 1,42,-1
 72 1250 l 1,0,1
88 718 m 1,43,44
 126 718 126 718 236 698 c 0,45,46
 382 674 382 674 410 670 c 0,47,48
 412 670 412 670 418 669 c 128,-1,49
 424 668 424 668 426 668 c 128,-1,50
 428 668 428 668 434 667 c 128,-1,51
 440 666 440 666 444 666 c 0,52,53
 468 664 468 664 510 664 c 2,54,-1
 540 664 l 2,55,56
 540 662 540 662 560 664 c 2,57,-1
 582 664 l 2,58,59
 590 664 590 664 590 662 c 0,60,61
 590 658 590 658 600 660 c 2,62,-1
 650 660 l 1,63,-1
 684 660 l 1,64,-1
 720 660 l 2,65,66
 726 662 726 662 741 660 c 128,-1,67
 756 658 756 658 760 658 c 0,68,69
 870 778 870 778 870 780 c 2,70,-1
 854 780 l 2,71,72
 850 780 850 780 841 781 c 128,-1,73
 832 782 832 782 828 782 c 2,74,-1
 816 782 l 2,75,76
 812 782 812 782 806 783 c 128,-1,77
 800 784 800 784 796 784 c 2,78,-1
 758 784 l 1,79,-1
 742 784 l 2,80,81
 736 784 736 784 725 783 c 128,-1,82
 714 782 714 782 708 782 c 128,-1,83
 702 782 702 782 688 782 c 128,-1,84
 674 782 674 782 663 782 c 128,-1,85
 652 782 652 782 644 782 c 2,86,-1
 552 782 l 2,87,88
 532 782 532 782 500 786 c 1,89,-1
 476 786 l 2,90,91
 472 786 472 786 445 790 c 128,-1,92
 418 794 418 794 416 794 c 0,93,94
 370 800 370 800 222 828 c 0,95,96
 220 828 220 828 213 832 c 128,-1,97
 206 836 206 836 202 836 c 0,98,99
 200 836 200 836 144 778 c 128,-1,100
 88 720 88 720 88 718 c 1,43,44
EndSplineSet
Validated: 9
EndChar

StartChar: greater
Encoding: 62 62 33
Width: 799
GlyphClass: 2
Flags: W
LayerCount: 2
Fore
SplineSet
-80 334 m 1,0,-1
 -40 340 l 2,1,2
 2 344 2 344 44 350 c 2,3,-1
 84 356 l 1,4,-1
 152 440 l 2,5,6
 156 444 156 444 161 451 c 128,-1,7
 166 458 166 458 170 460 c 0,8,9
 208 504 208 504 210 506 c 0,10,11
 226 524 226 524 254 552 c 128,-1,12
 282 580 282 580 294 592 c 128,-1,13
 306 604 306 604 330 629 c 128,-1,14
 354 654 354 654 373 673 c 128,-1,15
 392 692 392 692 410 708 c 0,16,17
 536 824 536 824 698 916 c 0,18,19
 712 922 712 922 738 940 c 128,-1,20
 764 958 764 958 776 964 c 1,21,22
 780 972 780 972 780 980 c 0,23,24
 774 1014 774 1014 750 1024 c 1,25,26
 680 1074 680 1074 638 1108 c 0,27,28
 628 1116 628 1116 603 1139 c 128,-1,29
 578 1162 578 1162 562 1172 c 0,30,31
 550 1178 550 1178 518 1202 c 128,-1,32
 486 1226 486 1226 466 1236 c 0,33,34
 410 1276 410 1276 402 1280 c 0,35,36
 394 1286 394 1286 374 1299 c 128,-1,37
 354 1312 354 1312 344 1320 c 0,38,39
 328 1332 328 1332 294 1356 c 128,-1,40
 260 1380 260 1380 244 1392 c 0,41,42
 148 1462 148 1462 118 1492 c 0,43,44
 116 1492 116 1492 51 1443 c 128,-1,45
 -14 1394 -14 1394 -14 1392 c 0,46,47
 -2 1384 -2 1384 0 1384 c 0,48,49
 26 1368 26 1368 70 1338 c 0,50,51
 78 1332 78 1332 96 1318 c 128,-1,52
 114 1304 114 1304 122 1298 c 0,53,54
 126 1296 126 1296 135 1290 c 128,-1,55
 144 1284 144 1284 148 1280 c 0,56,57
 152 1278 152 1278 161 1272 c 128,-1,58
 170 1266 170 1266 174 1262 c 0,59,60
 198 1246 198 1246 268 1199 c 128,-1,61
 338 1152 338 1152 376 1124 c 2,62,-1
 400 1106 l 2,63,64
 412 1098 412 1098 436 1078 c 0,65,66
 444 1072 444 1072 464 1057 c 128,-1,67
 484 1042 484 1042 494 1034 c 0,68,69
 520 1008 520 1008 530 1002 c 128,-1,70
 540 996 540 996 552 984 c 2,71,-1
 594 948 l 2,72,73
 596 948 596 948 599 944 c 128,-1,74
 602 940 602 940 604 940 c 0,75,76
 616 928 616 928 620 926 c 0,77,78
 622 924 622 924 625 920 c 128,-1,79
 628 916 628 916 630 916 c 2,80,-1
 630 920 l 2,81,82
 628 926 628 926 622 936 c 128,-1,83
 616 946 616 946 612 952 c 1,84,85
 604 944 604 944 590 940 c 1,86,-1
 546 910 l 2,87,88
 536 904 536 904 514 890 c 128,-1,89
 492 876 492 876 482 868 c 0,90,91
 476 864 476 864 463 854 c 128,-1,92
 450 844 450 844 444 840 c 0,93,94
 386 798 386 798 364 780 c 0,95,96
 344 766 344 766 262 692 c 0,97,98
 242 672 242 672 200 632 c 128,-1,99
 158 592 158 592 138 572 c 2,100,-1
 50 484 l 1,101,102
 10 436 10 436 -8 418 c 0,103,104
 -20 406 -20 406 -43 377 c 128,-1,105
 -66 348 -66 348 -80 334 c 1,0,-1
EndSplineSet
Validated: 5
EndChar

StartChar: question
Encoding: 63 63 34
Width: 799
GlyphClass: 2
Flags: W
LayerCount: 2
Fore
SplineSet
84 1572 m 1,0,-1
 124 1586 l 2,1,2
 162 1600 162 1600 200 1616 c 2,3,-1
 240 1630 l 2,4,5
 240 1634 240 1634 238 1644 c 128,-1,6
 236 1654 236 1654 238 1660 c 0,7,8
 238 1664 238 1664 240 1668 c 128,-1,9
 242 1672 242 1672 242 1676 c 2,10,-1
 244 1680 l 1,11,-1
 244 1684 l 2,12,13
 244 1686 244 1686 246 1693 c 128,-1,14
 248 1700 248 1700 248 1702 c 0,15,16
 250 1706 250 1706 253 1713 c 128,-1,17
 256 1720 256 1720 256 1724 c 2,18,-1
 256 1732 l 1,19,20
 264 1764 264 1764 294 1810 c 1,21,22
 340 1786 340 1786 414 1712 c 1,23,24
 498 1618 498 1618 498 1548 c 0,25,26
 498 1544 498 1544 497 1535 c 128,-1,27
 496 1526 496 1526 496 1522 c 0,28,29
 488 1434 488 1434 410 1304 c 0,30,31
 394 1282 394 1282 361 1232 c 128,-1,32
 328 1182 328 1182 308 1158 c 0,33,34
 272 1106 272 1106 256 1078 c 0,35,36
 228 1032 228 1032 220 998 c 0,37,38
 210 966 210 966 206 929 c 128,-1,39
 202 892 202 892 200 845 c 128,-1,40
 198 798 198 798 196 772 c 2,41,-1
 196 734 l 2,42,43
 196 728 196 728 195 720 c 128,-1,44
 194 712 194 712 194 706 c 1,45,-1
 232 720 l 2,46,47
 272 734 272 734 310 748 c 2,48,-1
 348 764 l 1,49,50
 348 782 348 782 346 822 c 128,-1,51
 344 862 344 862 344 882 c 0,52,53
 344 966 344 966 370 1036 c 1,54,-1
 392 1082 l 1,55,56
 418 1126 418 1126 482 1219 c 128,-1,57
 546 1312 546 1312 574 1364 c 0,58,59
 618 1438 618 1438 636 1538 c 0,60,61
 642 1588 642 1588 640 1632 c 0,62,63
 638 1652 638 1652 614 1708 c 1,64,65
 578 1768 578 1768 542 1800 c 2,66,-1
 508 1834 l 2,67,68
 492 1848 492 1848 462 1874 c 128,-1,69
 432 1900 432 1900 416 1916 c 0,70,71
 388 1944 388 1944 350 1944 c 0,72,73
 328 1942 328 1942 324 1942 c 128,-1,74
 320 1942 320 1942 311 1938 c 128,-1,75
 302 1934 302 1934 296 1928 c 128,-1,76
 290 1922 290 1922 265 1905 c 128,-1,77
 240 1888 240 1888 206 1868 c 0,78,79
 202 1868 202 1868 195 1861 c 128,-1,80
 188 1854 188 1854 180 1844 c 2,81,-1
 174 1836 l 1,82,83
 138 1796 138 1796 132 1782 c 0,84,85
 130 1780 130 1780 124 1764 c 0,86,87
 120 1760 120 1760 118 1747 c 128,-1,88
 116 1734 116 1734 114 1730 c 0,89,90
 90 1668 90 1668 86 1624 c 0,91,92
 86 1620 86 1620 85 1610 c 128,-1,93
 84 1600 84 1600 84 1594 c 2,94,-1
 84 1572 l 1,0,-1
332 1852 m 1,95,96
 338 1858 338 1858 345 1862 c 128,-1,97
 352 1866 352 1866 360 1874 c 2,98,-1
 364 1876 l 1,99,-1
 368 1876 l 1,100,-1
 368 1874 l 1,101,102
 362 1870 362 1870 332 1852 c 1,95,96
238 1796 m 1,103,-1
 264 1816 l 1,104,-1
 272 1820 l 1,105,-1
 274 1820 l 1,106,107
 268 1816 268 1816 262 1812 c 128,-1,108
 256 1808 256 1808 252 1805 c 128,-1,109
 248 1802 248 1802 245 1800 c 128,-1,110
 242 1798 242 1798 240 1796 c 2,111,-1
 238 1796 l 1,103,-1
162 480 m 1,112,-1
 200 494 l 2,113,114
 240 508 240 508 280 524 c 2,115,-1
 318 540 l 1,116,-1
 318 550 l 2,117,118
 318 552 318 552 317 552 c 128,-1,119
 316 552 316 552 316 554 c 2,120,-1
 316 566 l 2,121,122
 316 568 316 568 317 568 c 128,-1,123
 318 568 318 568 318 570 c 128,-1,124
 318 572 318 572 317 572 c 128,-1,125
 316 572 316 572 316 574 c 2,126,-1
 316 594 l 2,127,128
 316 596 316 596 317 600 c 128,-1,129
 318 604 318 604 318 606 c 2,130,-1
 280 592 l 2,131,132
 240 578 240 578 200 564 c 2,133,-1
 162 548 l 1,134,-1
 162 542 l 1,135,-1
 164 538 l 1,136,-1
 164 536 l 1,137,-1
 164 526 l 1,138,-1
 164 516 l 2,139,140
 162 508 162 508 164 508 c 1,141,142
 164 506 164 506 163 502 c 128,-1,143
 162 498 162 498 162 496 c 128,-1,144
 162 494 162 494 163 491 c 128,-1,145
 164 488 164 488 164 486 c 2,146,-1
 164 484 l 1,147,-1
 162 480 l 1,112,-1
EndSplineSet
Validated: 41
EndChar

StartChar: at
Encoding: 64 64 35
Width: 799
GlyphClass: 2
Flags: W
LayerCount: 2
Fore
SplineSet
-96 1042 m 2,0,1
 -96 1040 -96 1040 -95 1035 c 128,-1,2
 -94 1030 -94 1030 -94 1028 c 2,3,-1
 -94 1014 l 2,4,5
 -94 1008 -94 1008 -76 888 c 0,6,7
 -72 856 -72 856 -68 844 c 0,8,9
 -68 842 -68 842 -67 836 c 128,-1,10
 -66 830 -66 830 -66 828 c 128,-1,11
 -66 826 -66 826 -65 816 c 128,-1,12
 -64 806 -64 806 -62 790 c 128,-1,13
 -60 774 -60 774 -54 752 c 0,14,15
 -50 736 -50 736 -43 699 c 128,-1,16
 -36 662 -36 662 -31 643 c 128,-1,17
 -26 624 -26 624 -17 597 c 128,-1,18
 -8 570 -8 570 4 552 c 0,19,20
 8 544 8 544 14 538 c 0,21,22
 54 486 54 486 96 464 c 0,23,24
 160 424 160 424 270 424 c 0,25,26
 396 424 396 424 474 464 c 0,27,28
 486 472 486 472 529 495 c 128,-1,29
 572 518 572 518 599 536 c 128,-1,30
 626 554 626 554 650 574 c 0,31,32
 700 616 700 616 724 656 c 0,33,34
 740 684 740 684 768 744 c 1,35,36
 810 854 810 854 814 878 c 0,37,38
 816 890 816 890 818 911 c 128,-1,39
 820 932 820 932 822 944 c 2,40,-1
 822 970 l 2,41,42
 822 978 822 978 824 996 c 128,-1,43
 826 1014 826 1014 826 1022 c 0,44,45
 828 1054 828 1054 828 1114 c 2,46,-1
 828 1132 l 1,47,-1
 828 1150 l 1,48,-1
 790 1136 l 2,49,50
 752 1122 752 1122 714 1108 c 2,51,-1
 676 1092 l 1,52,-1
 676 1056 l 1,53,54
 680 1020 680 1020 680 996 c 2,55,-1
 680 968 l 1,56,57
 676 890 676 890 664 834 c 0,58,59
 658 810 658 810 614 712 c 0,60,61
 612 708 612 708 609 700 c 128,-1,62
 606 692 606 692 604 688 c 0,63,64
 562 612 562 612 496 562 c 1,65,-1
 438 528 l 2,66,67
 468 546 468 546 560 598 c 1,68,69
 464 540 464 540 352 540 c 2,70,-1
 332 540 l 2,71,72
 330 540 330 540 312 542 c 128,-1,73
 294 544 294 544 290 544 c 0,74,75
 202 558 202 558 152 622 c 0,76,77
 152 624 152 624 148 627 c 128,-1,78
 144 630 144 630 142 632 c 0,79,80
 102 710 102 710 92 816 c 1,81,82
 76 930 76 930 74 938 c 0,83,84
 74 940 74 940 73 945 c 128,-1,85
 72 950 72 950 72 952 c 0,86,87
 54 1066 54 1066 54 1072 c 2,88,-1
 54 1078 l 2,89,90
 54 1210 54 1210 108 1278 c 0,91,92
 112 1284 112 1284 122 1300 c 128,-1,93
 132 1316 132 1316 138 1322 c 0,94,95
 142 1326 142 1326 149 1335 c 128,-1,96
 156 1344 156 1344 160 1348 c 0,97,98
 238 1434 238 1434 294 1466 c 1,99,100
 274 1456 274 1456 244 1438 c 1,101,102
 324 1466 324 1466 390 1476 c 0,103,104
 392 1476 392 1476 400 1477 c 128,-1,105
 408 1478 408 1478 412 1478 c 0,106,107
 448 1482 448 1482 468 1482 c 0,108,109
 508 1482 508 1482 526 1474 c 0,110,111
 530 1472 530 1472 534 1469 c 128,-1,112
 538 1466 538 1466 543 1462 c 128,-1,113
 548 1458 548 1458 550 1456 c 0,114,115
 586 1422 586 1422 608 1376 c 0,116,117
 614 1366 614 1366 629 1340 c 128,-1,118
 644 1314 644 1314 650 1298 c 0,119,120
 652 1294 652 1294 652 1288 c 128,-1,121
 652 1282 652 1282 654 1280 c 2,122,-1
 658 1272 l 1,123,-1
 666 1246 l 2,124,125
 670 1226 670 1226 670 1210 c 2,126,-1
 670 1190 l 2,127,128
 670 1186 670 1186 671 1178 c 128,-1,129
 672 1170 672 1170 672 1166 c 2,130,-1
 672 1114 l 1,131,132
 668 1056 668 1056 648 1030 c 0,133,134
 588 964 588 964 536 924 c 2,135,-1
 514 908 l 1,136,137
 536 918 536 918 568 936 c 2,138,-1
 598 956 l 2,139,140
 566 936 566 936 546 932 c 1,141,-1
 538 932 l 2,142,143
 518 932 518 932 506 942 c 0,144,145
 504 944 504 944 500 951 c 128,-1,146
 496 958 496 958 494 962 c 0,147,148
 440 1070 440 1070 440 1154 c 2,149,-1
 440 1164 l 2,150,151
 440 1172 440 1172 442 1184 c 128,-1,152
 444 1196 444 1196 444 1204 c 2,153,-1
 444 1238 l 2,154,155
 444 1254 444 1254 446 1260 c 0,156,157
 446 1264 446 1264 450 1264 c 0,158,159
 452 1262 452 1262 452 1256 c 1,160,161
 426 1240 426 1240 377 1214 c 128,-1,162
 328 1188 328 1188 314 1180 c 1,163,164
 306 1188 306 1188 304 1192 c 2,165,-1
 302 1194 l 2,166,167
 306 1186 306 1186 306 1182 c 0,168,169
 308 1178 308 1178 308 1170 c 128,-1,170
 308 1162 308 1162 310 1158 c 2,171,-1
 310 1120 l 2,172,173
 310 1094 310 1094 308 1082 c 2,174,-1
 308 1068 l 1,175,176
 302 1030 302 1030 244 972 c 0,177,178
 236 966 236 966 212 944 c 128,-1,179
 188 922 188 922 172 912 c 0,180,181
 168 908 168 908 156 904 c 1,182,183
 174 914 174 914 211 937 c 128,-1,184
 248 960 248 960 270 970 c 1,185,186
 264 952 264 952 258 952 c 2,187,-1
 252 952 l 1,188,189
 248 956 248 956 232 978 c 0,190,191
 200 1032 200 1032 206 1086 c 0,192,193
 206 1118 206 1118 228 1162 c 0,194,195
 232 1172 232 1172 238 1182 c 1,196,-1
 260 1196 l 1,197,-1
 132 1120 l 2,198,199
 146 1130 146 1130 162 1142 c 0,200,201
 188 1160 188 1160 212 1158 c 0,202,203
 250 1158 250 1158 276 1150 c 0,204,205
 278 1150 278 1150 335 1209 c 128,-1,206
 392 1268 392 1268 392 1270 c 0,207,208
 392 1276 392 1276 322 1276 c 1,209,210
 294 1280 294 1280 276 1280 c 0,211,212
 270 1280 270 1280 254 1276 c 0,213,214
 230 1270 230 1270 205 1257 c 128,-1,215
 180 1244 180 1244 145 1220 c 128,-1,216
 110 1196 110 1196 104 1192 c 0,217,218
 102 1190 102 1190 96 1186 c 0,219,220
 80 1170 80 1170 70 1122 c 1,221,222
 44 1058 44 1058 56 996 c 0,223,224
 56 994 56 994 58 991 c 128,-1,225
 60 988 60 988 60 986 c 2,226,-1
 60 976 l 2,227,228
 62 968 62 968 64 959 c 128,-1,229
 66 950 66 950 73 933 c 128,-1,230
 80 916 80 916 92 898 c 0,231,232
 110 866 110 866 122 856 c 0,233,234
 144 834 144 834 172 834 c 0,235,236
 196 834 196 834 224 849 c 128,-1,237
 252 864 252 864 280 886 c 128,-1,238
 308 908 308 908 316 912 c 0,239,240
 330 926 330 926 357 949 c 128,-1,241
 384 972 384 972 404 992 c 128,-1,242
 424 1012 424 1012 438 1034 c 0,243,244
 440 1036 440 1036 444 1046 c 128,-1,245
 448 1056 448 1056 450 1056 c 0,246,247
 460 1078 460 1078 460 1138 c 1,248,-1
 462 1152 l 1,249,-1
 462 1166 l 1,250,-1
 462 1194 l 2,251,252
 462 1200 462 1200 461 1208 c 128,-1,253
 460 1216 460 1216 460 1220 c 2,254,-1
 460 1238 l 2,255,256
 460 1240 460 1240 459 1242 c 128,-1,257
 458 1244 458 1244 458 1246 c 2,258,-1
 458 1252 l 1,259,-1
 456 1260 l 1,260,-1
 454 1268 l 2,261,262
 450 1276 450 1276 439 1288 c 128,-1,263
 428 1300 428 1300 426 1304 c 1,264,265
 394 1286 394 1286 366 1272 c 128,-1,266
 338 1258 338 1258 325 1253 c 128,-1,267
 312 1248 312 1248 302 1244 c 128,-1,268
 292 1240 292 1240 290 1237 c 128,-1,269
 288 1234 288 1234 288 1230 c 0,270,271
 288 1228 288 1228 290 1213 c 128,-1,272
 292 1198 292 1198 292 1180 c 2,273,-1
 292 1158 l 2,274,275
 292 1126 292 1126 290 1110 c 0,276,277
 290 1108 290 1108 291 1102 c 128,-1,278
 292 1096 292 1096 292 1094 c 128,-1,279
 292 1092 292 1092 293 1084 c 128,-1,280
 294 1076 294 1076 294 1074 c 0,281,282
 308 996 308 996 316 970 c 0,283,284
 316 968 316 968 318 962 c 128,-1,285
 320 956 320 956 322 954 c 0,286,287
 346 878 346 878 390 834 c 1,288,289
 412 818 412 818 444 814 c 0,290,291
 446 814 446 814 451 813 c 128,-1,292
 456 812 456 812 458 812 c 0,293,294
 476 812 476 812 508 824 c 0,295,296
 576 856 576 856 670 916 c 0,297,298
 686 926 686 926 730 970 c 0,299,300
 738 976 738 976 744 984 c 0,301,302
 818 1050 818 1050 818 1120 c 1,303,304
 830 1276 830 1276 800 1362 c 0,305,306
 792 1382 792 1382 773 1413 c 128,-1,307
 754 1444 754 1444 748 1458 c 0,308,309
 738 1478 738 1478 728 1488 c 0,310,311
 724 1494 724 1494 719 1504 c 128,-1,312
 714 1514 714 1514 708 1520 c 0,313,314
 648 1596 648 1596 574 1596 c 0,315,316
 562 1598 562 1598 538 1598 c 0,317,318
 448 1598 448 1598 338 1566 c 0,319,320
 298 1552 298 1552 284 1544 c 0,321,322
 240 1520 240 1520 212 1505 c 128,-1,323
 184 1490 184 1490 177 1487 c 128,-1,324
 170 1484 170 1484 162 1479 c 128,-1,325
 154 1474 154 1474 134 1458 c 0,326,327
 40 1390 40 1390 -52 1250 c 0,328,329
 -62 1234 -62 1234 -69 1216 c 128,-1,330
 -76 1198 -76 1198 -79 1186 c 128,-1,331
 -82 1174 -82 1174 -84 1162 c 2,332,-1
 -86 1150 l 2,333,334
 -86 1148 -86 1148 -88 1144 c 128,-1,335
 -90 1140 -90 1140 -90 1138 c 128,-1,336
 -90 1136 -90 1136 -91 1131 c 128,-1,337
 -92 1126 -92 1126 -92 1124 c 2,338,-1
 -94 1098 l 1,339,-1
 -94 1084 l 2,340,341
 -94 1082 -94 1082 -95 1077 c 128,-1,342
 -96 1072 -96 1072 -96 1070 c 2,343,-1
 -96 1042 l 2,0,1
EndSplineSet
Validated: 37
EndChar

StartChar: A
Encoding: 65 65 36
Width: 799
GlyphClass: 2
Flags: W
LayerCount: 2
Fore
SplineSet
-20 488 m 1,0,-1
 18 496 l 2,1,2
 56 504 56 504 96 513 c 2,3,-1
 134 522 l 1,4,5
 186 642 186 642 250 768 c 0,6,7
 252 772 252 772 255 778 c 128,-1,8
 258 784 258 784 260 786 c 0,9,10
 340 802 340 802 410 802 c 2,11,-1
 442 802 l 2,12,13
 508 802 508 802 520 798 c 1,14,-1
 522 796 l 2,15,16
 524 796 524 796 526 796 c 0,17,18
 534 800 534 800 538 804 c 1,19,20
 538 802 538 802 539 794 c 128,-1,21
 540 786 540 786 540 782 c 0,22,23
 548 660 548 660 562 584 c 0,24,25
 564 576 564 576 564 556 c 0,26,27
 564 548 564 548 565 537 c 128,-1,28
 566 526 566 526 568 518 c 0,29,30
 568 512 568 512 569 506 c 128,-1,31
 570 500 570 500 572 493 c 128,-1,32
 574 486 574 486 574 482 c 2,33,-1
 574 474 l 2,34,35
 574 472 574 472 576 469 c 128,-1,36
 578 466 578 466 578 464 c 0,37,38
 580 460 580 460 580 452 c 128,-1,39
 580 444 580 444 582 440 c 2,40,-1
 582 426 l 1,41,-1
 620 440 l 2,42,43
 660 454 660 454 698 470 c 2,44,-1
 736 486 l 1,45,-1
 736 492 l 2,46,47
 734 498 734 498 734 496 c 2,48,-1
 734 498 l 1,49,-1
 726 530 l 2,50,51
 724 538 724 538 720 556 c 128,-1,52
 716 574 716 574 716 582 c 0,53,54
 688 710 688 710 684 744 c 0,55,56
 684 750 684 750 682 765 c 128,-1,57
 680 780 680 780 678 788 c 0,58,59
 676 812 676 812 672 837 c 128,-1,60
 668 862 668 862 664 888 c 0,61,62
 656 970 656 970 650 1056 c 0,63,64
 640 1148 640 1148 640 1164 c 2,65,-1
 634 1290 l 2,66,67
 634 1302 634 1302 633 1325 c 128,-1,68
 632 1348 632 1348 632 1360 c 128,-1,69
 632 1372 632 1372 631 1396 c 128,-1,70
 630 1420 630 1420 630 1434 c 0,71,72
 626 1636 626 1636 616 1802 c 0,73,74
 614 1830 614 1830 614 1866 c 0,75,76
 614 1868 614 1868 613 1876 c 128,-1,77
 612 1884 612 1884 612 1886 c 0,78,79
 612 1892 612 1892 613 1906 c 128,-1,80
 614 1920 614 1920 614 1928 c 2,81,-1
 614 1950 l 2,82,83
 616 1958 616 1958 616 1972 c 2,84,-1
 616 1974 l 1,85,-1
 614 1976 l 1,86,-1
 616 1976 l 1,87,-1
 616 1980 l 1,88,-1
 614 1980 l 1,89,90
 534 1946 534 1946 458 1928 c 1,91,92
 460 1926 460 1926 460 1916 c 0,93,94
 460 1912 460 1912 460 1904 c 128,-1,95
 460 1896 460 1896 460 1892 c 2,96,-1
 460 1862 l 2,97,98
 460 1860 460 1860 460 1858 c 2,99,-1
 458 1854 l 1,100,101
 440 1726 440 1726 440 1724 c 0,102,103
 436 1716 436 1716 436 1714 c 2,104,-1
 436 1704 l 2,105,106
 436 1702 436 1702 432 1694 c 0,107,108
 432 1692 432 1692 431 1688 c 128,-1,109
 430 1684 430 1684 430 1682 c 0,110,111
 426 1662 426 1662 426 1652 c 2,112,-1
 426 1640 l 2,113,114
 426 1636 426 1636 424 1630 c 128,-1,115
 422 1624 422 1624 422 1622 c 2,116,-1
 422 1596 l 2,117,118
 422 1594 422 1594 421 1590 c 128,-1,119
 420 1586 420 1586 420 1584 c 0,120,121
 408 1480 408 1480 378 1378 c 0,122,123
 378 1376 378 1376 377 1372 c 128,-1,124
 376 1368 376 1368 376 1364 c 2,125,-1
 376 1360 l 1,126,-1
 374 1356 l 2,127,128
 372 1344 372 1344 367 1321 c 128,-1,129
 362 1298 362 1298 360 1286 c 0,130,131
 344 1224 344 1224 306 1134 c 2,132,-1
 292 1102 l 2,133,134
 290 1096 290 1096 286 1085 c 128,-1,135
 282 1074 282 1074 280 1068 c 0,136,137
 238 986 238 986 157 827 c 128,-1,138
 76 668 76 668 60 638 c 0,139,140
 -10 502 -10 502 -20 488 c 1,0,-1
400 1920 m 0,141,142
 400 1918 400 1918 408 1918 c 0,143,144
 414 1918 414 1918 458 1928 c 1,145,146
 452 1934 452 1934 438 1934 c 0,147,148
 426 1934 426 1934 413 1929 c 128,-1,149
 400 1924 400 1924 400 1920 c 0,141,142
296 858 m 1,150,151
 310 882 310 882 336 929 c 128,-1,152
 362 976 362 976 374 998 c 0,153,154
 416 1080 416 1080 476 1226 c 1,155,156
 506 1316 506 1316 508 1328 c 1,157,158
 508 1086 508 1086 522 946 c 0,159,160
 522 942 522 942 523 933 c 128,-1,161
 524 924 524 924 524 920 c 1,162,-1
 508 920 l 2,163,164
 486 920 486 920 434 914 c 128,-1,165
 382 908 382 908 354 908 c 2,166,-1
 340 908 l 1,167,168
 320 886 320 886 296 858 c 1,150,151
EndSplineSet
Validated: 5
EndChar

StartChar: B
Encoding: 66 66 37
Width: 799
GlyphClass: 2
Flags: W
LayerCount: 2
Fore
SplineSet
74 608 m 0,0,1
 72 608 72 608 80 600 c 1,2,-1
 82 600 l 2,3,4
 84 600 84 600 84 599 c 128,-1,5
 84 598 84 598 86 598 c 0,6,7
 90 596 90 596 100 594 c 128,-1,8
 110 592 110 592 112 592 c 2,9,-1
 116 592 l 1,10,-1
 120 590 l 1,11,-1
 126 590 l 2,12,13
 138 590 138 590 162 586 c 1,14,-1
 218 586 l 1,15,-1
 232 588 l 1,16,-1
 250 590 l 1,17,-1
 266 590 l 1,18,19
 344 598 344 598 432 624 c 0,20,21
 514 648 514 648 532 656 c 0,22,23
 644 704 644 704 754 788 c 0,24,25
 760 794 760 794 776 804 c 1,26,27
 756 792 756 792 716 769 c 128,-1,28
 676 746 676 746 656 734 c 1,29,-1
 656 738 l 2,30,31
 654 744 654 744 652 746 c 2,32,33
 652 746 652 746 652 750 c 1,34,35
 718 728 718 728 724 728 c 128,-1,36
 730 728 730 728 737 733 c 128,-1,37
 744 738 744 738 753 746 c 128,-1,38
 762 754 762 754 786 771 c 128,-1,39
 810 788 810 788 842 806 c 0,40,41
 846 810 846 810 856 856 c 1,42,43
 856 856 856 856 858 872 c 0,44,45
 858 874 858 874 858 890 c 0,46,47
 858 894 858 894 859 901 c 128,-1,48
 860 908 860 908 860 912 c 2,49,-1
 860 926 l 2,50,51
 860 950 860 950 856 998 c 0,52,53
 844 1146 844 1146 786 1204 c 0,54,55
 748 1246 748 1246 684 1300 c 0,56,57
 674 1310 674 1310 668 1315 c 128,-1,58
 662 1320 662 1320 661 1321 c 128,-1,59
 660 1322 660 1322 658 1324 c 128,-1,60
 656 1326 656 1326 655 1327 c 128,-1,61
 654 1328 654 1328 648 1334 c 128,-1,62
 642 1340 642 1340 632 1350 c 0,63,64
 628 1354 628 1354 617 1363 c 128,-1,65
 606 1372 606 1372 602 1376 c 0,66,67
 596 1382 596 1382 579 1399 c 128,-1,68
 562 1416 562 1416 554 1422 c 0,69,70
 522 1446 522 1446 498 1448 c 0,71,72
 482 1452 482 1452 462 1454 c 128,-1,73
 442 1456 442 1456 418 1457 c 128,-1,74
 394 1458 394 1458 382 1460 c 0,75,76
 376 1460 376 1460 364 1461 c 128,-1,77
 352 1462 352 1462 348 1462 c 0,78,79
 306 1462 306 1462 294 1464 c 0,80,81
 292 1464 292 1464 285 1466 c 128,-1,82
 278 1468 278 1468 276 1466 c 0,83,84
 234 1438 234 1438 197 1420 c 128,-1,85
 160 1402 160 1402 148 1396 c 128,-1,86
 136 1390 136 1390 136 1384 c 0,87,88
 136 1382 136 1382 158 1346 c 1,89,90
 182 1330 182 1330 230 1340 c 0,91,92
 258 1346 258 1346 314 1366 c 128,-1,93
 370 1386 370 1386 390 1392 c 0,94,95
 470 1414 470 1414 488 1422 c 0,96,97
 584 1470 584 1470 644 1506 c 0,98,99
 660 1514 660 1514 696 1550 c 1,100,101
 742 1620 742 1620 742 1694 c 0,102,103
 742 1734 742 1734 732 1750 c 0,104,105
 724 1762 724 1762 713 1768 c 128,-1,106
 702 1774 702 1774 680 1779 c 128,-1,107
 658 1784 658 1784 652 1786 c 0,108,109
 632 1788 632 1788 594 1799 c 128,-1,110
 556 1810 556 1810 544 1812 c 0,111,112
 510 1818 510 1818 442 1826 c 0,113,114
 346 1842 346 1842 258 1862 c 0,115,116
 210 1874 210 1874 208 1874 c 2,117,-1
 94 1754 l 1,118,-1
 154 1754 l 2,119,120
 162 1752 162 1752 179 1750 c 128,-1,121
 196 1748 196 1748 204 1748 c 0,122,123
 234 1744 234 1744 340 1720 c 0,124,125
 344 1720 344 1720 356 1718 c 128,-1,126
 368 1716 368 1716 372 1714 c 2,127,-1
 570 1666 l 2,128,129
 590 1660 590 1660 596 1658 c 2,130,-1
 598 1656 l 1,131,-1
 598 1644 l 2,132,133
 596 1608 596 1608 568 1556 c 0,134,135
 556 1536 556 1536 542 1526 c 2,136,137
 542 1526 542 1526 494 1500 c 1,138,139
 498 1502 498 1502 527 1518.5 c 128,-1,140
 556 1535 556 1535 570 1546 c 0,141,142
 578 1552 578 1552 558 1544 c 0,143,144
 554 1542 554 1542 544 1535 c 0,145,146
 530 1529 530 1529 526 1528 c 0,147,148
 488 1510 488 1510 438 1496 c 0,149,150
 324 1464 324 1464 302 1462 c 1,151,-1
 296 1460 l 2,152,153
 292 1460 292 1460 288 1458 c 128,-1,154
 284 1456 284 1456 284 1454 c 0,155,156
 302 1428 302 1428 302 1420 c 0,157,158
 302 1416 302 1416 290 1412 c 128,-1,159
 278 1408 278 1408 246 1389 c 128,-1,160
 214 1370 214 1370 176 1338 c 1,161,-1
 178 1338 l 1,162,163
 186 1342 186 1342 190 1342 c 0,164,165
 206 1346 206 1346 216 1346 c 0,166,167
 224 1346 224 1346 249 1347 c 128,-1,168
 274 1348 274 1348 280 1348 c 0,169,170
 360 1344 360 1344 418 1326 c 0,171,172
 454 1314 454 1314 508 1264 c 0,173,174
 524 1248 524 1248 565 1211 c 128,-1,175
 606 1174 606 1174 635 1144 c 128,-1,176
 664 1114 664 1114 684 1082 c 0,177,178
 718 1026 718 1026 718 940 c 2,179,-1
 718 916 l 2,180,181
 718 874 718 874 710 840 c 0,182,183
 708 822 708 822 702 808 c 128,-1,184
 696 794 696 794 684 796 c 0,185,186
 680 796 680 796 678 796 c 128,-1,187
 676 796 676 796 678 798 c 0,188,189
 716 822 716 822 748 844 c 128,-1,190
 780 866 780 866 793 875 c 128,-1,191
 806 884 806 884 808 884 c 128,-1,192
 810 884 810 884 807 879 c 128,-1,193
 804 874 804 874 798 862 c 1,194,195
 788 860 788 860 784 860 c 128,-1,196
 780 860 780 860 769 866 c 128,-1,197
 758 872 758 872 756 872 c 2,198,-1
 744 872 l 1,199,200
 660 824 660 824 612 794 c 0,201,202
 606 792 606 792 597 780 c 128,-1,203
 588 768 588 768 582 766 c 1,204,205
 602 776 602 776 622 788 c 1,206,207
 610 782 610 782 526 752 c 0,208,209
 436 716 436 716 324 710 c 0,210,211
 320 710 320 710 308 709 c 128,-1,212
 296 708 296 708 292 708 c 2,213,-1
 272 708 l 2,214,215
 262 708 262 708 238 712 c 1,216,-1
 230 712 l 1,217,-1
 218 712 l 2,218,219
 216 712 216 712 212 713 c 128,-1,220
 208 714 208 714 206 714 c 2,221,-1
 202 714 l 1,222,-1
 206 710 l 1,223,224
 170 670 170 670 139 634 c 128,-1,225
 108 598 108 598 97 584 c 128,-1,226
 86 570 86 570 84 570 c 0,227,228
 80 570 80 570 94 594 c 1,229,-1
 94 596 l 1,230,231
 98 600 98 600 110 600 c 2,232,233
 110 600 110 600 112 600 c 2,234,-1
 116 598 l 1,235,-1
 120 596 l 1,236,-1
 124 596 l 2,237,238
 138 596 138 596 208 580 c 1,239,-1
 222 580 l 1,240,241
 250 562 250 562 252 562 c 0,242,243
 256 562 256 562 260 565 c 128,-1,244
 264 568 264 568 271 576 c 128,-1,245
 278 584 278 584 289 595 c 128,-1,246
 300 606 300 606 320 623 c 128,-1,247
 340 640 340 640 364 660 c 0,248,249
 366 662 366 662 362 666 c 0,250,251
 360 670 360 670 360 672 c 0,252,253
 360 678 360 678 359 689 c 128,-1,254
 358 700 358 700 357 715 c 128,-1,255
 356 730 356 730 352 750 c 0,256,257
 348 778 348 778 348 794 c 2,258,-1
 348 844 l 2,259,260
 348 852 348 852 347 869 c 128,-1,261
 346 886 346 886 346 894 c 2,262,-1
 346 962 l 2,263,264
 346 968 346 968 347 976 c 128,-1,265
 348 984 348 984 348 990 c 0,266,267
 348 1010 348 1010 348 1025 c 128,-1,268
 348 1040 348 1040 350 1060 c 0,269,270
 352 1082 352 1082 357 1123 c 128,-1,271
 362 1164 362 1164 364 1176 c 2,272,-1
 364 1206 l 2,273,274
 364 1208 364 1208 366 1230 c 128,-1,275
 368 1252 368 1252 368 1256 c 0,276,277
 368 1264 368 1264 363 1284 c 128,-1,278
 358 1304 358 1304 358 1308 c 0,279,280
 334 1450 334 1450 326 1556 c 0,281,282
 326 1560 326 1560 325 1568 c 128,-1,283
 324 1576 324 1576 324 1580 c 128,-1,284
 324 1584 324 1584 323 1592 c 128,-1,285
 322 1600 322 1600 322 1602 c 0,286,287
 322 1606 322 1606 320 1627 c 128,-1,288
 318 1648 318 1648 318 1650 c 2,289,-1
 318 1720 l 2,290,291
 318 1754 318 1754 314 1818 c 1,292,-1
 308 1854 l 1,293,-1
 304 1874 l 2,294,295
 302 1874 302 1874 228 1840 c 128,-1,296
 154 1806 154 1806 154 1804 c 0,297,298
 156 1796 156 1796 158 1794 c 0,299,300
 158 1792 158 1792 160 1788 c 0,301,302
 166 1758 166 1758 166 1754 c 0,303,304
 170 1734 170 1734 170 1722 c 2,305,-1
 170 1704 l 2,306,307
 170 1700 170 1700 171 1694 c 128,-1,308
 172 1688 172 1688 172 1684 c 128,-1,309
 172 1680 172 1680 173 1664 c 128,-1,310
 174 1648 174 1648 174 1644 c 2,311,-1
 174 1568 l 2,312,313
 174 1564 174 1564 175 1555 c 128,-1,314
 176 1546 176 1546 176 1542 c 0,315,316
 180 1500 180 1500 195 1415 c 128,-1,317
 210 1330 210 1330 216 1282 c 0,318,319
 220 1194 220 1194 220 1148 c 2,320,-1
 220 1124 l 2,321,322
 218 1098 218 1098 216 1054 c 0,323,324
 214 1040 214 1040 211 1013 c 128,-1,325
 208 986 208 986 206 965 c 128,-1,326
 204 944 204 944 204 924 c 2,327,-1
 204 906 l 1,328,329
 214 820 214 820 214 750 c 0,330,331
 214 668 214 668 206 634 c 0,332,333
 206 630 206 630 202 626 c 1,334,-1
 198 628 l 2,335,336
 202 630 202 630 223 654 c 128,-1,337
 244 678 244 678 268 698 c 128,-1,338
 292 718 292 718 310 718 c 0,339,340
 324 718 324 718 332 708 c 1,341,-1
 332 706 l 2,342,343
 330 706 330 706 325 704 c 128,-1,344
 320 702 320 702 318 702 c 2,345,-1
 292 702 l 1,346,347
 242 708 242 708 196 726 c 1,348,349
 172 730 172 730 170 730 c 0,350,351
 162 730 162 730 158 721 c 128,-1,352
 154 712 154 712 133 680 c 128,-1,353
 112 648 112 648 74 608 c 0,0,1
EndSplineSet
Validated: 37
EndChar

StartChar: C
Encoding: 67 67 38
Width: 799
GlyphClass: 2
Flags: W
LayerCount: 2
Fore
SplineSet
172 1782 m 0,0,1
 168 1778 168 1778 186 1740 c 0,2,3
 194 1722 194 1722 204 1662 c 2,4,-1
 206 1648 l 1,5,-1
 210 1632 l 2,6,7
 210 1628 210 1628 211 1624 c 128,-1,8
 212 1620 212 1620 212 1616 c 0,9,10
 218 1588 218 1588 218 1582 c 0,11,12
 218 1580 218 1580 219 1572 c 128,-1,13
 220 1564 220 1564 220 1562 c 2,14,-1
 220 1524 l 2,15,16
 220 1458 220 1458 208 1366 c 2,17,-1
 200 1292 l 1,18,-1
 200 1290 l 2,19,20
 200 1284 200 1284 194 1242 c 0,21,22
 190 1232 190 1232 186 1198 c 0,23,24
 186 1168 186 1168 182 1106 c 128,-1,25
 178 1044 178 1044 178 1012 c 2,26,-1
 178 952 l 2,27,28
 178 934 178 934 198 844 c 0,29,30
 198 842 198 842 202 822 c 128,-1,31
 206 802 206 802 206 800 c 0,32,33
 208 790 208 790 214 724 c 0,34,35
 214 718 214 718 215 706 c 128,-1,36
 216 694 216 694 216 688 c 2,37,-1
 216 654 l 2,38,39
 216 638 216 638 214 626 c 0,40,41
 214 622 214 622 213 612 c 128,-1,42
 212 602 212 602 212 598 c 0,43,44
 212 596 212 596 213 593 c 128,-1,45
 214 590 214 590 214 588 c 2,46,-1
 214 574 l 2,47,48
 214 572 214 572 215 564 c 128,-1,49
 216 556 216 556 216 554 c 0,50,51
 224 470 224 470 224 434 c 2,52,-1
 224 430 l 2,53,54
 226 422 226 422 224 424 c 0,55,56
 216 424 216 424 216 444 c 0,57,58
 216 472 216 472 255 501 c 128,-1,59
 294 530 294 530 322 530 c 0,60,61
 340 531 340 531 342 513 c 0,62,63
 342 509 342 509 336 508 c 2,64,-1
 334 508 l 1,65,-1
 342 498 l 1,66,-1
 342 506 l 2,67,68
 344 498 344 498 360 460 c 1,69,70
 340 446 340 446 298 419 c 128,-1,71
 256 392 256 392 236 378 c 1,72,73
 244 386 244 386 248 386 c 0,74,75
 278 390 278 390 286 396 c 1,76,77
 296 398 296 398 316 400 c 128,-1,78
 336 402 336 402 338 402 c 0,79,80
 374 406 374 406 429 418 c 128,-1,81
 484 430 484 430 520 434 c 0,82,83
 630 446 630 446 760 446 c 0,84,85
 762 446 762 446 1012 436 c 1,86,-1
 1116 554 l 1,87,88
 1098 554 1098 554 1088 553 c 128,-1,89
 1078 552 1078 552 1056 550 c 2,90,-1
 714 550 l 2,91,92
 640 550 640 550 614 548 c 0,93,94
 598 548 598 548 574 544 c 0,95,96
 544 542 544 542 477 531 c 128,-1,97
 410 520 410 520 370 520 c 1,98,99
 350 516 350 516 338 516 c 2,100,-1
 328 516 l 1,101,102
 306 502 306 502 263 474 c 128,-1,103
 220 446 220 446 198 432 c 1,104,105
 200 428 200 428 203 417 c 128,-1,106
 206 406 206 406 209 401 c 128,-1,107
 212 396 212 396 216 390 c 128,-1,108
 220 384 220 384 226 381 c 128,-1,109
 232 378 232 378 242 378 c 0,110,111
 266 374 266 374 270 374 c 0,112,113
 278 374 278 374 285 380 c 128,-1,114
 292 386 292 386 317 408 c 128,-1,115
 342 430 342 430 380 456 c 1,116,-1
 380 482 l 1,117,118
 380 482 380 482 380 488 c 2,119,120
 380 488 380 488 378 496 c 0,121,122
 378 506 378 506 375 526 c 128,-1,123
 372 546 372 546 372 556 c 0,124,125
 372 560 372 560 371 572 c 128,-1,126
 370 584 370 584 370 590 c 0,127,128
 370 592 370 592 369 594 c 128,-1,129
 368 596 368 596 368 598 c 2,130,-1
 368 614 l 2,131,132
 368 620 368 620 367 629 c 128,-1,133
 366 638 366 638 366 654 c 2,134,135
 366 654 366 654 366 656 c 2,136,-1
 366 680 l 1,137,-1
 366 728 l 2,138,139
 364 738 364 738 362 772 c 128,-1,140
 360 806 360 806 356 824 c 0,141,142
 350 860 350 860 334 932 c 2,143,-1
 328 956 l 1,144,145
 322 998 322 998 322 1038 c 0,146,147
 322 1042 322 1042 323 1051 c 128,-1,148
 324 1060 324 1060 324 1064 c 0,149,150
 326 1080 326 1080 328 1147 c 128,-1,151
 330 1214 330 1214 334 1248 c 0,152,153
 334 1252 334 1252 335 1262 c 128,-1,154
 336 1272 336 1272 336 1278 c 128,-1,155
 336 1284 336 1284 337 1294 c 128,-1,156
 338 1304 338 1304 338 1308 c 0,157,158
 344 1338 344 1338 349 1395 c 128,-1,159
 354 1452 354 1452 358 1474 c 0,160,161
 360 1480 360 1480 360 1491 c 128,-1,162
 360 1502 360 1502 360 1508 c 0,163,164
 366 1538 366 1538 366 1542 c 2,165,-1
 366 1572 l 2,166,167
 366 1584 366 1584 360 1662 c 0,168,169
 360 1664 360 1664 359 1670 c 128,-1,170
 358 1676 358 1676 358 1680 c 128,-1,171
 358 1684 358 1684 357 1690 c 128,-1,172
 356 1696 356 1696 356 1698 c 0,173,174
 356 1702 356 1702 356 1710 c 128,-1,175
 356 1718 356 1718 354 1722 c 0,176,177
 354 1734 354 1734 348 1764 c 1,178,-1
 348 1768 l 2,179,180
 346 1772 346 1772 346 1774 c 128,-1,181
 346 1776 346 1776 345 1778 c 128,-1,182
 344 1780 344 1780 344 1782 c 128,-1,183
 344 1784 344 1784 343 1789 c 128,-1,184
 342 1794 342 1794 340 1802 c 128,-1,185
 338 1810 338 1810 332 1822 c 1,186,-1
 332 1824 l 2,187,188
 334 1822 334 1822 334 1818 c 2,189,-1
 340 1796 l 1,190,191
 316 1780 316 1780 270 1755 c 128,-1,192
 224 1730 224 1730 210 1722 c 1,193,194
 210 1724 210 1724 212 1726 c 128,-1,195
 214 1728 214 1728 218 1729 c 128,-1,196
 222 1730 222 1730 224 1730 c 2,197,-1
 236 1730 l 1,198,-1
 238 1732 l 2,199,200
 240 1732 240 1732 242 1732 c 0,201,202
 256 1732 256 1732 262 1734 c 0,203,204
 270 1734 270 1734 288 1737 c 128,-1,205
 306 1740 306 1740 316 1740 c 0,206,207
 330 1740 330 1740 356 1742 c 128,-1,208
 382 1744 382 1744 396 1746 c 0,209,210
 398 1746 398 1746 405 1747 c 128,-1,211
 412 1748 412 1748 414 1748 c 128,-1,212
 416 1748 416 1748 420 1749 c 128,-1,213
 424 1750 424 1750 426 1750 c 2,214,-1
 438 1750 l 2,215,216
 444 1750 444 1750 456 1751 c 128,-1,217
 468 1752 468 1752 474 1752 c 0,218,219
 512 1748 512 1748 590 1748 c 0,220,221
 622 1748 622 1748 690 1756 c 0,222,223
 712 1756 712 1756 728 1764 c 1,224,-1
 732 1764 l 2,225,226
 736 1764 736 1764 736 1766 c 2,227,-1
 736 1768 l 1,228,-1
 738 1768 l 1,229,230
 740 1760 740 1760 742 1760 c 0,231,232
 768 1734 768 1734 768 1690 c 0,233,234
 768 1686 768 1686 772 1675 c 128,-1,235
 776 1664 776 1664 776 1658 c 2,236,-1
 780 1640 l 2,237,238
 780 1638 780 1638 780 1636 c 2,239,-1
 782 1632 l 1,240,-1
 784 1628 l 1,241,-1
 784 1624 l 1,242,-1
 786 1620 l 1,243,-1
 788 1616 l 1,244,-1
 788 1604 l 1,245,246
 798 1554 798 1554 798 1510 c 2,247,-1
 798 1494 l 2,248,249
 798 1490 798 1490 797 1485 c 128,-1,250
 796 1480 796 1480 796 1478 c 2,251,-1
 796 1442 l 1,252,253
 796 1442 796 1442 796 1440 c 2,254,-1
 794 1436 l 1,255,-1
 832 1450 l 2,256,257
 872 1464 872 1464 910 1480 c 2,258,-1
 948 1494 l 1,259,260
 948 1508 948 1508 947 1531 c 128,-1,261
 946 1554 946 1554 946 1568 c 0,262,263
 946 1668 946 1668 934 1692 c 0,264,265
 934 1694 934 1694 933 1697 c 128,-1,266
 932 1700 932 1700 932 1702 c 128,-1,267
 932 1704 932 1704 931 1706 c 128,-1,268
 930 1708 930 1708 930 1710 c 0,269,270
 928 1716 928 1716 925 1730 c 128,-1,271
 922 1744 922 1744 920 1750 c 0,272,273
 920 1752 920 1752 918 1754 c 128,-1,274
 916 1756 916 1756 916 1758 c 128,-1,275
 916 1760 916 1760 914 1768 c 128,-1,276
 912 1776 912 1776 909 1790 c 128,-1,277
 906 1804 906 1804 902 1818 c 0,278,279
 900 1822 900 1822 895 1831 c 128,-1,280
 890 1840 890 1840 888 1844 c 128,-1,281
 886 1848 886 1848 880 1856 c 0,282,283
 878 1858 878 1858 877 1859 c 128,-1,284
 876 1860 876 1860 876 1862 c 0,285,286
 860 1878 860 1878 856 1878 c 0,287,288
 824 1886 824 1886 818 1886 c 0,289,290
 816 1886 816 1886 814 1885 c 128,-1,291
 812 1884 812 1884 810 1884 c 128,-1,292
 808 1884 808 1884 803 1883 c 128,-1,293
 798 1882 798 1882 796 1882 c 0,294,295
 664 1870 664 1870 654 1870 c 0,296,297
 640 1870 640 1870 618 1871 c 128,-1,298
 596 1872 596 1872 584 1872 c 0,299,300
 580 1872 580 1872 571 1873 c 128,-1,301
 562 1874 562 1874 558 1874 c 0,302,303
 532 1874 532 1874 422 1864 c 0,304,305
 416 1864 416 1864 397 1863 c 128,-1,306
 378 1862 378 1862 368 1860 c 0,307,308
 364 1860 364 1860 350 1858 c 128,-1,309
 336 1856 336 1856 330 1858 c 2,310,-1
 306 1858 l 1,311,312
 294 1850 294 1850 245 1825 c 128,-1,313
 196 1800 196 1800 172 1782 c 0,0,1
EndSplineSet
Validated: 5
EndChar

StartChar: D
Encoding: 68 68 39
Width: 799
GlyphClass: 2
Flags: W
LayerCount: 2
Fore
SplineSet
-74 356 m 0,0,1
 -74 348 -74 348 4 348 c 0,2,3
 16 348 16 348 40 347 c 128,-1,4
 64 346 64 346 76 346 c 0,5,6
 90 346 90 346 116 349 c 128,-1,7
 142 352 142 352 154 352 c 2,8,-1
 156 352 l 1,9,10
 158 348 158 348 160 338 c 1,11,-1
 196 356 l 1,12,13
 222 356 222 356 249 360 c 128,-1,14
 276 364 276 364 310 373 c 128,-1,15
 344 382 344 382 360 384 c 0,16,17
 460 406 460 406 494 416 c 0,18,19
 658 456 658 456 712 484 c 0,20,21
 842 558 842 558 890 592 c 0,22,23
 924 616 924 616 934 626 c 0,24,25
 942 634 942 634 956 651 c 128,-1,26
 970 668 970 668 976 674 c 0,27,28
 980 680 980 680 984 690 c 128,-1,29
 988 700 988 700 992 706 c 0,30,31
 1040 784 1040 784 1050 798 c 0,32,33
 1078 838 1078 838 1078 934 c 1,34,35
 1072 1024 1072 1024 1060 1104 c 0,36,37
 1046 1172 1046 1172 1018 1250 c 1,38,39
 946 1404 946 1404 848 1518 c 0,40,41
 786 1594 786 1594 680 1672 c 0,42,43
 658 1688 658 1688 582 1736 c 0,44,45
 560 1752 560 1752 554 1756 c 0,46,47
 544 1762 544 1762 524 1774 c 128,-1,48
 504 1786 504 1786 500 1788 c 0,49,50
 498 1790 498 1790 494 1793 c 128,-1,51
 490 1796 490 1796 488 1796 c 0,52,53
 444 1818 444 1818 352 1826 c 0,54,55
 338 1826 338 1826 315 1829 c 128,-1,56
 292 1832 292 1832 286 1832 c 2,57,-1
 212 1832 l 2,58,59
 204 1832 204 1832 190 1831 c 128,-1,60
 176 1830 176 1830 168 1830 c 2,61,-1
 144 1830 l 1,62,-1
 140 1828 l 1,63,-1
 136 1828 l 1,64,-1
 36 1696 l 1,65,66
 62 1704 62 1704 96 1708 c 1,67,68
 140 1510 140 1510 140 1222 c 2,69,-1
 140 1150 l 2,70,71
 140 1142 140 1142 116 738 c 0,72,73
 116 732 116 732 115 718 c 128,-1,74
 114 704 114 704 114 698 c 0,75,76
 114 662 114 662 120 599 c 128,-1,77
 126 536 126 536 126 508 c 0,78,79
 126 504 126 504 127 495 c 128,-1,80
 128 486 128 486 128 482 c 0,81,82
 128 480 128 480 129 475 c 128,-1,83
 130 470 130 470 130 466 c 1,84,-1
 110 466 l 2,85,86
 108 466 108 466 81 469 c 128,-1,87
 54 472 54 472 40 472 c 0,88,89
 38 472 38 472 -18 415 c 128,-1,90
 -74 358 -74 358 -74 356 c 0,0,1
244 1552 m 2,91,-1
 244 1706 l 1,92,93
 278 1706 278 1706 314 1700 c 0,94,95
 316 1700 316 1700 321 1699 c 128,-1,96
 326 1698 326 1698 328 1698 c 128,-1,97
 330 1698 330 1698 332 1697 c 128,-1,98
 334 1696 334 1696 336 1696 c 2,99,-1
 346 1694 l 1,100,-1
 356 1692 l 2,101,102
 374 1686 374 1686 404 1668 c 128,-1,103
 434 1650 434 1650 440 1648 c 0,104,105
 456 1638 456 1638 489 1619 c 128,-1,106
 522 1600 522 1600 538 1590 c 0,107,108
 638 1524 638 1524 726 1436 c 1,109,110
 786 1368 786 1368 838 1276 c 0,111,112
 882 1206 882 1206 906 1112 c 1,113,114
 932 1034 932 1034 932 912 c 2,115,-1
 932 878 l 2,116,117
 930 840 930 840 914 804 c 0,118,119
 912 800 912 800 908 791 c 128,-1,120
 904 782 904 782 902 778 c 0,121,122
 898 770 898 770 887 753 c 128,-1,123
 876 736 876 736 872 728 c 2,124,-1
 860 710 l 2,125,126
 820 650 820 650 808 638 c 0,127,128
 768 604 768 604 762 600 c 2,129,-1
 758 596 l 1,130,131
 758 596 758 596 756 596 c 2,132,-1
 752 594 l 2,133,134
 704 568 704 568 588 540 c 0,135,136
 566 534 566 534 522 524 c 128,-1,137
 478 514 478 514 456 508 c 0,138,139
 390 492 390 492 288 478 c 1,140,-1
 286 480 l 1,141,142
 276 518 276 518 264 594 c 0,143,144
 260 614 260 614 260 624 c 0,145,146
 256 660 256 660 256 690 c 2,147,-1
 256 824 l 2,148,149
 256 830 256 830 258 842 c 128,-1,150
 260 854 260 854 260 860 c 0,151,152
 264 948 264 948 264 994 c 2,153,-1
 264 1128 l 2,154,155
 264 1176 264 1176 258 1272 c 0,156,157
 256 1286 256 1286 254 1315 c 128,-1,158
 252 1344 252 1344 252 1360 c 0,159,160
 244 1484 244 1484 244 1552 c 2,91,-1
792 614 m 2,161,162
 796 616 796 616 798 620 c 2,163,-1
 792 614 l 2,161,162
EndSplineSet
Validated: 9
EndChar

StartChar: E
Encoding: 69 69 40
Width: 799
GlyphClass: 2
Flags: W
LayerCount: 2
Fore
SplineSet
78 684 m 2,0,1
 80 680 80 680 80 668 c 128,-1,2
 80 656 80 656 80 652 c 0,3,4
 80 644 80 644 86 626 c 0,5,6
 98 576 98 576 122 532 c 1,7,8
 180 458 180 458 244 434 c 0,9,10
 292 420 292 420 376 408 c 0,11,12
 390 408 390 408 415 404 c 128,-1,13
 440 400 440 400 452 400 c 2,14,-1
 474 400 l 2,15,16
 480 400 480 400 496.5 401 c 128,-1,17
 513 402 513 402 520 402 c 0,18,19
 526 404 526 404 539 404 c 128,-1,20
 552 404 552 404 558 404 c 0,21,22
 560 404 560 404 566 407 c 128,-1,23
 572 410 572 410 574 410 c 2,24,-1
 590 410 l 2,25,26
 598 412 598 412 627 417 c 128,-1,27
 656 422 656 422 672 426 c 0,28,29
 772 456 772 456 838 524 c 0,30,31
 852 534 852 534 870 557 c 128,-1,32
 888 580 888 580 894 586 c 0,33,34
 904 596 904 596 906 606 c 2,35,-1
 906 610 l 2,36,37
 906 612 906 612 907 616 c 2,38,-1
 908 620 l 1,39,-1
 908 634 l 1,40,-1
 868 620 l 2,41,42
 830 608 830 608 792 594 c 2,43,-1
 752 580 l 2,44,45
 752 578 752 578 750 578 c 0,46,47
 744 578 744 578 730 564 c 0,48,49
 720 552 720 552 708 542 c 0,50,51
 706 542 706 542 703 537 c 128,-1,52
 700 532 700 532 698 530 c 2,53,-1
 674 513 l 1,54,-1
 800 588 l 2,55,56
 780 574 780 574 762 560 c 0,57,58
 730 542 730 542 690 536 c 0,59,60
 688 536 688 536 683 534 c 128,-1,61
 678 532 678 532 676 532 c 0,62,63
 618 518 618 518 532 518 c 0,64,65
 368 518 368 518 298 574 c 1,66,-1
 272 600 l 2,67,68
 228 644 228 644 228 740 c 2,69,-1
 228 812 l 2,70,71
 228 814 228 814 229 819 c 128,-1,72
 230 824 230 824 230 826 c 0,73,74
 230 848 230 848 242 912 c 0,75,76
 242 914 242 914 244 920 c 128,-1,77
 246 926 246 926 246 928 c 0,78,79
 250 936 250 936 250 940 c 2,80,-1
 250 952 l 2,81,82
 252 966 252 966 268 1018 c 0,83,84
 274 1028 274 1028 280 1049 c 128,-1,85
 286 1070 286 1070 290 1078 c 0,86,87
 300 1108 300 1108 312 1114 c 2,88,-1
 346 1126 l 1,89,90
 314 1110 314 1110 204 1050 c 1,91,92
 214 1060 214 1060 233 1068 c 128,-1,93
 252 1076 252 1076 264 1080 c 128,-1,94
 276 1084 276 1084 304 1089 c 128,-1,95
 332 1094 332 1094 338 1096 c 0,96,97
 398 1110 398 1110 504 1126 c 0,98,99
 508 1126 508 1126 518 1126 c 128,-1,100
 528 1126 528 1126 532 1128 c 0,101,102
 648 1184 648 1184 676 1210 c 0,103,104
 682 1216 682 1216 682 1222 c 0,105,106
 682 1232 682 1232 650 1264 c 0,107,108
 648 1264 648 1264 642 1265 c 128,-1,109
 636 1266 636 1266 634 1266 c 2,110,-1
 610 1266 l 2,111,112
 604 1266 604 1266 594 1267 c 128,-1,113
 584 1268 584 1268 578 1268 c 0,114,115
 490 1276 490 1276 434 1290 c 0,116,117
 358 1308 358 1308 310 1362 c 1,118,119
 284 1404 284 1404 272 1442 c 0,120,121
 268 1454 268 1454 268 1460 c 0,122,123
 266 1466 266 1466 268 1478 c 128,-1,124
 270 1490 270 1490 270 1494 c 0,125,126
 276 1518 276 1518 292 1550 c 2,127,-1
 298 1566 l 1,128,-1
 308 1584 l 1,129,130
 362 1672 362 1672 422 1732 c 0,131,132
 424 1734 424 1734 427 1736 c 128,-1,133
 430 1738 430 1738 432 1740 c 128,-1,134
 434 1742 434 1742 443 1750 c 128,-1,135
 452 1758 452 1758 456 1760 c 2,136,-1
 334 1690 l 1,137,-1
 348 1700 l 2,138,139
 360 1708 360 1708 371 1714 c 128,-1,140
 382 1720 382 1720 397 1726 c 128,-1,141
 412 1732 412 1732 422 1730 c 2,142,-1
 478 1730 l 1,143,-1
 502 1724 l 2,144,145
 518 1724 518 1724 530 1712 c 0,146,147
 572 1686 572 1686 580 1672 c 0,148,149
 582 1672 582 1672 649 1718 c 128,-1,150
 716 1764 716 1764 716 1766 c 2,151,-1
 710 1772 l 2,152,153
 702 1780 702 1780 683 1792 c 128,-1,154
 664 1804 664 1804 658 1810 c 0,155,156
 630 1832 630 1832 594 1844 c 1,157,158
 522 1858 522 1858 468 1848 c 0,159,160
 442 1842 442 1842 421 1832 c 128,-1,161
 400 1822 400 1822 362 1797 c 128,-1,162
 324 1772 324 1772 314 1766 c 2,163,-1
 294 1746 l 2,164,165
 250 1702 250 1702 156 1554 c 0,166,167
 120 1492 120 1492 120 1442 c 0,168,169
 120 1316 120 1316 232 1234 c 0,170,171
 326 1170 326 1170 514 1146 c 0,172,173
 530 1146 530 1146 538 1144 c 1,174,175
 513 1170 513 1170 513 1186 c 0,176,177
 513 1200 513 1200 529.5 1209 c 128,-1,178
 546 1218 546 1218 577 1232 c 128,-1,179
 608 1246 608 1246 628 1260 c 0,180,181
 632 1262 632 1262 626 1260 c 0,182,183
 624 1260 624 1260 622 1258 c 0,184,185
 604 1250 604 1250 598 1248 c 0,186,187
 586 1246 586 1246 330 1194 c 0,188,189
 192 1170 192 1170 152 1092 c 2,190,-1
 144 1076 l 1,191,-1
 144 1074 l 2,192,193
 142 1072 142 1072 142 1070 c 256,194,195
 142 1068 142 1068 140 1064 c 0,196,197
 134 1052 134 1052 134 1038 c 1,198,199
 104 970 104 970 88 864 c 0,200,201
 88 850 88 850 83 820 c 128,-1,202
 78 790 78 790 78 774 c 2,203,-1
 78 684 l 2,0,1
EndSplineSet
Validated: 37
EndChar

StartChar: F
Encoding: 70 70 41
Width: 799
GlyphClass: 2
Flags: W
LayerCount: 2
Fore
SplineSet
460 1874 m 1,0,-1
 462 1874 l 1,1,-1
 460 1876 l 1,2,-1
 460 1874 l 1,0,-1
56 428 m 1,3,-1
 96 432 l 2,4,5
 136 436 136 436 176 440 c 2,6,-1
 218 446 l 1,7,8
 258 498 258 498 258 500 c 0,9,10
 274 532 274 532 284 566 c 0,11,12
 308 648 308 648 354 825 c 128,-1,13
 400 1002 400 1002 422 1062 c 0,14,15
 430 1084 430 1084 436 1102 c 128,-1,16
 442 1120 442 1120 450 1146 c 0,17,18
 462 1182 462 1182 468 1230 c 1,19,-1
 526 1230 l 2,20,21
 562 1230 562 1230 580 1229 c 128,-1,22
 598 1228 598 1228 610 1226 c 128,-1,23
 622 1224 622 1224 634 1224 c 2,24,-1
 654 1224 l 2,25,26
 656 1224 656 1224 662 1223 c 128,-1,27
 668 1222 668 1222 670 1222 c 128,-1,28
 672 1222 672 1222 680 1221 c 128,-1,29
 688 1220 688 1220 692 1220 c 2,30,-1
 720 1220 l 2,31,32
 724 1220 724 1220 730 1219 c 128,-1,33
 736 1218 736 1218 738 1218 c 2,34,-1
 740 1218 l 1,35,-1
 742 1220 l 1,36,-1
 744 1220 l 1,37,38
 744 1220 744 1220 748 1220 c 0,39,40
 750 1220 750 1220 752 1222 c 2,41,-1
 754 1224 l 2,42,43
 756 1224 756 1224 758 1224 c 2,44,-1
 760 1224 l 1,45,-1
 762 1226 l 1,46,-1
 864 1356 l 1,47,-1
 858 1356 l 2,48,49
 850 1356 850 1356 846 1354 c 0,50,51
 844 1354 844 1354 844 1352 c 1,52,53
 840 1352 840 1352 838 1350 c 0,54,55
 838 1348 838 1348 838 1346 c 2,56,-1
 828 1346 l 2,57,58
 824 1346 824 1346 814 1344 c 128,-1,59
 804 1342 804 1342 800 1342 c 0,60,61
 788 1340 788 1340 758 1340 c 0,62,63
 754 1340 754 1340 747 1339 c 128,-1,64
 740 1338 740 1338 736 1338 c 2,65,-1
 706 1338 l 1,66,-1
 670 1336 l 2,67,68
 664 1336 664 1336 650 1337 c 128,-1,69
 636 1338 636 1338 628 1338 c 2,70,-1
 582 1338 l 2,71,72
 568 1338 568 1338 540 1342 c 0,73,74
 534 1342 534 1342 521 1343 c 128,-1,75
 508 1344 508 1344 497 1345 c 128,-1,76
 486 1346 486 1346 478 1348 c 0,77,78
 478 1352 478 1352 479 1360 c 128,-1,79
 480 1368 480 1368 480 1372 c 0,80,81
 480 1418 480 1418 471 1507 c 128,-1,82
 462 1596 462 1596 462 1640 c 2,83,-1
 462 1672 l 2,84,85
 462 1680 462 1680 461 1697 c 128,-1,86
 460 1714 460 1714 460 1722 c 2,87,-1
 460 1732 l 1,88,89
 464 1732 464 1732 470 1731 c 128,-1,90
 476 1730 476 1730 480 1730 c 0,91,92
 520 1726 520 1726 598 1713 c 128,-1,93
 676 1700 676 1700 716 1698 c 0,94,95
 720 1698 720 1698 729 1697 c 128,-1,96
 738 1696 738 1696 744 1696 c 0,97,98
 754 1696 754 1696 758 1698 c 0,99,100
 760 1698 760 1698 760 1697 c 128,-1,101
 760 1696 760 1696 762 1696 c 2,102,-1
 872 1822 l 1,103,-1
 868 1822 l 2,104,105
 866 1820 866 1820 862 1822 c 128,-1,106
 858 1824 858 1824 856 1822 c 2,107,-1
 850 1822 l 1,108,-1
 850 1822 l 1,109,110
 846 1822 846 1822 838 1821 c 128,-1,111
 830 1820 830 1820 826 1820 c 2,112,-1
 808 1820 l 2,113,114
 804 1820 804 1820 796 1821 c 128,-1,115
 788 1822 788 1822 782 1822 c 2,116,-1
 748 1822 l 1,117,118
 722 1826 722 1826 668 1832 c 128,-1,119
 614 1838 614 1838 588 1840 c 0,120,121
 532 1840 532 1840 480 1864 c 2,122,-1
 460 1874 l 1,123,124
 436 1864 436 1864 383 1841 c 128,-1,125
 330 1818 330 1818 306 1808 c 1,126,127
 308 1806 308 1806 308 1794 c 2,128,-1
 308 1736 l 1,129,-1
 308 1698 l 2,130,131
 308 1694 308 1694 309 1682 c 128,-1,132
 310 1670 310 1670 310 1666 c 128,-1,133
 310 1662 310 1662 309 1652 c 128,-1,134
 308 1642 308 1642 308 1636 c 2,135,-1
 308 1614 l 1,136,-1
 308 1602 l 2,137,138
 310 1600 310 1600 310 1592 c 2,139,-1
 310 1582 l 2,140,141
 310 1566 310 1566 314 1542 c 0,142,143
 314 1540 314 1540 315 1526 c 128,-1,144
 316 1512 316 1512 316 1510 c 128,-1,145
 316 1508 316 1508 317 1502 c 128,-1,146
 318 1496 318 1496 318 1494 c 0,147,148
 320 1478 320 1478 325 1450 c 128,-1,149
 330 1422 330 1422 332 1410 c 2,150,-1
 332 1390 l 1,151,152
 336 1354 336 1354 336 1332 c 2,153,-1
 336 1316 l 2,154,155
 336 1258 336 1258 332 1230 c 0,156,157
 330 1214 330 1214 325 1198 c 128,-1,158
 320 1182 320 1182 318 1170 c 2,159,-1
 312 1140 l 2,160,161
 310 1128 310 1128 296 1066 c 0,162,163
 288 1024 288 1024 268 952 c 128,-1,164
 248 880 248 880 240 850 c 0,165,166
 176 592 176 592 120 498 c 0,167,168
 86 448 86 448 56 428 c 1,3,-1
464 1868 m 1,169,-1
 464 1870 l 1,170,-1
 464 1868 l 1,169,-1
EndSplineSet
Validated: 5
EndChar

StartChar: G
Encoding: 71 71 42
Width: 799
GlyphClass: 2
Flags: W
LayerCount: 2
Fore
SplineSet
92 1314 m 2,0,1
 92 1270 92 1270 97 1224 c 128,-1,2
 102 1178 102 1178 112 1119 c 128,-1,3
 122 1060 122 1060 126 1036 c 0,4,5
 126 1032 126 1032 127 1028 c 128,-1,6
 128 1024 128 1024 128 1020 c 128,-1,7
 128 1016 128 1016 129 1012 c 128,-1,8
 130 1008 130 1008 130 1004 c 0,9,10
 134 986 134 986 137 968 c 128,-1,11
 140 950 140 950 142 944 c 0,12,13
 142 942 142 942 143 939 c 128,-1,14
 144 936 144 936 144 934 c 128,-1,15
 144 932 144 932 145 930 c 128,-1,16
 146 928 146 928 146 926 c 0,17,18
 148 922 148 922 148 915 c 128,-1,19
 148 908 148 908 148 906 c 2,20,-1
 148 898 l 2,21,22
 148 894 148 894 150 885 c 128,-1,23
 152 876 152 876 152 872 c 2,24,-1
 152 856 l 2,25,26
 152 852 152 852 154 836 c 128,-1,27
 156 820 156 820 156 818 c 128,-1,28
 156 816 156 816 157 808 c 128,-1,29
 158 800 158 800 158 798 c 2,30,-1
 158 776 l 1,31,-1
 186 582 l 1,32,33
 208 486 208 486 234 462 c 0,34,35
 248 448 248 448 268 442 c 0,36,37
 310 424 310 424 382 412 c 2,38,-1
 452 398 l 2,39,40
 462 398 462 398 480 396 c 128,-1,41
 498 394 498 394 513 393 c 128,-1,42
 528 392 528 392 542 392 c 2,43,-1
 566 392 l 2,44,45
 570 392 570 392 578 393 c 128,-1,46
 586 394 586 394 590 394 c 0,47,48
 600 394 600 394 636 404 c 0,49,50
 666 414 666 414 678 422 c 0,51,52
 696 432 696 432 733 451 c 128,-1,53
 770 470 770 470 796 486 c 128,-1,54
 822 502 822 502 844 522 c 0,55,56
 896 574 896 574 908 796 c 1,57,-1
 908 836 l 2,58,59
 908 870 908 870 903 904 c 128,-1,60
 898 938 898 938 889 979 c 128,-1,61
 880 1020 880 1020 878 1038 c 1,62,-1
 872 1050 l 2,63,64
 870 1054 870 1054 869 1064 c 128,-1,65
 868 1074 868 1074 865 1084 c 128,-1,66
 862 1094 862 1094 856 1102 c 0,67,68
 840 1132 840 1132 806 1136 c 1,69,-1
 780 1136 l 2,70,71
 778 1136 778 1136 774 1137 c 128,-1,72
 770 1138 770 1138 768 1138 c 2,73,-1
 628 1138 l 2,74,75
 616 1140 616 1140 591 1140 c 128,-1,76
 566 1140 566 1140 552 1140 c 0,77,78
 512 1140 512 1140 492 1142 c 0,79,80
 472 1142 472 1142 472 1140 c 2,81,-1
 474 1138 l 1,82,-1
 474 1134 l 2,83,84
 476 1134 476 1134 478 1128 c 0,85,86
 482 1120 482 1120 484 1128 c 2,87,-1
 484 1134 l 2,88,89
 484 1138 484 1138 486 1144 c 1,90,-1
 448 1130 l 2,91,92
 408 1116 408 1116 368 1100 c 2,93,-1
 330 1086 l 2,94,95
 330 1084 330 1084 331 1082 c 128,-1,96
 332 1080 332 1080 332 1076 c 2,97,-1
 332 1074 l 2,98,99
 330 1072 330 1072 330 1070 c 0,100,101
 330 1044 330 1044 346 1028 c 1,102,-1
 352 1024 l 2,103,104
 356 1020 356 1020 358 1018 c 0,105,106
 362 1016 362 1016 370 1017 c 128,-1,107
 378 1018 378 1018 382 1018 c 2,108,-1
 444 1018 l 1,109,-1
 520 1018 l 2,110,111
 522 1018 522 1018 548 1016 c 2,112,-1
 674 1016 l 2,113,114
 700 1016 700 1016 706 1018 c 0,115,116
 708 1018 708 1018 708 1019 c 128,-1,117
 708 1020 708 1020 710 1020 c 2,118,-1
 710 1022 l 2,119,120
 712 1022 712 1022 717 1010 c 128,-1,121
 722 998 722 998 722 996 c 0,122,123
 724 992 724 992 726 983 c 128,-1,124
 728 974 728 974 730 970 c 0,125,126
 732 960 732 960 748 885 c 128,-1,127
 764 810 764 810 764 766 c 0,128,129
 764 762 764 762 763 754 c 128,-1,130
 762 746 762 746 762 742 c 2,131,-1
 762 690 l 1,132,133
 754 576 754 576 714 536 c 0,134,135
 708 528 708 528 691 516 c 128,-1,136
 674 504 674 504 656 493 c 128,-1,137
 638 482 638 482 636 480 c 1,138,139
 654 490 654 490 708 522 c 1,140,141
 652 506 652 506 610 506 c 0,142,143
 592 506 592 506 556 510 c 1,144,145
 458 510 458 510 378 552 c 0,146,147
 376 552 376 552 374 552 c 128,-1,148
 372 552 372 552 370 554 c 0,149,150
 364 558 364 558 352 580 c 0,151,152
 344 588 344 588 344 596 c 0,153,154
 342 600 342 600 342 608 c 0,155,156
 340 624 340 624 332 646 c 0,157,158
 324 680 324 680 312 752 c 0,159,160
 312 754 312 754 309 773 c 128,-1,161
 306 792 306 792 306 794 c 2,162,-1
 306 814 l 2,163,164
 306 816 306 816 304 836 c 2,165,-1
 302 856 l 1,166,-1
 302 878 l 2,167,168
 302 884 302 884 301 896 c 128,-1,169
 300 908 300 908 300 914 c 2,170,-1
 300 976 l 2,171,172
 298 988 298 988 290 1014 c 128,-1,173
 282 1040 282 1040 280 1052 c 2,174,-1
 280 1066 l 2,175,176
 280 1070 280 1070 275 1083 c 128,-1,177
 270 1096 270 1096 270 1102 c 0,178,179
 238 1272 238 1272 238 1352 c 2,180,-1
 238 1394 l 2,181,182
 240 1404 240 1404 240 1422 c 128,-1,183
 240 1440 240 1440 242 1448 c 0,184,185
 260 1632 260 1632 328 1768 c 1,186,187
 348 1798 348 1798 354 1804 c 0,188,189
 356 1806 356 1806 380 1824 c 1,190,191
 368 1818 368 1818 344 1804 c 128,-1,192
 320 1790 320 1790 308 1784 c 1,193,194
 374 1818 374 1818 468 1828 c 0,195,196
 470 1828 470 1828 492 1831 c 128,-1,197
 514 1834 514 1834 516 1834 c 0,198,199
 528 1836 528 1836 553 1836 c 128,-1,200
 578 1836 578 1836 590 1836 c 0,201,202
 614 1836 614 1836 632 1830 c 0,203,204
 634 1828 634 1828 639 1826 c 128,-1,205
 644 1824 644 1824 648 1822 c 0,206,207
 676 1794 676 1794 684 1760 c 0,208,209
 684 1758 684 1758 685 1753 c 128,-1,210
 686 1748 686 1748 686 1746 c 128,-1,211
 686 1744 686 1744 687 1738 c 128,-1,212
 688 1732 688 1732 688 1730 c 0,213,214
 688 1710 688 1710 680 1682 c 2,215,-1
 668 1646 l 1,216,217
 640 1578 640 1578 566 1518 c 1,218,-1
 608 1520 l 2,219,220
 648 1524 648 1524 688 1528 c 2,221,-1
 730 1534 l 1,222,223
 734 1542 734 1542 736 1544 c 2,224,-1
 748 1560 l 1,225,-1
 746 1556 l 2,226,227
 750 1560 750 1560 760 1574 c 0,228,229
 766 1584 766 1584 779 1603 c 128,-1,230
 792 1622 792 1622 798 1630 c 0,231,232
 828 1678 828 1678 834 1712 c 0,233,234
 834 1716 834 1716 835 1722 c 128,-1,235
 836 1728 836 1728 836 1730 c 0,236,237
 838 1742 838 1742 838 1768 c 0,238,239
 838 1796 838 1796 826 1828 c 0,240,241
 796 1926 796 1926 730 1946 c 1,242,243
 676 1958 676 1958 642 1954 c 0,244,245
 628 1952 628 1952 604 1950 c 128,-1,246
 580 1948 580 1948 566 1948 c 0,247,248
 468 1942 468 1942 398 1918 c 0,249,250
 394 1916 394 1916 384 1911 c 128,-1,251
 374 1906 374 1906 370 1906 c 0,252,253
 364 1902 364 1902 298 1865 c 128,-1,254
 232 1828 232 1828 210 1798 c 0,255,256
 178 1756 178 1756 156 1674 c 1,257,258
 130 1594 130 1594 120 1530 c 1,259,260
 92 1410 92 1410 92 1340 c 2,261,-1
 92 1314 l 2,0,1
EndSplineSet
Validated: 37
EndChar

StartChar: H
Encoding: 72 72 43
Width: 799
GlyphClass: 2
Flags: W
LayerCount: 2
Fore
SplineSet
-38 466 m 1,0,-1
 0 476 l 2,1,2
 40 488 40 488 80 500 c 2,3,-1
 120 514 l 1,4,5
 120 556 120 556 130 606 c 2,6,-1
 140 656 l 2,7,8
 144 668 144 668 148 692 c 128,-1,9
 152 716 152 716 154 728 c 0,10,11
 160 754 160 754 187 847 c 128,-1,12
 214 940 214 940 228 1002 c 128,-1,13
 242 1064 242 1064 250 1128 c 0,14,15
 256 1158 256 1158 256 1188 c 0,16,17
 256 1194 256 1194 257 1206 c 128,-1,18
 258 1218 258 1218 258 1224 c 128,-1,19
 258 1230 258 1230 259 1244 c 128,-1,20
 260 1258 260 1258 260 1264 c 0,21,22
 260 1298 260 1298 274 1420 c 0,23,24
 274 1424 274 1424 278 1447 c 128,-1,25
 282 1470 282 1470 282 1480 c 0,26,27
 282 1484 282 1484 283 1493 c 128,-1,28
 284 1502 284 1502 284 1506 c 128,-1,29
 284 1510 284 1510 285 1520 c 0,30,31
 286 1529 286 1529 286 1535 c 0,32,33
 286 1549 286 1549 287 1591.5 c 128,-1,34
 288 1634 288 1634 288 1664 c 2,35,-1
 288 1682 l 1,36,-1
 290 1700 l 1,37,-1
 290 1716 l 1,38,-1
 290 1746 l 1,39,-1
 290 1796 l 1,40,-1
 290 1836 l 1,41,-1
 290 1848 l 1,42,-1
 290 1876 l 2,43,44
 290 1880 290 1880 291 1894 c 128,-1,45
 292 1908 292 1908 292 1921 c 128,-1,46
 292 1934 292 1934 291 1947 c 128,-1,47
 290 1960 290 1960 288 1968 c 128,-1,48
 286 1976 286 1976 280 1974 c 0,49,50
 210 1952 210 1952 128 1908 c 0,51,52
 126 1906 126 1906 127 1904 c 128,-1,53
 128 1902 128 1902 129 1898 c 128,-1,54
 130 1894 130 1894 130 1892 c 2,55,-1
 130 1884 l 2,56,57
 130 1882 130 1882 129 1878 c 128,-1,58
 128 1874 128 1874 128 1872 c 2,59,-1
 128 1794 l 2,60,61
 128 1750 128 1750 132 1666 c 0,62,63
 132 1658 132 1658 133 1646 c 128,-1,64
 134 1634 134 1634 134 1630 c 2,65,-1
 134 1596 l 1,66,-1
 134 1566 l 1,67,-1
 132 1535 l 2,68,69
 132 1531 132 1531 133 1521.5 c 128,-1,70
 134 1512 134 1512 134 1508 c 0,71,72
 134 1500 134 1500 133 1480 c 128,-1,73
 132 1460 132 1460 132 1450 c 2,74,-1
 132 1438 l 2,75,76
 132 1436 132 1436 133 1426 c 128,-1,77
 134 1416 134 1416 134 1414 c 0,78,79
 134 1410 134 1410 133 1404 c 128,-1,80
 132 1398 132 1398 132 1394 c 0,81,82
 132 1392 132 1392 133 1384 c 128,-1,83
 134 1376 134 1376 134 1372 c 0,84,85
 134 1362 134 1362 134 1357 c 128,-1,86
 134 1352 134 1352 134 1351 c 128,-1,87
 134 1350 134 1350 133 1350 c 128,-1,88
 132 1350 132 1350 132 1345 c 128,-1,89
 132 1340 132 1340 132 1330 c 0,90,91
 132 1328 132 1328 133 1322 c 128,-1,92
 134 1316 134 1316 134 1312 c 0,93,94
 142 1180 142 1180 142 1114 c 2,95,-1
 142 1060 l 1,96,-1
 142 1040 l 1,97,-1
 140 1044 l 1,98,-1
 140 1048 l 1,99,-1
 140 1032 l 1,100,-1
 140 1024 l 2,101,102
 140 1016 140 1016 134 1024 c 0,103,104
 126 1034 126 1034 130 1036 c 0,105,106
 170 1060 170 1060 280 1094 c 0,107,108
 282 1094 282 1094 282 1090 c 0,109,110
 282 1088 282 1088 284 1084 c 0,111,112
 284 1082 284 1082 288 1080 c 0,113,114
 294 1074 294 1074 292 1072 c 0,115,116
 270 1050 270 1050 224 1018 c 128,-1,117
 178 986 178 986 168 980 c 1,118,119
 176 988 176 988 184 988 c 0,120,121
 194 990 194 990 214 992 c 128,-1,122
 234 994 234 994 236 994 c 2,123,-1
 266 994 l 2,124,125
 268 994 268 994 298 988 c 0,126,127
 308 984 308 984 327 979 c 128,-1,128
 346 974 346 974 356 970 c 2,129,-1
 364 968 l 2,130,131
 372 968 372 968 374 968 c 128,-1,132
 376 968 376 968 376 966 c 2,133,-1
 380 964 l 1,134,-1
 382 964 l 2,135,136
 384 962 384 962 386 962 c 0,137,138
 404 956 404 956 404 946 c 2,139,-1
 404 944 l 2,140,141
 402 944 402 944 406 952 c 128,-1,142
 410 960 410 960 440 985 c 128,-1,143
 470 1010 470 1010 524 1044 c 1,144,145
 522 1056 522 1056 522 1084 c 0,146,147
 522 1130 522 1130 550 1294 c 0,148,149
 558 1336 558 1336 562 1382 c 128,-1,150
 566 1428 566 1428 568 1495 c 128,-1,151
 570 1562 570 1562 572 1588 c 0,152,153
 572 1592 572 1592 573 1601 c 128,-1,154
 574 1610 574 1610 574 1614 c 2,155,-1
 574 1640 l 1,156,-1
 574 1660 l 1,157,-1
 574 1726 l 1,158,-1
 574 1784 l 1,159,-1
 574 1912 l 1,160,-1
 574 1928 l 1,161,162
 578 1952 578 1952 578 1968 c 2,163,-1
 578 2002 l 2,164,165
 578 2004 578 2004 580 2008 c 0,166,167
 580 2012 580 2012 578 2012 c 0,168,169
 526 1994 526 1994 422 1954 c 0,170,171
 420 1954 420 1954 420 1946 c 2,172,-1
 420 1872 l 2,173,174
 420 1866 420 1866 419 1855 c 128,-1,175
 418 1844 418 1844 418 1840 c 2,176,-1
 418 1746 l 2,177,178
 418 1674 418 1674 414 1522 c 0,179,180
 414 1504 414 1504 412 1472 c 128,-1,181
 410 1440 410 1440 410 1422 c 2,182,-1
 410 1394 l 2,183,184
 410 1384 410 1384 409 1362 c 128,-1,185
 408 1340 408 1340 408 1330 c 0,186,187
 408 1324 408 1324 406 1314 c 128,-1,188
 404 1304 404 1304 404 1300 c 128,-1,189
 404 1296 404 1296 402 1286 c 128,-1,190
 400 1276 400 1276 400 1272 c 0,191,192
 398 1256 398 1256 395 1220 c 128,-1,193
 392 1184 392 1184 390 1168 c 0,194,195
 390 1150 390 1150 386 1114 c 1,196,-1
 386 1084 l 2,197,198
 386 1080 386 1080 385 1068 c 128,-1,199
 384 1056 384 1056 384 1052 c 128,-1,200
 384 1048 384 1048 383 1036 c 128,-1,201
 382 1024 382 1024 382 1018 c 128,-1,202
 382 1012 382 1012 381 1000 c 128,-1,203
 380 988 380 988 380 982 c 0,204,205
 380 958 380 958 376 915 c 128,-1,206
 372 872 372 872 372 858 c 0,207,208
 372 850 372 850 371 833 c 128,-1,209
 370 816 370 816 370 808 c 2,210,-1
 370 788 l 2,211,212
 370 780 370 780 371 760 c 128,-1,213
 372 740 372 740 372 732 c 2,214,-1
 372 706 l 2,215,216
 372 702 372 702 374 691 c 128,-1,217
 376 680 376 680 376 676 c 128,-1,218
 376 672 376 672 377 662 c 128,-1,219
 378 652 378 652 378 646 c 0,220,221
 378 642 378 642 384 566 c 0,222,223
 390 508 390 508 396 496 c 0,224,225
 396 494 396 494 396 488 c 128,-1,226
 396 482 396 482 398 480 c 0,227,228
 412 448 412 448 431 415 c 128,-1,229
 450 382 450 382 458 366 c 1,230,-1
 600 450 l 1,231,-1
 566 504 l 2,232,233
 548 536 548 536 542 557 c 128,-1,234
 536 578 536 578 534 596 c 128,-1,235
 532 614 532 614 528 626 c 0,236,237
 516 698 516 698 516 826 c 2,238,-1
 516 912 l 2,239,240
 516 938 516 938 520 998 c 1,241,-1
 520 1032 l 1,242,243
 530 1182 530 1182 544 1270 c 0,244,245
 544 1274 544 1274 545 1282 c 128,-1,246
 546 1290 546 1290 546 1294 c 0,247,248
 554 1414 554 1414 554 1574 c 2,249,-1
 554 1690 l 2,250,251
 554 1696 554 1696 555 1712 c 128,-1,252
 556 1728 556 1728 556 1734 c 2,253,-1
 556 1778 l 2,254,255
 556 1788 556 1788 558 1818 c 0,256,257
 558 1824 558 1824 559 1838 c 128,-1,258
 560 1852 560 1852 560 1858 c 128,-1,259
 560 1864 560 1864 561 1875 c 128,-1,260
 562 1886 562 1886 562 1892 c 0,261,262
 566 1942 566 1942 574 1986 c 0,263,264
 574 1988 574 1988 576 1991 c 128,-1,265
 578 1994 578 1994 578 1996 c 0,266,267
 578 2002 578 2002 580 2002 c 1,268,269
 550 1994 550 1994 496 1976 c 128,-1,270
 442 1958 442 1958 424 1952 c 1,271,-1
 422 1952 l 1,272,-1
 422 1948 l 1,273,-1
 422 1870 l 2,274,275
 422 1866 422 1866 423 1857 c 128,-1,276
 424 1848 424 1848 424 1844 c 2,277,-1
 424 1774 l 2,278,279
 424 1772 424 1772 425 1766 c 128,-1,280
 426 1760 426 1760 426 1758 c 2,281,-1
 426 1744 l 2,282,283
 426 1740 426 1740 427 1734 c 128,-1,284
 428 1728 428 1728 428 1726 c 2,285,-1
 428 1668 l 1,286,-1
 428 1606 l 1,287,-1
 428 1506 l 2,288,289
 428 1412 428 1412 404 1248 c 1,290,-1
 400 1214 l 1,291,-1
 392 1182 l 2,292,293
 372 1086 372 1086 372 1038 c 0,294,295
 372 1036 372 1036 371 1032 c 128,-1,296
 370 1028 370 1028 370 1026 c 0,297,298
 370 1014 370 1014 366 1014 c 0,299,300
 364 1014 364 1014 360 1016 c 1,301,302
 418 1054 418 1054 488 1096 c 0,303,304
 492 1096 492 1096 492 1092 c 0,305,306
 484 1084 484 1084 476 1084 c 0,307,308
 466 1084 466 1084 436 1096 c 1,309,-1
 418 1100 l 2,310,311
 420 1100 420 1100 428 1098 c 2,312,-1
 426 1098 l 2,313,314
 422 1100 422 1100 414 1102 c 0,315,316
 390 1110 390 1110 378 1112 c 0,317,318
 376 1112 376 1112 373 1113 c 128,-1,319
 370 1114 370 1114 368 1114 c 2,320,-1
 352 1114 l 2,321,322
 350 1114 350 1114 347 1115 c 128,-1,323
 344 1116 344 1116 342 1116 c 2,324,-1
 314 1116 l 2,325,326
 312 1116 312 1116 307 1115 c 128,-1,327
 302 1114 302 1114 300 1114 c 2,328,-1
 288 1114 l 2,329,330
 286 1114 286 1114 280 1113 c 128,-1,331
 274 1112 274 1112 272 1112 c 0,332,333
 268 1112 268 1112 260 1116 c 1,334,335
 244 1106 244 1106 218 1088 c 128,-1,336
 192 1070 192 1070 170 1054 c 128,-1,337
 148 1038 148 1038 130 1022 c 1,338,-1
 136 1004 l 1,339,-1
 146 990 l 1,340,341
 180 1000 180 1000 210 1007 c 128,-1,342
 240 1014 240 1014 255 1015 c 128,-1,343
 270 1016 270 1016 282 1018 c 128,-1,344
 294 1020 294 1020 297 1023 c 128,-1,345
 300 1026 300 1026 300 1034 c 0,346,347
 300 1038 300 1038 296 1062 c 0,348,349
 296 1064 296 1064 295 1068 c 128,-1,350
 294 1072 294 1072 294 1074 c 0,351,352
 294 1078 294 1078 295 1082 c 128,-1,353
 296 1086 296 1086 294 1092 c 2,354,-1
 292 1104 l 1,355,-1
 292 1102 l 1,356,-1
 292 1116 l 2,357,358
 290 1130 290 1130 290 1152 c 0,359,360
 290 1156 290 1156 289 1162 c 128,-1,361
 288 1168 288 1168 288 1172 c 0,362,363
 286 1194 286 1194 286 1284 c 0,364,365
 286 1292 286 1292 284 1306 c 128,-1,366
 282 1320 282 1320 282 1326 c 2,367,-1
 282 1368 l 2,368,369
 282 1384 282 1384 281 1416 c 128,-1,370
 280 1448 280 1448 280 1464 c 0,371,372
 280 1468 280 1468 281 1477 c 128,-1,373
 282 1486 282 1486 282 1492 c 0,374,375
 280 1518 280 1518 278 1572 c 128,-1,376
 276 1626 276 1626 274 1652 c 0,377,378
 274 1674 274 1674 272 1720 c 2,379,-1
 272 1754 l 2,380,381
 272 1880 272 1880 288 1932 c 1,382,-1
 288 1934 l 1,383,-1
 290 1936 l 1,384,385
 308 1920 308 1920 308 1916 c 128,-1,386
 308 1912 308 1912 295 1909 c 128,-1,387
 282 1906 282 1906 238 1896 c 128,-1,388
 194 1886 194 1886 146 1872 c 0,389,390
 144 1872 144 1872 142 1874 c 128,-1,391
 140 1876 140 1876 139 1881 c 128,-1,392
 138 1886 138 1886 138 1888 c 2,393,-1
 136 1888 l 2,394,395
 136 1886 136 1886 137 1884 c 128,-1,396
 138 1882 138 1882 138 1880 c 2,397,-1
 138 1818 l 1,398,-1
 138 1660 l 2,399,400
 140 1632 140 1632 140 1628 c 2,401,-1
 140 1538 l 2,402,403
 140 1536 140 1536 139 1512 c 128,-1,404
 138 1488 138 1488 138 1484 c 2,405,-1
 132 1370 l 2,406,407
 124 1218 124 1218 112 1138 c 0,408,409
 108 1100 108 1100 93 1028 c 128,-1,410
 78 956 78 956 78 952 c 0,411,412
 74 940 74 940 68 918 c 128,-1,413
 62 896 62 896 58 884 c 0,414,415
 56 878 56 878 52 867 c 128,-1,416
 48 856 48 856 48 852 c 0,417,418
 40 826 40 826 40 822 c 256,419,420
 40 818 40 818 34 796 c 0,421,422
 32 790 32 790 30 780 c 128,-1,423
 28 770 28 770 26 766 c 0,424,425
 24 752 24 752 16 725 c 128,-1,426
 8 698 8 698 6 684 c 0,427,428
 4 672 4 672 0 647 c 128,-1,429
 -4 622 -4 622 -8 610 c 0,430,431
 -8 608 -8 608 -11 584 c 128,-1,432
 -14 560 -14 560 -14 558 c 0,433,434
 -16 552 -16 552 -20 544 c 128,-1,435
 -24 536 -24 536 -24 530 c 0,436,437
 -36 472 -36 472 -38 466 c 1,0,-1
EndSplineSet
Validated: 5
EndChar

StartChar: I
Encoding: 73 73 44
Width: 799
GlyphClass: 2
Flags: W
LayerCount: 2
Fore
SplineSet
-56 954 m 0,0,1
 -56 952 -56 952 -42 910 c 0,2,3
 -22 852 -22 852 -16 800 c 0,4,5
 -16 798 -16 798 -15 789 c 128,-1,6
 -14 780 -14 780 -14 776 c 0,7,8
 -10 744 -10 744 -2 608 c 0,9,10
 0 592 0 592 0 561 c 128,-1,11
 0 530 0 530 0 514 c 2,12,-1
 0 500 l 2,13,14
 0 502 0 502 1 499 c 128,-1,15
 2 496 2 496 2 488 c 256,16,17
 2 480 2 480 6 444 c 1,18,19
 24 384 24 384 66 374 c 0,20,21
 82 368 82 368 130 364 c 1,22,-1
 152 364 l 2,23,24
 180 364 180 364 228 380 c 1,25,26
 360 448 360 448 398 486 c 2,27,-1
 416 504 l 2,28,29
 418 506 418 506 432 526 c 2,30,-1
 446 546 l 2,31,32
 452 558 452 558 469 585 c 128,-1,33
 486 612 486 612 492 628 c 0,34,35
 502 648 502 648 522 702 c 1,36,37
 540 774 540 774 540 802 c 0,38,39
 542 844 542 844 549 992 c 128,-1,40
 556 1140 556 1140 556 1220 c 0,41,42
 556 1248 556 1248 559 1300 c 128,-1,43
 562 1352 562 1352 562 1380 c 0,44,45
 562 1384 562 1384 563 1392 c 128,-1,46
 564 1400 564 1400 564 1404 c 2,47,-1
 564 1444 l 2,48,49
 564 1452 564 1452 566 1466 c 128,-1,50
 568 1480 568 1480 568 1486 c 2,51,-1
 568 1506 l 2,52,53
 568 1510 568 1510 569 1518 c 128,-1,54
 570 1526 570 1526 570 1530 c 2,55,-1
 570 1550 l 1,56,-1
 570 1572 l 2,57,58
 570 1566 570 1566 572 1572 c 0,59,60
 572 1578 572 1578 572 1590 c 2,61,-1
 572 1674 l 2,62,63
 572 1680 572 1680 571 1693 c 128,-1,64
 570 1706 570 1706 570 1712 c 0,65,66
 564 1762 564 1762 556 1786 c 1,67,68
 554 1808 554 1808 542 1842 c 0,69,70
 540 1846 540 1846 537 1853 c 128,-1,71
 534 1860 534 1860 532 1864 c 0,72,73
 528 1868 528 1868 528 1870 c 0,74,75
 520 1894 520 1894 498 1912 c 0,76,77
 496 1918 496 1918 481 1925 c 128,-1,78
 466 1932 466 1932 458 1932 c 2,79,-1
 446 1932 l 1,80,81
 424 1918 424 1918 381 1892 c 128,-1,82
 338 1866 338 1866 316 1854 c 0,83,84
 316 1850 316 1850 314 1843 c 128,-1,85
 312 1836 312 1836 310 1832 c 2,86,-1
 308 1830 l 2,87,88
 308 1828 308 1828 308 1826 c 2,89,-1
 308 1818 l 2,90,91
 306 1812 306 1812 306 1772 c 1,92,-1
 304 1768 l 2,93,94
 304 1764 304 1764 304 1762 c 2,95,-1
 304 1742 l 2,96,97
 304 1736 304 1736 303 1726 c 128,-1,98
 302 1716 302 1716 302 1710 c 0,99,100
 302 1708 302 1708 301 1704 c 128,-1,101
 300 1700 300 1700 300 1698 c 2,102,-1
 300 1684 l 2,103,104
 300 1676 300 1676 301 1658 c 128,-1,105
 302 1640 302 1640 302 1632 c 0,106,107
 302 1630 302 1630 301 1625 c 128,-1,108
 300 1620 300 1620 300 1618 c 2,109,-1
 302 1588 l 1,110,-1
 302 1412 l 2,111,112
 302 1354 302 1354 307 1305 c 128,-1,113
 312 1256 312 1256 312 1206 c 0,114,115
 312 1176 312 1176 308 1120 c 0,116,117
 308 1078 308 1078 300 990 c 1,118,-1
 300 970 l 2,119,120
 300 968 300 968 299 960 c 128,-1,121
 298 952 298 952 298 950 c 0,122,123
 296 936 296 936 297 930 c 128,-1,124
 298 924 298 924 298 912 c 0,125,126
 298 906 298 906 297 895 c 128,-1,127
 296 884 296 884 296 878 c 2,128,-1
 296 844 l 2,129,130
 296 836 296 836 294 815 c 128,-1,131
 292 794 292 794 292 786 c 2,132,-1
 292 770 l 2,133,134
 292 782 292 782 290 770 c 0,135,136
 290 766 290 766 290 760 c 2,137,-1
 290 702 l 2,138,139
 288 682 288 682 288 642 c 2,140,-1
 288 614 l 1,141,-1
 288 430 l 2,142,143
 288 428 288 428 289 426 c 128,-1,144
 290 424 290 424 290 422 c 2,145,-1
 290 410 l 1,146,147
 302 350 302 350 328 324 c 1,148,149
 366 268 366 268 410 268 c 2,150,151
 410 268 410 268 412 268 c 2,152,-1
 416 266 l 1,153,-1
 440 266 l 1,154,-1
 542 396 l 2,155,156
 540 396 540 396 540 395 c 128,-1,157
 540 394 540 394 538 394 c 0,158,159
 530 390 530 390 520 390 c 2,160,-1
 506 390 l 2,161,162
 504 390 504 390 498 388 c 0,163,164
 474 388 474 388 457 420 c 128,-1,165
 440 452 440 452 440 472 c 0,166,167
 438 490 438 490 438 528 c 2,168,-1
 438 598 l 1,169,-1
 440 610 l 1,170,-1
 440 622 l 2,171,172
 440 630 440 630 439 647 c 128,-1,173
 438 664 438 664 438 672 c 2,174,-1
 438 758 l 2,175,176
 438 764 438 764 439 780 c 128,-1,177
 440 796 440 796 440 802 c 2,178,-1
 440 816 l 1,179,-1
 440 814 l 2,180,181
 440 810 440 810 442 814 c 0,182,183
 442 818 442 818 442 826 c 2,184,-1
 442 842 l 2,185,186
 444 866 444 866 444 908 c 2,187,-1
 444 984 l 2,188,189
 444 988 444 988 445 996 c 128,-1,190
 446 1004 446 1004 446 1006 c 0,191,192
 446 1034 446 1034 451 1091 c 128,-1,193
 456 1148 456 1148 456 1176 c 0,194,195
 456 1180 456 1180 457 1187 c 128,-1,196
 458 1194 458 1194 458 1198 c 0,197,198
 458 1210 458 1210 457 1222 c 128,-1,199
 456 1234 456 1234 456 1246 c 2,200,-1
 456 1272 l 2,201,202
 456 1276 456 1276 455 1284 c 128,-1,203
 454 1292 454 1292 454 1296 c 2,204,-1
 454 1326 l 2,205,206
 452 1352 452 1352 452 1382 c 0,207,208
 452 1386 452 1386 451 1398 c 128,-1,209
 450 1410 450 1410 450 1416 c 128,-1,210
 450 1422 450 1422 451 1435 c 128,-1,211
 452 1448 452 1448 452 1454 c 0,212,213
 452 1458 452 1458 451 1465 c 128,-1,214
 450 1472 450 1472 450 1476 c 2,215,-1
 450 1498 l 2,216,217
 450 1504 450 1504 451 1519.5 c 128,-1,218
 452 1535 452 1535 452 1542 c 2,219,-1
 452 1598 l 2,220,221
 452 1608 452 1608 452 1627 c 128,-1,222
 452 1646 452 1646 452 1661 c 128,-1,223
 452 1676 452 1676 452 1690 c 0,224,225
 452 1696 452 1696 453 1710 c 128,-1,226
 454 1724 454 1724 454 1730 c 2,227,-1
 454 1764 l 2,228,229
 456 1774 456 1774 458 1796 c 128,-1,230
 460 1818 460 1818 460 1828 c 0,231,232
 460 1840 460 1840 466 1858 c 128,-1,233
 472 1876 472 1876 482 1866 c 1,234,235
 460 1852 460 1852 420 1828 c 128,-1,236
 380 1804 380 1804 358 1792 c 1,237,-1
 360 1794 l 2,238,239
 360 1796 360 1796 360 1798 c 128,-1,240
 360 1800 360 1800 358 1803 c 128,-1,241
 356 1806 356 1806 356 1808 c 2,242,-1
 364 1808 l 1,243,-1
 366 1810 l 1,244,-1
 368 1810 l 2,245,246
 376 1808 376 1808 380 1801 c 128,-1,247
 384 1794 384 1794 388 1783 c 128,-1,248
 392 1772 392 1772 394 1768 c 2,249,250
 394 1768 394 1768 396 1760 c 2,251,252
 396 1760 396 1760 398 1752 c 1,253,-1
 400 1750 l 2,254,255
 402 1748 402 1748 402 1746 c 0,256,257
 418 1686 418 1686 420 1652 c 2,258,-1
 420 1640 l 1,259,-1
 422 1628 l 2,260,261
 422 1626 422 1626 423 1622 c 128,-1,262
 424 1618 424 1618 424 1616 c 2,263,-1
 424 1550 l 2,264,265
 424 1534 424 1534 423 1502 c 128,-1,266
 422 1470 422 1470 422 1454 c 0,267,268
 422 1448 422 1448 420 1432 c 128,-1,269
 418 1416 418 1416 418 1412 c 2,270,-1
 418 1392 l 2,271,272
 418 1388 418 1388 417 1380 c 128,-1,273
 416 1372 416 1372 416 1370 c 2,274,-1
 416 1278 l 2,275,276
 416 1264 416 1264 415 1234 c 128,-1,277
 414 1204 414 1204 414 1190 c 2,278,-1
 414 1164 l 1,279,280
 418 1044 418 1044 418 986 c 0,281,282
 418 976 418 976 417 955 c 128,-1,283
 416 934 416 934 416 926 c 0,284,285
 412 826 412 826 400 756 c 0,286,287
 396 736 396 736 386 707 c 128,-1,288
 376 678 376 678 374 666 c 0,289,290
 306 510 306 510 226 464 c 1,291,292
 178 430 178 430 162 430 c 1,293,294
 188 448 188 448 314 514 c 1,295,296
 268 482 268 482 238 482 c 2,297,-1
 210 482 l 2,298,299
 208 482 208 482 204 483 c 128,-1,300
 200 484 200 484 198 484 c 0,301,302
 178 484 178 484 170 486 c 2,303,-1
 166 486 l 1,304,-1
 162 494 l 2,305,306
 162 496 162 496 160 500 c 0,307,308
 156 512 156 512 155 537 c 128,-1,309
 154 562 154 562 152 572 c 0,310,311
 152 576 152 576 150 586 c 128,-1,312
 148 596 148 596 148 600 c 128,-1,313
 148 604 148 604 147 616 c 128,-1,314
 146 628 146 628 146 632 c 0,315,316
 144 662 144 662 144 668 c 0,317,318
 144 678 144 678 142 699 c 128,-1,319
 140 720 140 720 140 730 c 0,320,321
 140 734 140 734 139 741 c 128,-1,322
 138 748 138 748 138 752 c 2,323,-1
 138 774 l 2,324,325
 138 776 138 776 137 784 c 128,-1,326
 136 792 136 792 136 796 c 0,327,328
 122 934 122 934 112 968 c 1,329,-1
 112 970 l 2,330,331
 110 972 110 972 110 974 c 256,332,333
 110 976 110 976 108 980 c 2,334,-1
 106 982 l 2,335,336
 104 984 104 984 104 986 c 2,337,-1
 104 988 l 1,338,-1
 102 992 l 1,339,-1
 102 996 l 1,340,-1
 108 984 l 1,341,-1
 108 982 l 1,342,343
 84 964 84 964 35 933 c 128,-1,344
 -14 902 -14 902 -20 898 c 1,345,-1
 -24 900 l 2,346,347
 -26 900 -26 900 -26 902 c 2,348,349
 -26 902 -26 902 -20 906 c 1,350,-1
 -4 906 l 1,351,-1
 48 906 l 1,352,-1
 154 1034 l 1,353,354
 122 1030 122 1030 102 1030 c 2,355,-1
 84 1030 l 2,356,357
 80 1030 80 1030 74 1036 c 1,358,359
 50 1022 50 1022 22 1009 c 128,-1,360
 -6 996 -6 996 -21 991 c 128,-1,361
 -36 986 -36 986 -46 976 c 128,-1,362
 -56 966 -56 966 -56 954 c 0,0,1
EndSplineSet
Validated: 5
EndChar

StartChar: J
Encoding: 74 74 45
Width: 799
GlyphClass: 2
Flags: W
LayerCount: 2
Fore
SplineSet
-68 478 m 2,0,1
 -68 472 -68 472 -68 471 c 128,-1,2
 -68 470 -68 470 -66 464 c 2,3,-1
 -66 454 l 2,4,5
 -66 452 -66 452 -64 448 c 2,6,-1
 -60 444 l 1,7,8
 -58 436 -58 436 -48 397 c 128,-1,9
 -38 358 -38 358 -28 338 c 0,10,11
 -28 336 -28 336 -24 333 c 128,-1,12
 -20 330 -20 330 -18 328 c 0,13,14
 20 264 20 264 44 250 c 0,15,16
 46 248 46 248 52 241 c 128,-1,17
 58 234 58 234 62 230 c 0,18,19
 64 228 64 228 74 222 c 128,-1,20
 84 216 84 216 86 216 c 0,21,22
 104 206 104 206 134 202 c 0,23,24
 136 202 136 202 144 201 c 128,-1,25
 152 200 152 200 156 200 c 2,26,-1
 186 200 l 2,27,28
 188 200 188 200 192 201 c 128,-1,29
 196 202 196 202 198 202 c 0,30,31
 224 204 224 204 251 215 c 128,-1,32
 278 226 278 226 294 235 c 128,-1,33
 310 244 310 244 342 265 c 128,-1,34
 374 286 374 286 384 292 c 0,35,36
 386 294 386 294 402 308 c 128,-1,37
 418 322 418 322 426 333 c 128,-1,38
 434 344 434 344 440 356 c 0,39,40
 504 470 504 470 504 612 c 0,41,42
 504 620 504 620 505 636 c 128,-1,43
 506 652 506 652 506 658 c 2,44,-1
 506 682 l 2,45,46
 506 686 506 686 507 695 c 128,-1,47
 508 704 508 704 508 708 c 2,48,-1
 508 760 l 1,49,-1
 508 812 l 1,50,-1
 508 892 l 2,51,52
 508 896 508 896 509 904 c 128,-1,53
 510 912 510 912 510 916 c 0,54,55
 512 964 512 964 520 1062 c 128,-1,56
 528 1160 528 1160 530 1212 c 0,57,58
 530 1216 530 1216 531 1224 c 128,-1,59
 532 1232 532 1232 532 1234 c 2,60,-1
 532 1470 l 2,61,62
 532 1486 532 1486 531 1519 c 128,-1,63
 530 1552 530 1552 530 1568 c 2,64,-1
 530 1614 l 2,65,66
 530 1626 530 1626 531 1647 c 128,-1,67
 532 1668 532 1668 532 1680 c 2,68,-1
 532 1722 l 2,69,70
 532 1724 532 1724 534 1732 c 128,-1,71
 536 1740 536 1740 536 1744 c 0,72,73
 536 1774 536 1774 548 1834 c 0,74,75
 548 1836 548 1836 549 1838 c 128,-1,76
 550 1840 550 1840 550 1842 c 0,77,78
 550 1848 550 1848 552 1848 c 1,79,80
 414 1806 414 1806 374 1806 c 0,81,82
 364 1806 364 1806 364 1808 c 0,83,84
 364 1812 364 1812 374 1812 c 0,85,86
 394 1812 394 1812 394 1790 c 0,87,88
 394 1736 394 1736 360 1702 c 0,89,90
 358 1700 358 1700 350 1685 c 128,-1,91
 342 1670 342 1670 336 1664 c 0,92,93
 304 1622 304 1622 216 1562 c 2,94,-1
 196 1548 l 1,95,96
 222 1560 222 1560 262 1586 c 1,97,98
 166 1538 166 1538 152 1534 c 1,99,-1
 56 1398 l 1,100,101
 84 1410 84 1410 180 1458 c 1,102,103
 266 1506 266 1506 348 1554 c 0,104,105
 358 1560 358 1560 426 1612 c 0,106,107
 430 1616 430 1616 441 1626 c 128,-1,108
 452 1636 452 1636 456 1640 c 0,109,110
 466 1650 466 1650 496 1690 c 0,111,112
 500 1698 500 1698 508 1713 c 128,-1,113
 516 1728 516 1728 520 1734 c 0,114,115
 550 1782 550 1782 550 1846 c 0,116,117
 550 1864 550 1864 572 1880 c 128,-1,118
 594 1896 594 1896 604 1896 c 1,119,-1
 606 1894 l 1,120,121
 606 1882 606 1882 392 1798 c 1,122,-1
 392 1792 l 1,123,-1
 392 1786 l 2,124,125
 392 1768 392 1768 388 1744 c 1,126,-1
 388 1726 l 2,127,128
 388 1722 388 1722 387 1716 c 128,-1,129
 386 1710 386 1710 386 1708 c 2,130,-1
 386 1690 l 2,131,132
 386 1680 386 1680 385 1658 c 128,-1,133
 384 1636 384 1636 384 1626 c 2,134,-1
 384 1604 l 1,135,-1
 384 1556 l 1,136,-1
 384 1508 l 2,137,138
 384 1484 384 1484 385 1484 c 128,-1,139
 386 1484 386 1484 386 1460 c 0,140,141
 386 1452 386 1452 385 1436 c 128,-1,142
 384 1420 384 1420 384 1414 c 0,143,144
 384 1412 384 1412 385 1404 c 128,-1,145
 386 1396 386 1396 386 1394 c 2,146,-1
 386 1326 l 1,147,-1
 386 1284 l 1,148,-1
 386 1200 l 1,149,-1
 384 1172 l 1,150,-1
 384 1156 l 1,151,-1
 384 1114 l 2,152,153
 384 1110 384 1110 382 1103 c 128,-1,154
 380 1096 380 1096 380 1092 c 0,155,156
 374 1042 374 1042 366 914 c 1,157,-1
 366 890 l 2,158,159
 366 886 366 886 365 877 c 128,-1,160
 364 868 364 868 364 864 c 2,161,-1
 364 706 l 2,162,163
 364 678 364 678 360 627 c 128,-1,164
 356 576 356 576 356 560 c 0,165,166
 356 556 356 556 355 550 c 128,-1,167
 354 544 354 544 354 540 c 128,-1,168
 354 536 354 536 353 530 c 128,-1,169
 352 524 352 524 352 520 c 0,170,171
 344 456 344 456 306 366 c 1,172,173
 264 304 264 304 220 284 c 1,174,175
 344 372 344 372 360 372 c 0,176,177
 364 372 364 372 350 362 c 0,178,179
 316 336 316 336 296 330 c 0,180,181
 288 326 288 326 244 322 c 1,182,183
 196 322 196 322 162 356 c 2,184,-1
 146 372 l 2,185,186
 144 372 144 372 142 376 c 2,187,-1
 140 380 l 1,188,189
 86 434 86 434 86 540 c 0,190,191
 88 544 88 544 86 552 c 128,-1,192
 84 560 84 560 84 562 c 128,-1,193
 84 564 84 564 85 566 c 128,-1,194
 86 568 86 568 86 570 c 0,195,196
 90 612 90 612 108 642 c 0,197,198
 130 686 130 686 180 750 c 1,199,-1
 140 744 l 2,200,201
 100 738 100 738 60 732 c 2,202,-1
 20 724 l 1,203,204
 -32 656 -32 656 -50 604 c 0,205,206
 -54 596 -54 596 -57 580 c 128,-1,207
 -60 564 -60 564 -62 556 c 0,208,209
 -62 554 -62 554 -65 550 c 128,-1,210
 -68 546 -68 546 -68 544 c 2,211,-1
 -68 532 l 2,212,213
 -70 532 -70 532 -68 504 c 2,214,-1
 -68 478 l 2,0,1
EndSplineSet
Validated: 5
EndChar

StartChar: K
Encoding: 75 75 46
Width: 799
GlyphClass: 2
Flags: W
LayerCount: 2
Fore
SplineSet
62 1740 m 1,0,1
 74 1746 74 1746 122 1774 c 128,-1,2
 170 1802 170 1802 196 1818 c 1,3,4
 196 1816 196 1816 195 1811 c 128,-1,5
 194 1806 194 1806 194 1804 c 0,6,7
 192 1796 192 1796 193 1776 c 128,-1,8
 194 1756 194 1756 194 1748 c 0,9,10
 192 1730 192 1730 192 1696 c 128,-1,11
 192 1662 192 1662 190 1644 c 0,12,13
 190 1638 190 1638 189 1626 c 128,-1,14
 188 1614 188 1614 188 1608 c 2,15,-1
 188 1574 l 2,16,17
 190 1568 190 1568 188 1535 c 0,18,19
 190 1507 190 1507 193 1448.5 c 128,-1,20
 196 1390 196 1390 196 1364 c 0,21,22
 194 1356 194 1356 196 1328 c 0,23,24
 196 1324 196 1324 202 1270 c 1,25,26
 186 1258 186 1258 166 1244 c 0,27,28
 162 1242 162 1242 166 1232 c 0,29,30
 168 1226 168 1226 168 1224 c 0,31,32
 168 1220 168 1220 167 1214 c 128,-1,33
 166 1208 166 1208 166 1204 c 0,34,35
 164 1190 164 1190 164 1163 c 128,-1,36
 164 1136 164 1136 162 1122 c 0,37,38
 162 1118 162 1118 161 1109 c 128,-1,39
 160 1100 160 1100 160 1096 c 2,40,-1
 160 1036 l 2,41,42
 160 1008 160 1008 168 968 c 0,43,44
 174 914 174 914 178 798 c 0,45,46
 178 784 178 784 179 756 c 128,-1,47
 180 728 180 728 180 712 c 0,48,49
 180 662 180 662 176 564 c 128,-1,50
 172 466 172 466 172 442 c 0,51,52
 174 432 174 432 172 386 c 0,53,54
 172 378 172 378 171 360 c 128,-1,55
 170 342 170 342 170 334 c 0,56,57
 170 324 170 324 169 302 c 128,-1,58
 168 280 168 280 168 270 c 2,59,-1
 168 218 l 1,60,61
 172 146 172 146 176 130 c 1,62,63
 246 156 246 156 324 196 c 1,64,-1
 326 190 l 2,65,66
 328 184 328 184 330 184 c 2,67,-1
 330 186 l 2,68,69
 330 188 330 188 329 188 c 128,-1,70
 328 188 328 188 328 190 c 2,71,-1
 328 192 l 1,72,-1
 326 196 l 1,73,74
 326 196 326 196 322 210 c 0,75,76
 322 212 322 212 320 215 c 128,-1,77
 318 218 318 218 318 220 c 128,-1,78
 318 222 318 222 317 228 c 128,-1,79
 316 234 316 234 316 236 c 2,80,-1
 312 252 l 1,81,-1
 310 274 l 2,82,83
 308 284 308 284 308 304 c 0,84,85
 304 342 304 342 304 418 c 2,86,-1
 304 546 l 2,87,88
 304 556 304 556 305 574 c 128,-1,89
 306 592 306 592 306 602 c 0,90,91
 308 622 308 622 310 661 c 128,-1,92
 312 700 312 700 314 718 c 2,93,-1
 314 766 l 2,94,95
 314 780 314 780 315 789 c 128,-1,96
 316 798 316 798 316 803 c 128,-1,97
 316 808 316 808 316 810 c 2,98,-1
 316 822 l 2,99,100
 314 834 314 834 314 852 c 2,101,-1
 314 880 l 1,102,103
 348 820 348 820 422 669 c 128,-1,104
 496 518 496 518 522 468 c 0,105,106
 528 454 528 454 562 386 c 0,107,108
 592 324 592 324 600 324 c 0,109,110
 602 324 602 324 668 366 c 128,-1,111
 734 408 734 408 734 410 c 2,112,-1
 724 420 l 2,113,114
 720 426 720 426 708 441 c 128,-1,115
 696 456 696 456 692 462 c 0,116,117
 684 474 684 474 667 499 c 128,-1,118
 650 524 650 524 642 538 c 0,119,120
 524 728 524 728 428 946 c 0,121,122
 378 1060 378 1060 376 1066 c 128,-1,123
 374 1072 374 1072 370 1085 c 128,-1,124
 366 1098 366 1098 364 1104 c 1,125,-1
 418 1108 l 2,126,127
 422 1112 422 1112 433 1122 c 128,-1,128
 444 1132 444 1132 450 1136 c 128,-1,129
 456 1140 456 1140 482 1159 c 128,-1,130
 508 1178 508 1178 534 1197 c 128,-1,131
 560 1216 560 1216 562 1218 c 0,132,133
 610 1252 610 1252 653 1285 c 128,-1,134
 696 1318 696 1318 748 1356 c 0,135,136
 756 1364 756 1364 777 1380 c 128,-1,137
 798 1396 798 1396 806 1404 c 0,138,139
 826 1422 826 1422 865 1456 c 128,-1,140
 904 1490 904 1490 924 1506 c 2,141,-1
 1056 1620 l 2,142,143
 1076 1636 1076 1636 1084 1642 c 128,-1,144
 1092 1648 1092 1648 1106 1660 c 1,145,-1
 1068 1656 l 2,146,147
 1028 1654 1028 1654 988 1650 c 2,148,-1
 950 1646 l 1,149,150
 608 1304 608 1304 304 1124 c 1,151,152
 304 1168 304 1168 310 1212 c 1,153,154
 336 1216 336 1216 345 1223 c 128,-1,155
 354 1230 354 1230 354 1248 c 128,-1,156
 354 1266 354 1266 346 1314 c 0,157,158
 346 1318 346 1318 345 1325 c 128,-1,159
 344 1332 344 1332 344 1336 c 0,160,161
 330 1456 330 1456 330 1554 c 2,162,-1
 330 1622 l 1,163,-1
 332 1660 l 2,164,165
 336 1812 336 1812 340 1858 c 0,166,167
 344 1912 344 1912 352 1938 c 1,168,169
 352 1938 352 1938 352 1940 c 2,170,-1
 354 1944 l 1,171,-1
 350 1944 l 2,172,173
 352 1944 352 1944 352 1946 c 2,174,-1
 356 1948 l 1,175,-1
 358 1956 l 2,176,177
 360 1962 360 1962 360 1964 c 0,178,179
 360 1998 360 1998 312 1998 c 0,180,181
 276 1998 276 1998 240 1978 c 128,-1,182
 204 1958 204 1958 200 1930 c 1,183,184
 148 1878 148 1878 108 1850 c 1,185,186
 138 1866 138 1866 152 1876 c 1,187,-1
 62 1740 l 1,0,1
354 1944 m 1,188,-1
 356 1944 l 1,189,-1
 358 1944 l 1,190,191
 386 1950 386 1950 388 1952 c 2,192,-1
 364 1956 l 1,193,-1
 356 1948 l 1,194,-1
 356 1946 l 1,195,-1
 354 1944 l 1,188,-1
176 122 m 2,196,-1
 178 122 l 2,197,198
 178 124 178 124 176 128 c 2,199,-1
 176 130 l 1,200,201
 154 122 154 122 154 121 c 128,-1,202
 154 120 154 120 176 122 c 2,196,-1
178 110 m 2,203,204
 178 108 178 108 181 103 c 128,-1,205
 184 98 184 98 186 96 c 0,206,207
 220 114 220 114 249 125 c 128,-1,208
 278 136 278 136 293 139 c 128,-1,209
 308 142 308 142 319 144 c 128,-1,210
 330 146 330 146 333 148 c 128,-1,211
 336 150 336 150 336 158 c 2,212,-1
 334 176 l 2,213,214
 332 176 332 176 296 164 c 128,-1,215
 260 152 260 152 221 138 c 128,-1,216
 182 124 182 124 178 122 c 1,217,-1
 178 110 l 2,203,204
334 1290 m 2,218,-1
 336 1292 l 1,219,-1
 338 1288 l 2,220,221
 336 1288 336 1288 334 1290 c 2,218,-1
322 1268 m 2,222,-1
 324 1270 l 2,223,224
 324 1272 324 1272 330 1272 c 1,225,226
 328 1272 328 1272 326 1270 c 128,-1,227
 324 1268 324 1268 322 1268 c 2,222,-1
196 1214 m 1,228,229
 180 1232 180 1232 202 1246 c 1,230,231
 202 1228 202 1228 200 1218 c 1,232,-1
 196 1214 l 1,228,229
184 1214 m 1,233,-1
 190 1208 l 1,234,-1
 188 1206 l 2,235,236
 184 1206 184 1206 184 1214 c 1,233,-1
304 1096 m 2,237,-1
 304 1102 l 1,238,-1
 314 1102 l 2,239,240
 312 1100 312 1100 309 1098 c 128,-1,241
 306 1096 306 1096 304 1096 c 2,237,-1
EndSplineSet
Validated: 5
EndChar

